<svg width="180" height="180" viewBox="0 0 180 180" fill="none" xmlns="http://www.w3.org/2000/svg">
<rect width="180" height="180" fill="#073042" fill-opacity="0.25"/>
<rect x="1" y="1" width="178" height="178" stroke="white" stroke-opacity="0.05" stroke-width="2"/>
<path fill-rule="evenodd" clip-rule="evenodd" d="M129.745 63.9391L132.102 58.1953C132.102 58.1953 129.102 55.0031 125.459 51.3859C121.818 47.7688 114.106 49.8969 114.106 49.8969L105.323 40H74.4744L65.6917 49.8969C65.6917 49.8969 57.9791 47.7688 54.3381 51.3859C50.6955 55.0031 47.6973 58.1953 47.6973 58.1953L50.0544 63.9391L47.053 72.45C47.053 72.45 55.875 105.631 56.909 109.684C58.944 117.662 60.3363 120.747 66.1207 124.791C71.9035 128.833 82.4007 135.853 84.1135 136.919C85.828 137.981 87.9714 139.794 89.8996 139.794C91.8277 139.794 93.9695 137.981 95.6824 136.919C97.3968 135.855 107.892 128.833 113.678 124.791C119.461 120.748 120.855 117.662 122.89 109.684C123.923 105.631 132.743 72.45 132.743 72.45L129.745 63.9391Z" fill="url(#paint0_linear_765_766)"/>
<path fill-rule="evenodd" clip-rule="evenodd" d="M100.824 57.9812C102.11 57.9812 111.643 56.1734 111.643 56.1734C111.643 56.1734 122.94 69.7359 122.94 72.6359C122.94 75.0328 121.968 75.9703 120.824 77.0765C120.585 77.3078 120.337 77.5453 120.09 77.8078L111.62 86.7406C111.529 86.8356 111.437 86.9293 111.343 87.0219C110.498 87.8656 109.253 89.1093 110.13 91.175L110.311 91.5953C111.274 93.8328 112.464 96.5953 110.95 99.3922C109.34 102.37 106.582 104.358 104.814 104.028C103.048 103.7 98.8959 101.545 97.3701 100.562C95.8442 99.5781 91.0058 95.6156 91.0058 94.0984C91.0058 92.8344 94.4849 90.7312 96.1758 89.7078C96.5121 89.5047 96.7776 89.3453 96.9301 89.2422C97.1045 89.125 97.3968 88.9453 97.7566 88.7234C99.2982 87.7703 102.084 86.0515 102.155 85.2906C102.242 84.35 102.209 84.075 100.964 81.7531C100.7 81.2593 100.39 80.7312 100.071 80.1844C98.8865 78.1609 97.5602 75.8953 97.8556 74.2719C98.1856 72.439 101.077 71.389 103.525 70.4984C103.83 70.389 104.13 70.2797 104.416 70.1718L106.967 69.2203C109.412 68.3109 112.127 67.3 112.577 67.0953C113.196 66.8125 113.036 66.5406 111.158 66.364C110.854 66.3344 110.55 66.3031 110.246 66.2703C107.921 66.025 103.632 65.5734 101.549 66.15C101.138 66.264 100.679 66.3875 100.197 66.5172C97.8556 67.1469 94.9846 67.9187 94.7081 68.364C94.6609 68.4422 94.6138 68.5093 94.5682 68.5718C94.3042 68.9437 94.1329 69.1875 94.4252 70.7687C94.5116 71.2406 94.6908 72.1672 94.9124 73.314C95.5566 76.6703 96.5671 81.9047 96.6944 83.0797C96.7116 83.2453 96.7321 83.4031 96.7509 83.5562C96.9128 84.8687 97.0196 85.7422 95.4859 86.0906L95.0852 86.1812C93.3535 86.575 90.8156 87.1547 89.8995 87.1547C88.9818 87.1547 86.4424 86.5765 84.7106 86.1812L84.3115 86.0906C82.7778 85.7422 82.8862 84.8687 83.0481 83.5562C83.0669 83.4031 83.0858 83.2437 83.1031 83.0797C83.2304 81.9031 84.2424 76.6547 84.8898 73.3C85.1098 72.1594 85.2874 71.2375 85.3738 70.7687C85.6645 69.1875 85.4932 68.9437 85.2292 68.5718C85.1806 68.5036 85.1334 68.4343 85.0878 68.364C84.8144 67.9187 81.9449 67.1469 79.6019 66.5172C79.1195 66.3875 78.6591 66.264 78.2505 66.15C76.1652 65.5719 71.8784 66.025 69.5526 66.2703C69.1975 66.3078 68.8895 66.3406 68.6412 66.364C66.7618 66.5406 66.6031 66.8125 67.2222 67.0953C67.6701 67.3 70.3855 68.3109 72.8291 69.2203C73.7672 69.5687 74.6676 69.9031 75.3811 70.1718C75.6686 70.2797 75.9672 70.3875 76.2736 70.5C78.7219 71.3906 81.6134 72.439 81.9434 74.2719C82.2372 75.8953 80.9109 78.1609 79.7276 80.1844C79.4071 80.7312 79.0991 81.2593 78.8335 81.7531C77.5905 84.075 77.5575 84.35 77.6439 85.2906C77.7131 86.0531 80.4976 87.7703 82.0408 88.7234C82.4006 88.9453 82.6929 89.125 82.8674 89.2422C83.0214 89.3453 83.2854 89.5047 83.6216 89.7078C85.3125 90.7297 88.7916 92.8328 88.7916 94.0984C88.7916 95.614 83.9548 99.5781 82.4274 100.562C80.9031 101.547 76.7514 103.7 74.9835 104.028C73.2172 104.356 70.4578 102.37 68.8486 99.3937C67.3354 96.5953 68.5234 93.8328 69.4866 91.5968L69.6674 91.175C70.5458 89.1093 69.3012 87.8656 68.4542 87.0219C68.3613 86.9293 68.2696 86.8356 68.1792 86.7406L59.7092 77.8078C59.4609 77.5469 59.2126 77.3078 58.9738 77.0765C57.8298 75.9719 56.8586 75.0328 56.8586 72.6359C56.8586 69.7375 68.1556 56.1734 68.1556 56.1734C68.1556 56.1734 77.6879 57.9812 78.9734 57.9812C79.9995 57.9812 81.9795 57.3047 84.0444 56.5984C84.5676 56.4203 85.0956 56.239 85.6158 56.0672C88.1851 55.2156 89.8995 55.2094 89.8995 55.2094C89.8995 55.2094 91.6124 55.2156 94.1832 56.0672C94.7018 56.239 95.2314 56.4203 95.7546 56.5984C97.8179 57.3047 99.7995 57.9812 100.824 57.9812ZM99.1882 105.959C101.203 106.991 102.633 107.722 103.173 108.058C103.873 108.492 103.447 109.312 102.809 109.761C102.172 110.206 93.6112 116.791 92.7815 117.519L92.4436 117.817C91.6438 118.534 90.6224 119.448 89.8979 119.448C89.1751 119.448 88.1536 118.533 87.3522 117.817L87.0175 117.519C86.1846 116.791 77.6251 110.206 76.9886 109.759C76.3522 109.312 75.9248 108.494 76.6241 108.056C77.1646 107.722 78.5962 106.989 80.6139 105.956L82.5311 104.973C85.5482 103.423 89.3118 102.103 89.8995 102.103C90.4856 102.103 94.2476 103.422 97.2679 104.973C97.9531 105.327 98.5958 105.658 99.1882 105.959Z" fill="white"/>
<path fill-rule="evenodd" clip-rule="evenodd" d="M114.106 49.8969L105.323 40H74.4742L65.6915 49.8969C65.6915 49.8969 57.9789 47.7688 54.3379 51.3859C54.3379 51.3859 64.6213 50.4641 68.1555 56.1734C68.1555 56.1734 77.6877 57.9813 78.9732 57.9813C80.2586 57.9813 83.0432 56.9188 85.614 56.0672C88.1849 55.2156 89.8993 55.2094 89.8993 55.2094C89.8993 55.2094 91.6122 55.2156 94.183 56.0672C96.7539 56.9188 99.5385 57.9813 100.824 57.9813C102.109 57.9813 111.643 56.1734 111.643 56.1734C115.177 50.4641 125.459 51.3859 125.459 51.3859C121.818 47.7688 114.106 49.8969 114.106 49.8969Z" fill="url(#paint1_linear_765_766)"/>
<defs>
<linearGradient id="paint0_linear_765_766" x1="47.0545" y1="140.498" x2="132.743" y2="140.498" gradientUnits="userSpaceOnUse">
<stop stop-color="#FF5500"/>
<stop offset="0.41" stop-color="#FF5500"/>
<stop offset="0.582" stop-color="#FF2000"/>
<stop offset="1" stop-color="#FF2000"/>
</linearGradient>
<linearGradient id="paint1_linear_765_766" x1="55.8653" y1="57.9156" x2="125.459" y2="57.9156" gradientUnits="userSpaceOnUse">
<stop stop-color="#FF452A"/>
<stop offset="1" stop-color="#FF2000"/>
</linearGradient>
</defs>
</svg>
