<svg width="180" height="180" viewBox="0 0 180 180" fill="none" xmlns="http://www.w3.org/2000/svg">
<rect width="180" height="180" fill="#073042" fill-opacity="0.25"/>
<rect x="1" y="1" width="178" height="178" stroke="white" stroke-opacity="0.05" stroke-width="2"/>
<g clip-path="url(#clip0_765_787)">
<path d="M90 90.0004L111.651 102.5L90 140C117.614 140 140 117.615 140 90.0004C140 80.8905 137.551 72.357 133.294 65.0002H89.9995L90 90.0004Z" fill="url(#paint0_linear_765_787)"/>
<path d="M89.9997 40C71.4933 40 55.3476 50.0615 46.7019 65.0061L68.3486 102.5L89.9997 90.0004V65.0002H133.295C124.647 50.0593 108.504 40 89.9997 40Z" fill="url(#paint1_linear_765_787)"/>
<path d="M40.0003 90.0004C40.0003 117.614 62.3852 140 90.0001 140L111.651 102.5L90.0001 90.0004L68.349 102.5L46.7023 65.0061C42.4476 72.3608 40 80.8912 40 89.9996" fill="url(#paint2_linear_765_787)"/>
<path d="M115 90.0004C115 103.807 103.807 115.001 90 115.001C76.1929 115.001 64.9998 103.807 64.9998 90.0004C64.9998 76.1934 76.1929 65.0002 90 65.0002C103.807 65.0002 115 76.1934 115 90.0004Z" fill="white"/>
<path d="M110.313 90.0003C110.313 101.219 101.218 110.313 90 110.313C78.7818 110.313 69.6873 101.219 69.6873 90.0003C69.6873 78.7821 78.7818 69.6876 90 69.6876C101.218 69.6876 110.313 78.7821 110.313 90.0003Z" fill="url(#paint3_linear_765_787)"/>
</g>
<defs>
<linearGradient id="paint0_linear_765_787" x1="115.106" y1="64.897" x2="115" y2="140" gradientUnits="userSpaceOnUse">
<stop stop-color="#AFCCFB"/>
<stop offset="1" stop-color="#8BB5F8"/>
</linearGradient>
<linearGradient id="paint1_linear_765_787" x1="82.7485" y1="40.7618" x2="86.8812" y2="107.953" gradientUnits="userSpaceOnUse">
<stop stop-color="#1972E7"/>
<stop offset="1" stop-color="#1969D5"/>
</linearGradient>
<linearGradient id="paint2_linear_765_787" x1="75.8256" y1="65.0061" x2="75.8256" y2="140" gradientUnits="userSpaceOnUse">
<stop stop-color="#659CF6"/>
<stop offset="1" stop-color="#4285F4"/>
</linearGradient>
<linearGradient id="paint3_linear_765_787" x1="89.7929" y1="69.7649" x2="90" y2="110.313" gradientUnits="userSpaceOnUse">
<stop stop-color="#3680F0"/>
<stop offset="1" stop-color="#2678EC"/>
</linearGradient>
<clipPath id="clip0_765_787">
<rect width="100" height="100" fill="white" transform="translate(40 40)"/>
</clipPath>
</defs>
</svg>
