<svg width="180" height="180" viewBox="0 0 180 180" fill="none" xmlns="http://www.w3.org/2000/svg">
<rect width="180" height="180" fill="#073042" fill-opacity="0.25"/>
<rect x="1" y="1" width="178" height="178" stroke="white" stroke-opacity="0.05" stroke-width="2"/>
<g clip-path="url(#clip0_765_761)">
<path d="M90 140C111.875 140 124.094 140 132.031 132.062C139.969 124.125 140 111.875 140 90C140 68.125 140 55.9375 132.031 48C124.063 40.0625 111.875 40 90 40C68.125 40 55.9062 40 47.9687 47.9375C40.0312 55.875 40 68.125 40 90C40 111.875 40 124.063 47.9687 132C55.9375 139.938 68.125 140 90 140Z" fill="#EF3939"/>
<path d="M116.344 63.5313C111.105 58.2733 104.423 54.6884 97.1453 53.2305C89.8673 51.7726 82.3204 52.5073 75.4603 55.3416C68.6002 58.176 62.7356 62.9823 58.609 69.1521C54.4825 75.3219 52.2798 82.5775 52.2798 90C52.2798 97.4226 54.4825 104.678 58.609 110.848C62.7356 117.018 68.6002 121.824 75.4603 124.658C82.3204 127.493 89.8673 128.227 97.1453 126.77C104.423 125.312 111.105 121.727 116.344 116.469C123.347 109.44 127.28 99.9223 127.28 90C127.28 80.0778 123.347 70.56 116.344 63.5313ZM114.094 80.625L95.5627 112.969C95.0735 113.92 94.3483 114.73 93.4564 115.321C92.5645 115.912 91.5359 116.264 90.469 116.344C89.2891 116.474 88.0975 116.245 87.0495 115.687C86.0015 115.13 85.1458 114.27 84.594 113.219C80.6252 106.469 76.844 99.7188 72.969 93.125L65.8752 80.625C65.3392 79.7003 65.0492 78.6536 65.0331 77.585C65.0169 76.5163 65.2751 75.4613 65.783 74.5208C66.2908 73.5804 67.0313 72.7859 67.9338 72.2132C68.8363 71.6406 69.8705 71.309 70.9377 71.25C72.0912 71.1606 73.2459 71.4084 74.2612 71.9632C75.2765 72.518 76.1087 73.3559 76.6565 74.375C78.4065 77.5 80.094 80.375 81.844 83.375C83.094 85.5313 84.3127 87.7188 85.594 89.8438C86.4064 91.3219 87.5872 92.5649 89.0218 93.4519C90.4564 94.339 92.0961 94.84 93.7815 94.9063C96.3363 95.0576 98.8515 94.2205 100.806 92.5684C102.761 90.9163 104.005 88.5756 104.281 86.0313V85C104.291 83.3868 103.927 81.7933 103.219 80.3438C102.831 79.5398 102.619 78.6619 102.598 77.7692C102.578 76.8765 102.749 75.9898 103.1 75.1688C103.45 74.3477 103.973 73.6114 104.633 73.0093C105.292 72.4073 106.073 71.9536 106.922 71.6786C107.772 71.4037 108.67 71.314 109.558 71.4156C110.445 71.5172 111.3 71.8076 112.065 72.2674C112.831 72.7272 113.489 73.3457 113.995 74.0812C114.501 74.8167 114.844 75.6521 115 76.5313C115.159 77.9585 114.84 79.398 114.094 80.625Z" fill="white"/>
</g>
<defs>
<clipPath id="clip0_765_761">
<rect width="100" height="100" fill="white" transform="translate(40 40)"/>
</clipPath>
</defs>
</svg>
