<svg width="179" height="179" viewBox="0 0 179 179" fill="none" xmlns="http://www.w3.org/2000/svg">
<rect width="179" height="179" fill="#E0EFFE"/>
<path fill-rule="evenodd" clip-rule="evenodd" d="M129.245 48.9391L131.602 43.1953C131.602 43.1953 128.602 40.0031 124.959 36.3859C121.318 32.7688 113.606 34.8969 113.606 34.8969L104.823 25H73.9744L65.1917 34.8969C65.1917 34.8969 57.4791 32.7688 53.8381 36.3859C50.1955 40.0031 47.1973 43.1953 47.1973 43.1953L49.5544 48.9391L46.553 57.45C46.553 57.45 55.375 90.6312 56.409 94.6844C58.444 102.662 59.8363 105.747 65.6207 109.791C71.4035 113.833 81.9007 120.853 83.6135 121.919C85.328 122.981 87.4714 124.794 89.3996 124.794C91.3277 124.794 93.4695 122.981 95.1824 121.919C96.8968 120.855 107.392 113.833 113.178 109.791C118.961 105.748 120.355 102.662 122.39 94.6844C123.423 90.6312 132.243 57.45 132.243 57.45L129.245 48.9391Z" fill="url(#paint0_linear_649_1092)"/>
<path fill-rule="evenodd" clip-rule="evenodd" d="M100.324 42.9812C101.61 42.9812 111.143 41.1734 111.143 41.1734C111.143 41.1734 122.44 54.7359 122.44 57.6359C122.44 60.0328 121.468 60.9703 120.324 62.0765C120.085 62.3078 119.837 62.5453 119.59 62.8078L111.12 71.7406C111.029 71.8356 110.937 71.9293 110.843 72.0219C109.998 72.8656 108.753 74.1093 109.63 76.175L109.811 76.5953C110.774 78.8328 111.964 81.5953 110.45 84.3922C108.84 87.3703 106.082 89.3578 104.314 89.0281C102.548 88.7 98.3959 86.5453 96.8701 85.5625C95.3442 84.5781 90.5058 80.6156 90.5058 79.0984C90.5058 77.8344 93.9849 75.7312 95.6758 74.7078C96.0121 74.5047 96.2776 74.3453 96.4301 74.2422C96.6045 74.125 96.8968 73.9453 97.2566 73.7234C98.7982 72.7703 101.584 71.0515 101.655 70.2906C101.742 69.35 101.709 69.075 100.464 66.7531C100.2 66.2593 99.8904 65.7312 99.5714 65.1844C98.3865 63.1609 97.0602 60.8953 97.3556 59.2719C97.6856 57.439 100.577 56.389 103.025 55.4984C103.33 55.389 103.63 55.2797 103.916 55.1718L106.467 54.2203C108.912 53.3109 111.627 52.3 112.077 52.0953C112.696 51.8125 112.536 51.5406 110.658 51.364C110.354 51.3344 110.05 51.3031 109.746 51.2703C107.421 51.025 103.132 50.5734 101.049 51.15C100.638 51.264 100.18 51.3875 99.6971 51.5172C97.3556 52.1469 94.4846 52.9187 94.2081 53.364C94.1609 53.4422 94.1138 53.5093 94.0682 53.5718C93.8042 53.9437 93.6329 54.1875 93.9252 55.7687C94.0116 56.2406 94.1908 57.1672 94.4124 58.314C95.0566 61.6703 96.0671 66.9047 96.1944 68.0797C96.2116 68.2453 96.2321 68.4031 96.2509 68.5562C96.4128 69.8687 96.5196 70.7422 94.9859 71.0906L94.5852 71.1812C92.8535 71.575 90.3156 72.1547 89.3995 72.1547C88.4818 72.1547 85.9424 71.5765 84.2106 71.1812L83.8115 71.0906C82.2778 70.7422 82.3862 69.8687 82.5481 68.5562C82.5669 68.4031 82.5858 68.2437 82.6031 68.0797C82.7304 66.9031 83.7424 61.6547 84.3898 58.3C84.6098 57.1594 84.7874 56.2375 84.8738 55.7687C85.1645 54.1875 84.9932 53.9437 84.7292 53.5718C84.6806 53.5036 84.6334 53.4343 84.5878 53.364C84.3144 52.9187 81.4449 52.1469 79.1019 51.5172C78.6195 51.3875 78.1591 51.264 77.7505 51.15C75.6652 50.5719 71.3784 51.025 69.0526 51.2703C68.6975 51.3078 68.3895 51.3406 68.1412 51.364C66.2618 51.5406 66.1031 51.8125 66.7222 52.0953C67.1701 52.3 69.8855 53.3109 72.3291 54.2203C73.2672 54.5687 74.1676 54.9031 74.8811 55.1718C75.1686 55.2797 75.4672 55.3875 75.7736 55.5C78.2219 56.3906 81.1134 57.439 81.4434 59.2719C81.7372 60.8953 80.4109 63.1609 79.2276 65.1844C78.9071 65.7312 78.5991 66.2593 78.3335 66.7531C77.0905 69.075 77.0575 69.35 77.1439 70.2906C77.2131 71.0531 79.9976 72.7703 81.5408 73.7234C81.9006 73.9453 82.1929 74.125 82.3674 74.2422C82.5214 74.3453 82.7854 74.5047 83.1216 74.7078C84.8125 75.7297 88.2916 77.8328 88.2916 79.0984C88.2916 80.614 83.4548 84.5781 81.9274 85.5625C80.4031 86.5468 76.2514 88.7 74.4835 89.0281C72.7172 89.3562 69.9578 87.3703 68.3486 84.3937C66.8354 81.5953 68.0234 78.8328 68.9866 76.5968L69.1674 76.175C70.0458 74.1093 68.8012 72.8656 67.9542 72.0219C67.8613 71.9293 67.7696 71.8356 67.6792 71.7406L59.2092 62.8078C58.9609 62.5469 58.7126 62.3078 58.4738 62.0765C57.3298 60.9718 56.3586 60.0328 56.3586 57.6359C56.3586 54.7375 67.6556 41.1734 67.6556 41.1734C67.6556 41.1734 77.1879 42.9812 78.4734 42.9812C79.4995 42.9812 81.4795 42.3047 83.5444 41.5984C84.0676 41.4203 84.5956 41.239 85.1158 41.0672C87.6851 40.2156 89.3995 40.2094 89.3995 40.2094C89.3995 40.2094 91.1124 40.2156 93.6832 41.0672C94.2018 41.239 94.7314 41.4203 95.2546 41.5984C97.3179 42.3047 99.2995 42.9812 100.324 42.9812ZM98.6882 90.9594C100.703 91.9906 102.133 92.7218 102.673 93.0578C103.373 93.4922 102.947 94.3125 102.309 94.7609C101.672 95.2062 93.1112 101.791 92.2815 102.519L91.9436 102.817C91.1438 103.534 90.1224 104.448 89.3979 104.448C88.6751 104.448 87.6536 103.533 86.8522 102.817L86.5175 102.519C85.6846 101.791 77.1251 95.2062 76.4886 94.7593C75.8522 94.3125 75.4248 93.4937 76.1241 93.0562C76.6646 92.7218 78.0962 91.989 80.1139 90.9562L82.0311 89.9734C85.0482 88.4234 88.8118 87.1031 89.3995 87.1031C89.9856 87.1031 93.7476 88.4218 96.7679 89.9734C97.4531 90.3265 98.0958 90.6578 98.6882 90.9594Z" fill="white"/>
<path fill-rule="evenodd" clip-rule="evenodd" d="M113.606 34.8969L104.823 25H73.9742L65.1915 34.8969C65.1915 34.8969 57.4789 32.7688 53.8379 36.3859C53.8379 36.3859 64.1213 35.4641 67.6555 41.1734C67.6555 41.1734 77.1877 42.9813 78.4732 42.9813C79.7586 42.9813 82.5432 41.9188 85.114 41.0672C87.6849 40.2156 89.3993 40.2094 89.3993 40.2094C89.3993 40.2094 91.1122 40.2156 93.683 41.0672C96.2539 41.9188 99.0385 42.9813 100.324 42.9813C101.609 42.9813 111.143 41.1734 111.143 41.1734C114.677 35.4641 124.959 36.3859 124.959 36.3859C121.318 32.7688 113.606 34.8969 113.606 34.8969Z" fill="url(#paint1_linear_649_1092)"/>
<path d="M62.2969 139.723H66.7402C68.6413 139.723 70.0801 139.99 71.0566 140.523C72.0332 141.057 72.5215 141.995 72.5215 143.336C72.5215 143.876 72.4336 144.365 72.2578 144.801C72.0885 145.237 71.8411 145.595 71.5156 145.875C71.1901 146.155 70.793 146.337 70.3242 146.422V146.52C70.7995 146.617 71.2292 146.786 71.6133 147.027C71.9974 147.262 72.3034 147.607 72.5312 148.062C72.7656 148.512 72.8828 149.111 72.8828 149.859C72.8828 150.725 72.6712 151.467 72.248 152.086C71.8249 152.704 71.2194 153.18 70.4316 153.512C69.6504 153.837 68.7194 154 67.6387 154H62.2969V139.723ZM65.3242 145.377H67.082C67.9609 145.377 68.5697 145.24 68.9082 144.967C69.2467 144.687 69.416 144.277 69.416 143.736C69.416 143.189 69.2142 142.799 68.8105 142.564C68.4134 142.324 67.7819 142.203 66.916 142.203H65.3242V145.377ZM65.3242 147.779V151.5H67.2969C68.2083 151.5 68.8431 151.324 69.2012 150.973C69.5592 150.621 69.7383 150.149 69.7383 149.557C69.7383 149.205 69.6602 148.896 69.5039 148.629C69.3477 148.362 69.084 148.154 68.7129 148.004C68.3483 147.854 67.8438 147.779 67.1992 147.779H65.3242ZM81.5938 142.877C81.7435 142.877 81.916 142.887 82.1113 142.906C82.3132 142.919 82.4759 142.939 82.5996 142.965L82.375 145.758C82.2773 145.725 82.1374 145.702 81.9551 145.689C81.7793 145.67 81.6263 145.66 81.4961 145.66C81.112 145.66 80.7376 145.709 80.373 145.807C80.015 145.904 79.6927 146.064 79.4062 146.285C79.1198 146.5 78.8919 146.786 78.7227 147.145C78.5599 147.496 78.4785 147.929 78.4785 148.443V154H75.5V143.082H77.7559L78.1953 144.918H78.3418C78.5566 144.547 78.8236 144.208 79.1426 143.902C79.4681 143.59 79.8359 143.342 80.2461 143.16C80.6628 142.971 81.112 142.877 81.5938 142.877ZM89.0547 142.857C90.5195 142.857 91.6426 143.176 92.4238 143.814C93.2051 144.452 93.5957 145.423 93.5957 146.725V154H91.5156L90.9395 152.516H90.8613C90.5488 152.906 90.2298 153.225 89.9043 153.473C89.5788 153.72 89.2044 153.902 88.7812 154.02C88.3581 154.137 87.8438 154.195 87.2383 154.195C86.5938 154.195 86.0143 154.072 85.5 153.824C84.9922 153.577 84.5918 153.199 84.2988 152.691C84.0059 152.177 83.8594 151.526 83.8594 150.738C83.8594 149.579 84.2663 148.727 85.0801 148.18C85.8939 147.626 87.1146 147.32 88.7422 147.262L90.6367 147.203V146.725C90.6367 146.152 90.487 145.732 90.1875 145.465C89.888 145.198 89.4714 145.064 88.9375 145.064C88.4102 145.064 87.8926 145.139 87.3848 145.289C86.877 145.439 86.3691 145.628 85.8613 145.855L84.875 143.844C85.4544 143.538 86.1022 143.297 86.8184 143.121C87.541 142.945 88.2865 142.857 89.0547 142.857ZM90.6367 148.941L89.4844 148.98C88.5208 149.007 87.8503 149.179 87.4727 149.498C87.1016 149.817 86.916 150.237 86.916 150.758C86.916 151.214 87.0495 151.539 87.3164 151.734C87.5833 151.923 87.9316 152.018 88.3613 152.018C88.9993 152.018 89.5365 151.829 89.9727 151.451C90.4154 151.074 90.6367 150.536 90.6367 149.84V148.941ZM99.2695 154L95.1094 143.082H98.2246L100.334 149.303C100.451 149.667 100.542 150.051 100.607 150.455C100.679 150.859 100.728 151.22 100.754 151.539H100.832C100.852 151.194 100.897 150.826 100.969 150.436C101.047 150.045 101.148 149.667 101.271 149.303L103.371 143.082H106.486L102.326 154H99.2695ZM112.561 142.877C113.57 142.877 114.439 143.072 115.168 143.463C115.897 143.847 116.46 144.407 116.857 145.143C117.255 145.878 117.453 146.777 117.453 147.838V149.283H110.412C110.445 150.123 110.695 150.784 111.164 151.266C111.639 151.741 112.297 151.979 113.137 151.979C113.833 151.979 114.471 151.907 115.051 151.764C115.63 151.62 116.226 151.406 116.838 151.119V153.424C116.298 153.691 115.731 153.886 115.139 154.01C114.553 154.133 113.84 154.195 113 154.195C111.906 154.195 110.936 153.993 110.09 153.59C109.25 153.186 108.589 152.571 108.107 151.744C107.632 150.917 107.395 149.876 107.395 148.619C107.395 147.343 107.609 146.282 108.039 145.436C108.475 144.583 109.081 143.945 109.855 143.521C110.63 143.092 111.532 142.877 112.561 142.877ZM112.58 144.996C112.001 144.996 111.519 145.182 111.135 145.553C110.757 145.924 110.539 146.507 110.48 147.301H114.66C114.654 146.858 114.572 146.464 114.416 146.119C114.266 145.774 114.038 145.501 113.732 145.299C113.433 145.097 113.049 144.996 112.58 144.996Z" fill="black"/>
<defs>
<linearGradient id="paint0_linear_649_1092" x1="46.5545" y1="125.498" x2="132.243" y2="125.498" gradientUnits="userSpaceOnUse">
<stop stop-color="#FF5500"/>
<stop offset="0.41" stop-color="#FF5500"/>
<stop offset="0.582" stop-color="#FF2000"/>
<stop offset="1" stop-color="#FF2000"/>
</linearGradient>
<linearGradient id="paint1_linear_649_1092" x1="55.3653" y1="42.9156" x2="124.959" y2="42.9156" gradientUnits="userSpaceOnUse">
<stop stop-color="#FF452A"/>
<stop offset="1" stop-color="#FF2000"/>
</linearGradient>
</defs>
</svg>
