<svg width="179" height="179" viewBox="0 0 179 179" fill="none" xmlns="http://www.w3.org/2000/svg">
<rect width="179" height="179" fill="#E0EFFE"/>
<g clip-path="url(#clip0_649_1112)">
<path d="M89.5 75.0004L111.151 87.5002L89.5 125C117.114 125 139.5 102.615 139.5 75.0004C139.5 65.8905 137.051 57.357 132.794 50.0002H89.4995L89.5 75.0004Z" fill="url(#paint0_linear_649_1112)"/>
<path d="M89.4997 25C70.9933 25 54.8476 35.0615 46.2019 50.0061L67.8486 87.5001L89.4997 75.0004V50.0002H132.795C124.147 35.0593 108.004 25 89.4997 25Z" fill="url(#paint1_linear_649_1112)"/>
<path d="M39.5003 75.0004C39.5003 102.614 61.8852 125 89.5001 125L111.151 87.5001L89.5001 75.0004L67.849 87.5001L46.2023 50.0061C41.9476 57.3608 39.5 65.8912 39.5 74.9996" fill="url(#paint2_linear_649_1112)"/>
<path d="M114.5 75.0004C114.5 88.8075 103.307 100.001 89.5 100.001C75.6929 100.001 64.4998 88.8075 64.4998 75.0004C64.4998 61.1934 75.6929 50.0002 89.5 50.0002C103.307 50.0002 114.5 61.1934 114.5 75.0004Z" fill="white"/>
<path d="M109.813 75.0003C109.813 86.2185 100.718 95.313 89.5 95.313C78.2818 95.313 69.1873 86.2185 69.1873 75.0003C69.1873 63.7821 78.2818 54.6876 89.5 54.6876C100.718 54.6876 109.813 63.7821 109.813 75.0003Z" fill="url(#paint3_linear_649_1112)"/>
</g>
<path d="M44.3613 142.037C43.7819 142.037 43.2676 142.151 42.8184 142.379C42.3757 142.6 42.0013 142.923 41.6953 143.346C41.3958 143.769 41.168 144.28 41.0117 144.879C40.8555 145.478 40.7773 146.152 40.7773 146.9C40.7773 147.91 40.901 148.772 41.1484 149.488C41.4023 150.198 41.793 150.742 42.3203 151.119C42.8477 151.49 43.528 151.676 44.3613 151.676C44.9408 151.676 45.5202 151.611 46.0996 151.48C46.6855 151.35 47.3203 151.165 48.0039 150.924V153.463C47.3724 153.723 46.7507 153.909 46.1387 154.02C45.5267 154.137 44.8398 154.195 44.0781 154.195C42.6068 154.195 41.3958 153.893 40.4453 153.287C39.5013 152.675 38.8014 151.822 38.3457 150.729C37.89 149.628 37.6621 148.346 37.6621 146.881C37.6621 145.8 37.8086 144.811 38.1016 143.912C38.3945 143.014 38.8242 142.236 39.3906 141.578C39.957 140.921 40.6569 140.413 41.4902 140.055C42.3236 139.697 43.2806 139.518 44.3613 139.518C45.071 139.518 45.7806 139.609 46.4902 139.791C47.2064 139.967 47.89 140.211 48.541 140.523L47.5645 142.984C47.0306 142.73 46.4935 142.509 45.9531 142.32C45.4128 142.132 44.8822 142.037 44.3613 142.037ZM53.7949 138.805V141.9C53.7949 142.441 53.7754 142.955 53.7363 143.443C53.7038 143.932 53.6777 144.277 53.6582 144.479H53.8145C54.0488 144.101 54.3255 143.795 54.6445 143.561C54.9701 143.326 55.3281 143.154 55.7188 143.043C56.1094 142.932 56.5293 142.877 56.9785 142.877C57.7663 142.877 58.4531 143.017 59.0391 143.297C59.625 143.57 60.0807 144.003 60.4062 144.596C60.7318 145.182 60.8945 145.943 60.8945 146.881V154H57.916V147.623C57.916 146.842 57.7728 146.253 57.4863 145.855C57.1999 145.458 56.7572 145.26 56.1582 145.26C55.5592 145.26 55.0872 145.4 54.7422 145.68C54.3971 145.953 54.153 146.36 54.0098 146.9C53.8665 147.434 53.7949 148.089 53.7949 148.863V154H50.8164V138.805H53.7949ZM70.0547 142.877C70.2044 142.877 70.377 142.887 70.5723 142.906C70.7741 142.919 70.9368 142.939 71.0605 142.965L70.8359 145.758C70.7383 145.725 70.5983 145.702 70.416 145.689C70.2402 145.67 70.0872 145.66 69.957 145.66C69.5729 145.66 69.1986 145.709 68.834 145.807C68.4759 145.904 68.1536 146.064 67.8672 146.285C67.5807 146.5 67.3529 146.786 67.1836 147.145C67.0208 147.496 66.9395 147.929 66.9395 148.443V154H63.9609V143.082H66.2168L66.6562 144.918H66.8027C67.0176 144.547 67.2845 144.208 67.6035 143.902C67.929 143.59 68.2969 143.342 68.707 143.16C69.1237 142.971 69.5729 142.877 70.0547 142.877ZM82.9648 148.521C82.9648 149.433 82.8411 150.24 82.5938 150.943C82.3529 151.646 81.998 152.242 81.5293 152.73C81.0671 153.212 80.5072 153.577 79.8496 153.824C79.1986 154.072 78.4629 154.195 77.6426 154.195C76.8743 154.195 76.168 154.072 75.5234 153.824C74.8854 153.577 74.3288 153.212 73.8535 152.73C73.3848 152.242 73.0202 151.646 72.7598 150.943C72.5059 150.24 72.3789 149.433 72.3789 148.521C72.3789 147.311 72.5938 146.285 73.0234 145.445C73.4531 144.605 74.0651 143.967 74.8594 143.531C75.6536 143.095 76.6009 142.877 77.7012 142.877C78.7233 142.877 79.6283 143.095 80.416 143.531C81.2103 143.967 81.832 144.605 82.2812 145.445C82.737 146.285 82.9648 147.311 82.9648 148.521ZM75.416 148.521C75.416 149.238 75.4941 149.84 75.6504 150.328C75.8066 150.816 76.0508 151.184 76.3828 151.432C76.7148 151.679 77.1478 151.803 77.6816 151.803C78.209 151.803 78.6354 151.679 78.9609 151.432C79.293 151.184 79.5339 150.816 79.6836 150.328C79.8398 149.84 79.918 149.238 79.918 148.521C79.918 147.799 79.8398 147.2 79.6836 146.725C79.5339 146.243 79.293 145.882 78.9609 145.641C78.6289 145.4 78.196 145.279 77.6621 145.279C76.8743 145.279 76.3014 145.549 75.9434 146.09C75.5918 146.63 75.416 147.441 75.416 148.521ZM98.248 142.877C99.485 142.877 100.419 143.196 101.051 143.834C101.689 144.465 102.008 145.481 102.008 146.881V154H99.0195V147.623C99.0195 146.842 98.8861 146.253 98.6191 145.855C98.3522 145.458 97.9388 145.26 97.3789 145.26C96.5911 145.26 96.0312 145.543 95.6992 146.109C95.3672 146.669 95.2012 147.473 95.2012 148.521V154H92.2227V147.623C92.2227 147.102 92.1641 146.666 92.0469 146.314C91.9297 145.963 91.7507 145.699 91.5098 145.523C91.2689 145.348 90.9596 145.26 90.582 145.26C90.0286 145.26 89.5924 145.4 89.2734 145.68C88.9609 145.953 88.7363 146.36 88.5996 146.9C88.4694 147.434 88.4043 148.089 88.4043 148.863V154H85.4258V143.082H87.7012L88.1016 144.479H88.2676C88.4889 144.101 88.7656 143.795 89.0977 143.561C89.4362 143.326 89.8073 143.154 90.2109 143.043C90.6146 142.932 91.0247 142.877 91.4414 142.877C92.2422 142.877 92.9193 143.007 93.4727 143.268C94.0326 143.528 94.4622 143.932 94.7617 144.479H95.0254C95.3509 143.919 95.8099 143.512 96.4023 143.258C97.0013 143.004 97.6165 142.877 98.248 142.877ZM108.053 143.082V154H105.074V143.082H108.053ZM106.568 138.805C107.011 138.805 107.392 138.909 107.711 139.117C108.03 139.319 108.189 139.7 108.189 140.26C108.189 140.813 108.03 141.197 107.711 141.412C107.392 141.62 107.011 141.725 106.568 141.725C106.119 141.725 105.735 141.62 105.416 141.412C105.104 141.197 104.947 140.813 104.947 140.26C104.947 139.7 105.104 139.319 105.416 139.117C105.735 138.909 106.119 138.805 106.568 138.805ZM121.207 143.082V154H118.922L118.521 152.604H118.365C118.131 152.975 117.838 153.277 117.486 153.512C117.135 153.746 116.747 153.919 116.324 154.029C115.901 154.14 115.462 154.195 115.006 154.195C114.225 154.195 113.544 154.059 112.965 153.785C112.385 153.505 111.933 153.072 111.607 152.486C111.288 151.9 111.129 151.139 111.129 150.201V143.082H114.107V149.459C114.107 150.24 114.247 150.829 114.527 151.227C114.807 151.624 115.253 151.822 115.865 151.822C116.471 151.822 116.946 151.686 117.291 151.412C117.636 151.132 117.877 150.725 118.014 150.191C118.157 149.651 118.229 148.993 118.229 148.219V143.082H121.207ZM137.154 142.877C138.391 142.877 139.326 143.196 139.957 143.834C140.595 144.465 140.914 145.481 140.914 146.881V154H137.926V147.623C137.926 146.842 137.792 146.253 137.525 145.855C137.258 145.458 136.845 145.26 136.285 145.26C135.497 145.26 134.938 145.543 134.605 146.109C134.273 146.669 134.107 147.473 134.107 148.521V154H131.129V147.623C131.129 147.102 131.07 146.666 130.953 146.314C130.836 145.963 130.657 145.699 130.416 145.523C130.175 145.348 129.866 145.26 129.488 145.26C128.935 145.26 128.499 145.4 128.18 145.68C127.867 145.953 127.643 146.36 127.506 146.9C127.376 147.434 127.311 148.089 127.311 148.863V154H124.332V143.082H126.607L127.008 144.479H127.174C127.395 144.101 127.672 143.795 128.004 143.561C128.342 143.326 128.714 143.154 129.117 143.043C129.521 142.932 129.931 142.877 130.348 142.877C131.148 142.877 131.826 143.007 132.379 143.268C132.939 143.528 133.368 143.932 133.668 144.479H133.932C134.257 143.919 134.716 143.512 135.309 143.258C135.908 143.004 136.523 142.877 137.154 142.877Z" fill="black"/>
<defs>
<linearGradient id="paint0_linear_649_1112" x1="114.606" y1="49.897" x2="114.5" y2="125" gradientUnits="userSpaceOnUse">
<stop stop-color="#AFCCFB"/>
<stop offset="1" stop-color="#8BB5F8"/>
</linearGradient>
<linearGradient id="paint1_linear_649_1112" x1="82.2485" y1="25.7618" x2="86.3812" y2="92.9533" gradientUnits="userSpaceOnUse">
<stop stop-color="#1972E7"/>
<stop offset="1" stop-color="#1969D5"/>
</linearGradient>
<linearGradient id="paint2_linear_649_1112" x1="75.3256" y1="50.0061" x2="75.3256" y2="125" gradientUnits="userSpaceOnUse">
<stop stop-color="#659CF6"/>
<stop offset="1" stop-color="#4285F4"/>
</linearGradient>
<linearGradient id="paint3_linear_649_1112" x1="89.2929" y1="54.7649" x2="89.5" y2="95.313" gradientUnits="userSpaceOnUse">
<stop stop-color="#3680F0"/>
<stop offset="1" stop-color="#2678EC"/>
</linearGradient>
<clipPath id="clip0_649_1112">
<rect width="100" height="100" fill="white" transform="translate(39.5 25)"/>
</clipPath>
</defs>
</svg>
