<svg width="180" height="180" viewBox="0 0 180 180" fill="none" xmlns="http://www.w3.org/2000/svg">
<rect width="180" height="180" fill="#073042" fill-opacity="0.25"/>
<rect x="1" y="1" width="178" height="178" stroke="white" stroke-opacity="0.05" stroke-width="2"/>
<g opacity="0.95" filter="url(#filter0_f_766_886)">
<path d="M135.86 90.2145C135.86 102.311 131.103 113.921 122.616 122.541C114.13 131.16 102.594 136.096 90.4991 136.283C78.4045 136.47 66.7214 131.893 57.9719 123.541C49.2225 115.189 44.1086 103.731 43.7343 91.6404C43.3599 79.5502 47.7551 67.7976 55.9711 58.92C64.187 50.0423 75.5646 44.7517 87.6476 44.1903C99.7306 43.6289 111.55 47.8417 120.553 55.9193C129.557 63.9968 135.023 75.2912 135.772 87.3641" fill="#1A1A1A"/>
</g>
<g opacity="0.95" filter="url(#filter1_f_766_886)">
<path d="M135.86 90.2145C135.86 102.311 131.103 113.921 122.616 122.541C114.13 131.16 102.594 136.096 90.4991 136.283C78.4045 136.47 66.7214 131.893 57.9719 123.541C49.2225 115.189 44.1086 103.731 43.7343 91.6404C43.3599 79.5502 47.7551 67.7976 55.9711 58.92C64.187 50.0423 75.5646 44.7517 87.6476 44.1903C99.7306 43.6289 111.55 47.8417 120.553 55.9193C129.557 63.9968 135.023 75.2912 135.772 87.3641" fill="#1A1A1A"/>
</g>
<path opacity="0.95" d="M135.86 90.2145C135.86 102.311 131.103 113.921 122.616 122.541C114.13 131.16 102.594 136.096 90.4991 136.283C78.4045 136.47 66.7214 131.893 57.9719 123.541C49.2225 115.189 44.1086 103.731 43.7343 91.6404C43.3599 79.5502 47.7551 67.7976 55.9711 58.92C64.187 50.0423 75.5646 44.7517 87.6476 44.1903C99.7306 43.6289 111.55 47.8417 120.553 55.9193C129.557 63.9968 135.023 75.2912 135.772 87.3641" fill="#1A1A1A"/>
<g filter="url(#filter2_f_766_886)">
<path d="M100.116 42.1409L88.229 75.9797L135.039 68.1043C128.106 54.789 115.333 45.0045 100.116 42.1409Z" fill="black"/>
</g>
<g filter="url(#filter3_f_766_886)">
<path d="M136.505 74.8308L101.257 81.456L131.482 118.057C139.547 105.395 141.634 89.4411 136.505 74.8308Z" fill="black"/>
</g>
<g filter="url(#filter4_f_766_886)">
<path d="M126.39 122.69L103.028 95.4763L86.4429 139.953C101.441 140.606 116.301 134.437 126.39 122.69Z" fill="black"/>
</g>
<g filter="url(#filter5_f_766_886)">
<path d="M79.8846 137.859L91.7714 104.021L44.9609 111.896C51.8944 125.211 64.6674 134.996 79.8846 137.859Z" fill="black"/>
</g>
<g filter="url(#filter6_f_766_886)">
<path d="M43.4951 105.169L78.7437 98.5442L48.5182 61.9429C40.4535 74.605 38.3664 90.5591 43.4951 105.169Z" fill="black"/>
</g>
<g filter="url(#filter7_f_766_886)">
<path d="M53.6106 57.3101L76.9725 84.5238L93.5574 40.047C78.5593 39.3939 63.6992 45.5634 53.6106 57.3101Z" fill="black"/>
</g>
<g filter="url(#filter8_f_766_886)">
<path d="M96.8578 90.0001C96.8578 91.8188 96.1353 93.563 94.8493 94.8491C93.5633 96.1351 91.819 96.8576 90.0003 96.8576C88.1816 96.8576 86.4374 96.1351 85.1513 94.8491C83.8653 93.563 83.1428 91.8188 83.1428 90.0001C83.1428 88.1814 83.8653 86.4371 85.1513 85.1511C86.4374 83.8651 88.1816 83.1426 90.0003 83.1426C91.819 83.1426 93.5633 83.8651 94.8493 85.1511C96.1353 86.4371 96.8578 88.1814 96.8578 90.0001Z" fill="black"/>
</g>
<path d="M100.116 42.1409L88.229 75.9797L135.039 68.1043C128.106 54.789 115.333 45.0045 100.116 42.1409Z" fill="url(#paint0_linear_766_886)"/>
<path d="M136.505 74.8308L101.257 81.456L131.482 118.057C139.547 105.395 141.634 89.4411 136.505 74.8308Z" fill="url(#paint1_linear_766_886)"/>
<path d="M126.39 122.69L103.028 95.4763L86.4429 139.953C101.441 140.606 116.301 134.437 126.39 122.69Z" fill="url(#paint2_linear_766_886)"/>
<path d="M79.8846 137.859L91.7714 104.021L44.9609 111.896C51.8944 125.211 64.6674 134.996 79.8846 137.859Z" fill="url(#paint3_linear_766_886)"/>
<path d="M43.4951 105.169L78.7437 98.5442L48.5182 61.9429C40.4535 74.605 38.3664 90.5591 43.4951 105.169Z" fill="url(#paint4_linear_766_886)"/>
<path d="M53.6106 57.3101L76.9725 84.5238L93.5574 40.047C78.5593 39.3939 63.6992 45.5634 53.6106 57.3101Z" fill="url(#paint5_linear_766_886)"/>
<path d="M96.8578 90.0001C96.8578 91.8188 96.1353 93.563 94.8493 94.8491C93.5633 96.1351 91.819 96.8576 90.0003 96.8576C88.1816 96.8576 86.4374 96.1351 85.1513 94.8491C83.8653 93.563 83.1428 91.8188 83.1428 90.0001C83.1428 88.1814 83.8653 86.4371 85.1513 85.1511C86.4374 83.8651 88.1816 83.1426 90.0003 83.1426C91.819 83.1426 93.5633 83.8651 94.8493 85.1511C96.1353 86.4371 96.8578 88.1814 96.8578 90.0001Z" fill="url(#paint6_linear_766_886)"/>
<g opacity="0.5">
<g opacity="0.15" filter="url(#filter9_f_766_886)">
<path d="M91.4468 73.2649C104.845 70.9648 118.276 68.8496 131.654 66.4342C125.085 55.5317 113.972 47.3993 101.499 44.6228C98.148 54.1702 94.7974 63.7175 91.4468 73.2649Z" fill="white"/>
</g>
<g opacity="0.25" filter="url(#filter10_f_766_886)">
<path d="M105.222 82.8947C113.906 93.3499 122.454 103.918 131.239 114.289C137.394 103.162 138.866 89.4501 135.049 77.2761C125.107 79.149 115.164 81.0219 105.222 82.8947Z" fill="white"/>
</g>
<g opacity="0.15" filter="url(#filter11_f_766_886)">
<path d="M89.5046 137.855C102.317 137.63 114.884 132.068 123.524 122.667C116.937 114.988 110.349 107.309 103.762 99.6301C99.0096 112.372 94.2571 125.114 89.5046 137.855Z" fill="white"/>
</g>
<g opacity="0.15" filter="url(#filter12_f_766_886)">
<path d="M48.3062 113.506C54.8579 124.421 65.9889 132.587 78.5019 135.377C81.8525 125.83 85.2032 116.283 88.5538 106.735C75.1379 108.992 61.722 111.249 48.3062 113.506Z" fill="white"/>
</g>
<g opacity="0.25" filter="url(#filter13_f_766_886)">
<path d="M48.6944 65.8313C42.5842 76.9431 41.1536 90.6084 44.9509 102.724C54.8979 100.851 64.8448 98.9781 74.7918 97.1053C66.1262 86.6181 57.4605 76.131 48.7949 65.6438L48.6944 65.8313Z" fill="white"/>
</g>
<g opacity="0.15" filter="url(#filter14_f_766_886)">
<path d="M90.3686 42.1517C77.6399 42.3772 65.0965 47.9722 56.4695 57.3266C63.0591 65.0078 69.6487 72.689 76.2384 80.3702C80.9909 67.6285 85.7433 54.8868 90.4958 42.145L90.3686 42.1517Z" fill="white"/>
</g>
<g opacity="0.15" filter="url(#filter15_f_766_886)">
<path d="M89.739 85.2922C85.9076 85.2523 83.6884 90.7844 86.6183 93.3284C88.8406 95.615 93.3486 94.937 94.3798 91.7948C95.5031 89.0938 93.6697 85.5725 90.6765 85.3324C90.3656 85.2889 90.0528 85.2719 89.739 85.2922Z" fill="white"/>
</g>
</g>
<defs>
<filter id="filter0_f_766_886" x="40.0262" y="40.4547" width="99.5195" height="99.5195" filterUnits="userSpaceOnUse" color-interpolation-filters="sRGB">
<feFlood flood-opacity="0" result="BackgroundImageFix"/>
<feBlend mode="normal" in="SourceGraphic" in2="BackgroundImageFix" result="shape"/>
<feGaussianBlur stdDeviation="1.84296" result="effect1_foregroundBlur_766_886"/>
</filter>
<filter id="filter1_f_766_886" x="40.0263" y="40.4547" width="99.5195" height="99.5195" filterUnits="userSpaceOnUse" color-interpolation-filters="sRGB">
<feFlood flood-opacity="0" result="BackgroundImageFix"/>
<feBlend mode="normal" in="SourceGraphic" in2="BackgroundImageFix" result="shape"/>
<feGaussianBlur stdDeviation="1.84295" result="effect1_foregroundBlur_766_886"/>
</filter>
<filter id="filter2_f_766_886" x="84.2571" y="38.169" width="54.7543" height="41.7826" filterUnits="userSpaceOnUse" color-interpolation-filters="sRGB">
<feFlood flood-opacity="0" result="BackgroundImageFix"/>
<feBlend mode="normal" in="SourceGraphic" in2="BackgroundImageFix" result="shape"/>
<feGaussianBlur stdDeviation="1.98594" result="effect1_foregroundBlur_766_886"/>
</filter>
<filter id="filter3_f_766_886" x="97.2745" y="70.8487" width="46.005" height="51.1908" filterUnits="userSpaceOnUse" color-interpolation-filters="sRGB">
<feFlood flood-opacity="0" result="BackgroundImageFix"/>
<feBlend mode="normal" in="SourceGraphic" in2="BackgroundImageFix" result="shape"/>
<feGaussianBlur stdDeviation="1.99105" result="effect1_foregroundBlur_766_886"/>
</filter>
<filter id="filter4_f_766_886" x="82.471" y="91.5044" width="47.8906" height="52.4675" filterUnits="userSpaceOnUse" color-interpolation-filters="sRGB">
<feFlood flood-opacity="0" result="BackgroundImageFix"/>
<feBlend mode="normal" in="SourceGraphic" in2="BackgroundImageFix" result="shape"/>
<feGaussianBlur stdDeviation="1.98594" result="effect1_foregroundBlur_766_886"/>
</filter>
<filter id="filter5_f_766_886" x="40.989" y="100.049" width="54.7543" height="41.7826" filterUnits="userSpaceOnUse" color-interpolation-filters="sRGB">
<feFlood flood-opacity="0" result="BackgroundImageFix"/>
<feBlend mode="normal" in="SourceGraphic" in2="BackgroundImageFix" result="shape"/>
<feGaussianBlur stdDeviation="1.98594" result="effect1_foregroundBlur_766_886"/>
</filter>
<filter id="filter6_f_766_886" x="36.731" y="57.971" width="45.9845" height="51.1703" filterUnits="userSpaceOnUse" color-interpolation-filters="sRGB">
<feFlood flood-opacity="0" result="BackgroundImageFix"/>
<feBlend mode="normal" in="SourceGraphic" in2="BackgroundImageFix" result="shape"/>
<feGaussianBlur stdDeviation="1.98594" result="effect1_foregroundBlur_766_886"/>
</filter>
<filter id="filter7_f_766_886" x="49.6387" y="36.0281" width="47.8906" height="52.4675" filterUnits="userSpaceOnUse" color-interpolation-filters="sRGB">
<feFlood flood-opacity="0" result="BackgroundImageFix"/>
<feBlend mode="normal" in="SourceGraphic" in2="BackgroundImageFix" result="shape"/>
<feGaussianBlur stdDeviation="1.98594" result="effect1_foregroundBlur_766_886"/>
</filter>
<filter id="filter8_f_766_886" x="81.7988" y="81.7985" width="16.4032" height="16.4032" filterUnits="userSpaceOnUse" color-interpolation-filters="sRGB">
<feFlood flood-opacity="0" result="BackgroundImageFix"/>
<feBlend mode="normal" in="SourceGraphic" in2="BackgroundImageFix" result="shape"/>
<feGaussianBlur stdDeviation="0.672035" result="effect1_foregroundBlur_766_886"/>
</filter>
<filter id="filter9_f_766_886" x="89.3813" y="42.5573" width="44.3385" height="32.7731" filterUnits="userSpaceOnUse" color-interpolation-filters="sRGB">
<feFlood flood-opacity="0" result="BackgroundImageFix"/>
<feBlend mode="normal" in="SourceGraphic" in2="BackgroundImageFix" result="shape"/>
<feGaussianBlur stdDeviation="1.03274" result="effect1_foregroundBlur_766_886"/>
</filter>
<filter id="filter10_f_766_886" x="103.154" y="75.2081" width="36.0588" height="41.1493" filterUnits="userSpaceOnUse" color-interpolation-filters="sRGB">
<feFlood flood-opacity="0" result="BackgroundImageFix"/>
<feBlend mode="normal" in="SourceGraphic" in2="BackgroundImageFix" result="shape"/>
<feGaussianBlur stdDeviation="1.03404" result="effect1_foregroundBlur_766_886"/>
</filter>
<filter id="filter11_f_766_886" x="87.3373" y="97.4628" width="38.3542" height="42.5598" filterUnits="userSpaceOnUse" color-interpolation-filters="sRGB">
<feFlood flood-opacity="0" result="BackgroundImageFix"/>
<feBlend mode="normal" in="SourceGraphic" in2="BackgroundImageFix" result="shape"/>
<feGaussianBlur stdDeviation="1.08367" result="effect1_foregroundBlur_766_886"/>
</filter>
<filter id="filter12_f_766_886" x="46.2395" y="104.669" width="44.3809" height="32.7755" filterUnits="userSpaceOnUse" color-interpolation-filters="sRGB">
<feFlood flood-opacity="0" result="BackgroundImageFix"/>
<feBlend mode="normal" in="SourceGraphic" in2="BackgroundImageFix" result="shape"/>
<feGaussianBlur stdDeviation="1.03335" result="effect1_foregroundBlur_766_886"/>
</filter>
<filter id="filter13_f_766_886" x="40.7847" y="63.5733" width="36.0775" height="41.2211" filterUnits="userSpaceOnUse" color-interpolation-filters="sRGB">
<feFlood flood-opacity="0" result="BackgroundImageFix"/>
<feBlend mode="normal" in="SourceGraphic" in2="BackgroundImageFix" result="shape"/>
<feGaussianBlur stdDeviation="1.03525" result="effect1_foregroundBlur_766_886"/>
</filter>
<filter id="filter14_f_766_886" x="54.3019" y="39.9775" width="38.3615" height="42.5602" filterUnits="userSpaceOnUse" color-interpolation-filters="sRGB">
<feFlood flood-opacity="0" result="BackgroundImageFix"/>
<feBlend mode="normal" in="SourceGraphic" in2="BackgroundImageFix" result="shape"/>
<feGaussianBlur stdDeviation="1.08377" result="effect1_foregroundBlur_766_886"/>
</filter>
<filter id="filter15_f_766_886" x="84.5179" y="84.5301" width="10.9491" height="10.9049" filterUnits="userSpaceOnUse" color-interpolation-filters="sRGB">
<feFlood flood-opacity="0" result="BackgroundImageFix"/>
<feBlend mode="normal" in="SourceGraphic" in2="BackgroundImageFix" result="shape"/>
<feGaussianBlur stdDeviation="0.376792" result="effect1_foregroundBlur_766_886"/>
</filter>
<linearGradient id="paint0_linear_766_886" x1="115.445" y1="47.9168" x2="103.752" y2="76.4183" gradientUnits="userSpaceOnUse">
<stop stop-color="#FF7004"/>
<stop offset="1" stop-color="#BA4704"/>
</linearGradient>
<linearGradient id="paint1_linear_766_886" x1="120.859" y1="77.9995" x2="131.145" y2="115.716" gradientUnits="userSpaceOnUse">
<stop stop-color="#F7F10E"/>
<stop offset="1" stop-color="#C58907"/>
</linearGradient>
<linearGradient id="paint2_linear_766_886" x1="102.001" y1="96.8576" x2="107.144" y2="136.288" gradientUnits="userSpaceOnUse">
<stop stop-color="#17B414"/>
<stop offset="1" stop-color="#176314"/>
</linearGradient>
<linearGradient id="paint3_linear_766_886" x1="74.5707" y1="108.858" x2="71.142" y2="134.574" gradientUnits="userSpaceOnUse">
<stop stop-color="#1476E6"/>
<stop offset="1" stop-color="#143E9A"/>
</linearGradient>
<linearGradient id="paint4_linear_766_886" x1="50.5695" y1="62.57" x2="60.8557" y2="102.001" gradientUnits="userSpaceOnUse">
<stop stop-color="#D000D0"/>
<stop offset="1" stop-color="#760076"/>
</linearGradient>
<linearGradient id="paint5_linear_766_886" x1="83.1426" y1="41.9975" x2="76.2851" y2="79.7137" gradientUnits="userSpaceOnUse">
<stop stop-color="#D70016"/>
<stop offset="1" stop-color="#8D0016"/>
</linearGradient>
<linearGradient id="paint6_linear_766_886" x1="90.0003" y1="83.1426" x2="90.0003" y2="96.8576" gradientUnits="userSpaceOnUse">
<stop stop-color="white"/>
<stop offset="1" stop-color="#B0B0B0"/>
</linearGradient>
</defs>
</svg>
