<svg width="180" height="180" viewBox="0 0 180 180" fill="none" xmlns="http://www.w3.org/2000/svg">
<rect width="180" height="180" fill="#073042" fill-opacity="0.25"/>
<rect x="1" y="1" width="178" height="178" stroke="white" stroke-opacity="0.05" stroke-width="2"/>
<g filter="url(#filter0_f_766_948)">
<path d="M136.76 90.1821C136.76 116.141 115.692 137.208 89.7339 137.208C63.7755 137.208 42.7078 116.141 42.7078 90.1821C42.7078 64.2237 63.7755 43.156 89.7339 43.156C115.692 43.156 136.76 64.2237 136.76 90.1821Z" fill="black"/>
<path d="M136.76 90.1821C136.76 116.141 115.692 137.208 89.7339 137.208C63.7755 137.208 42.7078 116.141 42.7078 90.1821C42.7078 64.2237 63.7755 43.156 89.7339 43.156C115.692 43.156 136.76 64.2237 136.76 90.1821Z" stroke="black" stroke-width="0.114593" stroke-linecap="round" stroke-linejoin="round"/>
</g>
<path fill-rule="evenodd" clip-rule="evenodd" d="M132.188 90.1445C132.188 113.512 113.223 132.477 89.8554 132.477C66.4876 132.477 47.5225 113.512 47.5225 90.1445C47.5225 66.7767 66.4876 47.8115 89.8554 47.8115C113.223 47.8115 132.188 66.7767 132.188 90.1445Z" fill="black" stroke="black" stroke-width="0.369942"/>
<path fill-rule="evenodd" clip-rule="evenodd" d="M132.188 90.1445C132.188 113.512 113.223 132.477 89.8554 132.477C66.4876 132.477 47.5225 113.512 47.5225 90.1445C47.5225 66.7767 66.4876 47.8115 89.8554 47.8115C113.223 47.8115 132.188 66.7767 132.188 90.1445Z" fill="url(#paint0_radial_766_948)" stroke="black" stroke-width="0.369942"/>
<path fill-rule="evenodd" clip-rule="evenodd" d="M132.211 90.1446C132.211 113.525 113.235 132.5 89.8553 132.5C66.4752 132.5 47.5 113.525 47.5 90.1446C47.5 66.7645 66.4752 47.7893 89.8553 47.7893C113.235 47.7893 132.211 66.7645 132.211 90.1446Z" stroke="#1A1A1A" stroke-width="1.77739"/>
<path fill-rule="evenodd" clip-rule="evenodd" d="M134.509 90.1444C134.509 114.793 114.504 134.798 89.8556 134.798C65.207 134.798 45.2024 114.793 45.2024 90.1444C45.2024 65.4959 65.207 45.4912 89.8556 45.4912C114.504 45.4912 134.509 65.4959 134.509 90.1444Z" stroke="#404040" stroke-width="4.80925"/>
<g filter="url(#filter1_f_766_948)">
<path fill-rule="evenodd" clip-rule="evenodd" d="M132.785 90.1446C132.785 113.842 113.553 133.075 89.8553 133.075C66.1579 133.075 46.9253 113.842 46.9253 90.1446C46.9253 66.4472 66.1579 47.2146 89.8553 47.2146C113.553 47.2146 132.785 66.4472 132.785 90.1446Z" stroke="black" stroke-width="0.730118"/>
</g>
<path fill-rule="evenodd" clip-rule="evenodd" d="M124.333 90.1443C124.333 109.176 108.887 124.621 89.8555 124.621C70.8242 124.621 55.3784 109.176 55.3784 90.1443C55.3784 71.113 70.8242 55.6672 89.8555 55.6672C108.887 55.6672 124.333 71.113 124.333 90.1443Z" fill="url(#paint1_linear_766_948)"/>
<path opacity="0.523207" fill-rule="evenodd" clip-rule="evenodd" d="M94.3432 55.9608C113.213 58.4381 126.516 75.763 124.039 94.6324C121.562 113.502 104.237 126.806 85.3676 124.328C66.4982 121.851 53.1944 104.526 55.6717 85.6568C58.1489 66.7874 75.4738 53.4836 94.3432 55.9608Z" stroke="black" stroke-width="0.739884"/>
<path fill-rule="evenodd" clip-rule="evenodd" d="M132.066 90.1445C132.066 113.444 113.155 132.355 89.8554 132.355C66.5554 132.355 47.6453 113.444 47.6453 90.1445C47.6453 66.8445 66.5554 47.9343 89.8554 47.9343C113.155 47.9343 132.066 66.8445 132.066 90.1445Z" stroke="black" stroke-width="1.45037"/>
<path opacity="0.523207" fill-rule="evenodd" clip-rule="evenodd" d="M95.2486 49.0642C117.925 52.0412 133.913 72.8614 130.936 95.5377C127.959 118.214 107.138 134.202 84.4621 131.225C61.7858 128.248 45.798 107.428 48.7751 84.7512C51.7521 62.0749 72.5723 46.0871 95.2486 49.0642Z" stroke="black" stroke-width="0.889155"/>
<path fill-rule="evenodd" clip-rule="evenodd" d="M134.509 90.1444C134.509 114.793 114.504 134.798 89.8556 134.798C65.207 134.798 45.2024 114.793 45.2024 90.1444C45.2024 65.4959 65.207 45.4912 89.8556 45.4912C114.504 45.4912 134.509 65.4959 134.509 90.1444Z" stroke="url(#paint2_radial_766_948)" stroke-width="4.80925"/>
<g opacity="0.523207" filter="url(#filter2_f_766_948)">
<path fill-rule="evenodd" clip-rule="evenodd" d="M94.3915 55.5934C113.464 58.0973 126.911 75.6084 124.407 94.6806C121.903 113.753 104.392 127.2 85.3195 124.696C66.2472 122.192 52.8005 104.681 55.3044 85.6085C57.8082 66.5363 75.3193 53.0895 94.3915 55.5934Z" stroke="black" stroke-width="0.747836"/>
</g>
<path opacity="0.592357" d="M136.584 90.1822C136.584 116.043 115.595 137.032 89.734 137.032C63.8727 137.032 42.8838 116.043 42.8838 90.1822C42.8838 64.3209 63.8727 43.332 89.734 43.332C115.595 43.332 136.584 64.3209 136.584 90.1822Z" stroke="black" stroke-width="0.557959" stroke-linecap="round" stroke-linejoin="round"/>
<g filter="url(#filter3_f_766_948)">
<path fill-rule="evenodd" clip-rule="evenodd" d="M93.4748 63.9129C107.804 65.7941 117.907 78.9505 116.026 93.2798C114.144 107.609 100.988 117.712 86.6588 115.831C72.3295 113.949 62.2267 100.793 64.108 86.4638C65.9892 72.1345 79.1455 62.0317 93.4748 63.9129Z" stroke="black" stroke-width="0.873022" stroke-linecap="round" stroke-linejoin="round"/>
</g>
<path fill-rule="evenodd" clip-rule="evenodd" d="M94.4802 56.2542C113.037 58.6905 126.121 75.7284 123.684 94.2853C121.248 112.842 104.21 125.926 85.6532 123.489C67.0963 121.053 54.0129 104.015 56.4491 85.4583C58.8854 66.9014 75.9233 53.818 94.4802 56.2542Z" stroke="#4D4D4D" stroke-width="1.74604" stroke-linecap="round" stroke-linejoin="round"/>
<path fill-rule="evenodd" clip-rule="evenodd" d="M93.7158 62.0761C109.059 64.0905 119.877 78.1777 117.862 93.521C115.848 108.864 101.761 119.682 86.4175 117.667C71.0743 115.653 60.2566 101.566 62.271 86.2226C64.2853 70.8794 78.3726 60.0618 93.7158 62.0761Z" stroke="#1A1A1A" stroke-width="0.873022" stroke-linecap="round" stroke-linejoin="round"/>
<path fill-rule="evenodd" clip-rule="evenodd" d="M94.3702 57.0906C112.465 59.4663 125.223 76.0803 122.848 94.1755C120.472 112.271 103.858 125.029 85.7629 122.653C67.6677 120.277 54.9097 103.663 57.2854 85.5682C59.661 67.4729 76.275 54.715 94.3702 57.0906Z" stroke="#1A1A1A" stroke-width="0.873022" stroke-linecap="round" stroke-linejoin="round"/>
<path fill-rule="evenodd" clip-rule="evenodd" d="M94.2051 58.35C111.605 60.6343 123.873 76.6101 121.589 94.0102C119.304 111.41 103.328 123.678 85.9284 121.394C68.5283 119.109 56.2605 103.134 58.5448 85.7335C60.8292 68.3334 76.805 56.0656 94.2051 58.35Z" stroke="#1A1A1A" stroke-width="0.873021" stroke-linecap="round" stroke-linejoin="round"/>
<path fill-rule="evenodd" clip-rule="evenodd" d="M94.0399 59.609C110.745 61.8021 122.523 77.1397 120.329 93.8446C118.136 110.55 102.799 122.327 86.0939 120.134C69.3889 117.941 57.6112 102.604 59.8043 85.8986C61.9974 69.1937 77.335 57.4159 94.0399 59.609Z" stroke="#1A1A1A" stroke-width="0.873022" stroke-linecap="round" stroke-linejoin="round"/>
<path d="M97.3537 90.4216C97.3537 94.5168 93.8886 97.8405 89.6191 97.8405C85.3496 97.8405 81.8845 94.5168 81.8845 90.4216C81.8845 86.3264 85.3496 83.0027 89.6191 83.0027C93.8886 83.0027 97.3537 86.3264 97.3537 90.4216Z" fill="url(#paint3_linear_766_948)"/>
<path fill-rule="evenodd" clip-rule="evenodd" d="M90.0049 68.9761C78.3209 68.9761 68.8362 78.4608 68.8362 90.1448C68.8362 101.829 78.3209 111.31 90.0049 111.31C101.689 111.31 111.17 101.829 111.17 90.1448C111.17 78.4608 101.689 68.9761 90.0049 68.9761ZM90.3717 83.9656L94.9164 86.3097L96.4393 91.1973L94.0912 95.746L89.2076 97.2649L84.6589 94.9207L83.14 90.0332L85.4841 85.4845L90.3717 83.9656Z" fill="black" stroke="black" stroke-width="0.878784"/>
<path fill-rule="evenodd" clip-rule="evenodd" d="M89.8568 69.395C78.4041 69.395 69.1072 78.692 69.1072 90.1447C69.1072 97.0122 72.4525 103.101 77.5985 106.877L88.6845 97.0065L84.8355 95.1309L69.494 93.8453L69.3651 93.2239L84.4916 94.4822L83.0888 90.4065L72.8702 78.3592L73.1829 77.8786L83.3115 89.6992L85.1794 85.8346L86.3986 69.7194L86.9769 69.6647L85.828 85.475L90.2163 83.9628L90.2554 83.9823L101.907 73.0027C98.4505 70.4933 94.5311 69.395 89.8568 69.395ZM102.463 73.4321L90.9396 84.2402L94.4713 86.1582L110.321 86.7053C109.485 81.4694 106.428 76.4667 102.463 73.4321ZM94.8235 86.8271L96.07 91.1412L106.668 102.258C109.263 98.7946 110.603 94.8033 110.603 90.1447C110.603 89.2283 110.542 88.3257 110.427 87.4406L94.8235 86.8271ZM95.7927 91.7856L94.1162 95.5372L93.0064 110.652C98.4117 109.827 103.055 107.109 106.242 102.958L95.7927 91.7856ZM93.4714 95.7404L89.4114 97.2175L78.1026 107.252C81.5264 109.744 85.3016 110.89 89.8568 110.89C90.718 110.89 91.567 110.836 92.4007 110.734L93.4714 95.7404Z" fill="url(#paint4_linear_766_948)"/>
<g opacity="0.821656" filter="url(#filter4_f_766_948)">
<path fill-rule="evenodd" clip-rule="evenodd" d="M110.506 90.1444C110.506 95.6214 108.331 100.874 104.458 104.747C100.585 108.62 95.3323 110.795 89.8554 110.795C84.3784 110.795 79.1257 108.62 75.2529 104.747C71.3801 100.874 69.2043 95.6214 69.2043 90.1444C69.2043 84.6674 71.3801 79.4148 75.2529 75.5419C79.1257 71.6691 84.3784 69.4934 89.8554 69.4934C95.3323 69.4934 100.585 71.6691 104.458 75.5419C108.331 79.4148 110.506 84.6674 110.506 90.1444Z" stroke="black" stroke-width="1.74604"/>
</g>
<path fill-rule="evenodd" clip-rule="evenodd" d="M89.8568 69.1223C78.4041 69.1223 69.1072 78.4193 69.1072 89.872C69.1072 96.7395 72.4525 102.828 77.5985 106.605L88.6845 96.7338L84.8355 94.8581L69.494 93.5725L69.3651 92.9512L84.4916 94.2095L83.0888 90.1338L72.8702 78.0865L73.1829 77.6059L83.3115 89.4265L85.1794 85.5618L86.3986 69.4467L86.9769 69.392L85.828 85.2023L90.2163 83.6901L90.2554 83.7096L101.907 72.73C98.4505 70.2206 94.5311 69.1223 89.8568 69.1223ZM102.463 73.1594L90.9396 83.9675L94.4713 85.8855L110.321 86.4326C109.485 81.1967 106.428 76.194 102.463 73.1594ZM94.8235 86.5544L96.07 90.8684L106.668 101.986C109.263 98.5219 110.603 94.5306 110.603 89.872C110.603 88.9556 110.542 88.053 110.427 87.1679L94.8235 86.5544ZM95.7927 91.5129L94.1162 95.2645L93.0064 110.379C98.4117 109.555 103.055 106.836 106.242 102.685L95.7927 91.5129ZM93.4714 95.4677L89.4114 96.9448L78.1026 106.98C81.5264 109.471 85.3016 110.618 89.8568 110.618C90.718 110.618 91.567 110.564 92.4007 110.461L93.4714 95.4677Z" fill="url(#paint5_linear_766_948)"/>
<path fill-rule="evenodd" clip-rule="evenodd" d="M89.8568 69.1223C78.4041 69.1223 69.1072 78.4193 69.1072 89.872C69.1072 96.7395 72.4525 102.828 77.5985 106.605L88.6845 96.7338L84.8355 94.8581L69.494 93.5725L69.3651 92.9512L84.4916 94.2095L83.0888 90.1338L72.8702 78.0865L73.1829 77.6059L83.3115 89.4265L85.1794 85.5618L86.3986 69.4467L86.9769 69.392L85.828 85.2023L90.2163 83.6901L90.2554 83.7096L101.907 72.73C98.4505 70.2206 94.5311 69.1223 89.8568 69.1223ZM102.463 73.1594L90.9396 83.9675L94.4713 85.8855L110.321 86.4326C109.485 81.1967 106.428 76.194 102.463 73.1594ZM94.8235 86.5544L96.07 90.8684L106.668 101.986C109.263 98.5219 110.603 94.5306 110.603 89.872C110.603 88.9556 110.542 88.053 110.427 87.1679L94.8235 86.5544ZM95.7927 91.5129L94.1162 95.2645L93.0064 110.379C98.4117 109.555 103.055 106.836 106.242 102.685L95.7927 91.5129ZM93.4714 95.4677L89.4114 96.9448L78.1026 106.98C81.5264 109.471 85.3016 110.618 89.8568 110.618C90.718 110.618 91.567 110.564 92.4007 110.461L93.4714 95.4677Z" fill="url(#paint6_radial_766_948)"/>
<path fill-rule="evenodd" clip-rule="evenodd" d="M93.8745 60.8684C109.884 62.9702 121.172 77.6695 119.07 93.6793C116.968 109.689 102.269 120.977 86.2591 118.875C70.2493 116.773 58.9617 102.074 61.0635 86.0639C63.1654 70.0541 77.8647 58.7665 93.8745 60.8684Z" stroke="#1A1A1A" stroke-width="0.873022" stroke-linecap="round" stroke-linejoin="round"/>
<path fill-rule="evenodd" clip-rule="evenodd" d="M88.1418 56.8035C69.9514 57.866 56.0504 73.4916 57.1129 91.6821C58.1755 109.873 73.8011 123.774 91.9916 122.711C110.182 121.648 124.083 106.023 123.02 87.8324C121.958 69.6419 106.332 55.7409 88.1418 56.8035Z" fill="url(#paint7_radial_766_948)"/>
<path d="M57.6093 107.798L57.2213 107.995L56.759 107.085L54.0095 108.481L54.9947 108.995L54.5636 109.214L53.554 108.664L53.3402 108.243L56.5259 106.626L56.0841 105.756L56.4723 105.559L57.6093 107.798ZM53.8682 105.78L53.3269 106.011L53.1089 105.501L53.6504 105.27L53.8682 105.78ZM56.1568 104.801L55.6155 105.033L55.3975 104.523L55.9388 104.291L56.1568 104.801ZM55.5585 103.395L55.1478 103.539L54.8098 102.576L51.9002 103.597L52.809 104.236L52.3526 104.396L51.4245 103.718L51.2681 103.273L54.6393 102.09L54.3162 101.169L54.7269 101.025L55.5585 103.395ZM53.7642 99.8564L54.2247 99.7286C54.3215 99.7018 54.4106 99.682 54.4917 99.6693C54.5741 99.6543 54.6517 99.6466 54.7244 99.6461C54.7989 99.6451 54.8701 99.6499 54.938 99.6606C55.0054 99.6695 55.0734 99.684 55.1421 99.7044L55.2356 100.041C55.094 99.9922 54.9568 99.9624 54.824 99.952C54.6907 99.9398 54.5647 99.9502 54.4459 99.9831L54.5129 100.224L53.9126 100.391L53.7642 99.8564ZM52.4993 96.4952C52.6665 96.4607 52.8261 96.4557 52.9784 96.4804C53.1284 96.5036 53.266 96.5594 53.3908 96.6479C53.5152 96.7345 53.6237 96.8563 53.7162 97.0134C53.8087 97.1705 53.8785 97.3642 53.9262 97.5945C53.9738 97.8248 53.9864 98.0303 53.9637 98.2112C53.9407 98.3903 53.8904 98.5459 53.8133 98.678C53.7337 98.8087 53.6299 98.9153 53.5018 98.998C53.3714 99.0792 53.2236 99.1368 53.0583 99.171C52.9154 99.2005 52.7837 99.2055 52.6635 99.1858C52.5429 99.1643 52.4351 99.1255 52.3402 99.0696C52.2432 99.0122 52.1609 98.9421 52.0934 98.8592C52.0237 98.7749 51.9701 98.6843 51.9326 98.5875L51.9215 98.5898C51.9182 98.7047 51.8968 98.8118 51.8573 98.9109C51.8174 99.0083 51.7635 99.0949 51.6959 99.1708C51.6261 99.2453 51.5454 99.3085 51.4535 99.3604C51.3612 99.4104 51.2601 99.4468 51.1506 99.4694C51.0132 99.4979 50.8789 99.4985 50.7474 99.4715C50.6137 99.443 50.4906 99.3861 50.3781 99.3009C50.2638 99.2161 50.1646 99.102 50.0808 98.9586C49.9951 98.8156 49.9313 98.6429 49.8895 98.4405C49.8453 98.2269 49.8341 98.0366 49.8557 97.8695C49.877 97.7005 49.9234 97.5553 49.9951 97.434C50.0647 97.3112 50.1555 97.2121 50.2677 97.1366C50.3799 97.0611 50.5047 97.0092 50.6421 96.9808C50.7498 96.9585 50.856 96.953 50.961 96.9642C51.0655 96.9736 51.165 96.9995 51.2589 97.0421C51.3507 97.0831 51.4343 97.1414 51.5099 97.2167C51.5833 97.2906 51.6428 97.3819 51.6885 97.4906L51.6997 97.4883C51.6949 97.3712 51.7075 97.2592 51.7377 97.1522C51.766 97.0457 51.8138 96.9487 51.8809 96.8612C51.9462 96.7742 52.0303 96.6987 52.1333 96.6348C52.2362 96.5709 52.3582 96.5244 52.4993 96.4952ZM50.7775 97.4959C50.6792 97.5163 50.5918 97.5479 50.5155 97.5908C50.4387 97.6318 50.3775 97.6871 50.3318 97.7565C50.2843 97.8264 50.2543 97.911 50.2419 98.0104C50.2277 98.1101 50.2347 98.2278 50.2627 98.3634C50.29 98.4952 50.3297 98.6032 50.3819 98.6873C50.4323 98.7717 50.4933 98.8375 50.565 98.8847C50.6345 98.9303 50.7127 98.9577 50.7998 98.9668C50.8869 98.976 50.9798 98.9703 51.0781 98.95C51.1562 98.9339 51.2339 98.9071 51.3114 98.8698C51.3889 98.8325 51.4554 98.78 51.5111 98.7123C51.5669 98.6447 51.6064 98.5591 51.6295 98.4555C51.6527 98.352 51.6488 98.2259 51.6181 98.0774C51.5854 97.9195 51.5381 97.7977 51.4758 97.7118C51.4131 97.624 51.3432 97.562 51.266 97.5257C51.1883 97.4875 51.1072 97.4694 51.0224 97.4715C50.9373 97.4716 50.8556 97.4798 50.7775 97.4959ZM52.5597 97.0259C52.4651 97.0455 52.3768 97.0773 52.2948 97.1213C52.2111 97.1657 52.1423 97.2264 52.0884 97.3034C52.0328 97.3807 51.9956 97.4775 51.9771 97.5936C51.9563 97.7083 51.9624 97.8455 51.9954 98.0052C52.0257 98.1519 52.0729 98.2729 52.1371 98.368C52.199 98.4617 52.2711 98.534 52.3532 98.5848C52.435 98.6337 52.5244 98.6636 52.6215 98.6745C52.7169 98.6858 52.8128 98.6815 52.9094 98.6615C53.0301 98.6366 53.1376 98.5989 53.2317 98.5484C53.324 98.4984 53.3995 98.4334 53.4585 98.3534C53.5156 98.2738 53.553 98.1771 53.5701 98.0631C53.5872 97.9492 53.58 97.8171 53.5489 97.6666C53.5174 97.5144 53.4715 97.3903 53.411 97.2943C53.3505 97.1984 53.2785 97.1261 53.1949 97.0776C53.1093 97.0294 53.0138 97.0027 52.9082 96.9974C52.8003 96.9907 52.6842 97.0002 52.5597 97.0259ZM50.7628 84.9843L53.4459 85.3297L53.3805 85.8375L50.6976 85.4922L50.6423 85.921L50.2728 85.8734L50.328 85.4446L49.9839 85.4003C49.8729 85.386 49.7716 85.3624 49.6802 85.3297C49.5869 85.2966 49.5092 85.2483 49.4466 85.1848C49.3824 85.1192 49.3365 85.0359 49.3094 84.9349C49.2804 84.8337 49.2757 84.7069 49.2953 84.5545C49.3031 84.4943 49.3139 84.4326 49.3277 84.3694C49.3419 84.3043 49.3579 84.248 49.3754 84.2006L49.7619 84.2503C49.7521 84.2816 49.7426 84.3186 49.7332 84.3614C49.7223 84.402 49.7145 84.4393 49.7102 84.4731C49.7005 84.5484 49.7029 84.6118 49.7172 84.6633C49.7319 84.713 49.7571 84.7545 49.7929 84.7878C49.8272 84.819 49.8718 84.8438 49.9268 84.8624C49.982 84.879 50.0463 84.8921 50.1197 84.9015L50.3934 84.9368L50.4701 84.3415L50.8395 84.3891L50.7628 84.9843ZM51.1584 83.9863L50.7455 83.9043L51.2971 81.1283L51.71 81.2104L51.1584 83.9863ZM52.587 84.2702L52.1741 84.1881L52.7257 81.4121L53.1384 81.4942L52.587 84.2702ZM53.7515 78.1598C53.9443 78.2166 54.1122 78.2976 54.2552 78.4029C54.3982 78.5082 54.5109 78.6354 54.5936 78.7842C54.6745 78.9326 54.7216 79.1016 54.7349 79.2913C54.7488 79.4793 54.7227 79.6851 54.6569 79.9089C54.5975 80.1108 54.522 80.2803 54.4303 80.4173C54.3391 80.5526 54.2373 80.66 54.1249 80.7396C54.0107 80.8187 53.8889 80.8728 53.7597 80.902C53.6311 80.9294 53.4995 80.937 53.3646 80.925L53.4533 80.4115C53.532 80.413 53.6113 80.4056 53.6912 80.3896C53.7692 80.373 53.8446 80.3418 53.9174 80.2961C53.9889 80.2479 54.0543 80.1832 54.1139 80.1019C54.1721 80.0182 54.2205 79.9109 54.259 79.7799C54.2965 79.6525 54.3116 79.5314 54.3038 79.4165C54.2944 79.301 54.2619 79.1956 54.2069 79.1004C54.1525 79.0033 54.0757 78.9184 53.9765 78.8457C53.8773 78.7731 53.756 78.7156 53.6122 78.6733C53.494 78.6385 53.3801 78.6257 53.2706 78.635C53.1593 78.6438 53.0578 78.6732 52.966 78.7232C52.8723 78.7728 52.7901 78.8435 52.7196 78.9354C52.6496 79.0255 52.5953 79.136 52.5567 79.267C52.5326 79.3489 52.5178 79.4265 52.5121 79.4999C52.5062 79.5733 52.5071 79.6438 52.5149 79.7113C52.5233 79.777 52.5376 79.8395 52.5577 79.8988C52.5765 79.9558 52.5979 80.0105 52.6219 80.0631L52.4806 80.5433L50.45 79.8063L51.0934 77.6206L51.5109 77.7435L50.9992 79.4817L52.1972 79.9143C52.1556 79.8072 52.1306 79.6812 52.1218 79.5363C52.1112 79.3909 52.1324 79.2281 52.1853 79.048C52.2416 78.857 52.3213 78.6936 52.4245 78.558C52.5277 78.4223 52.6488 78.3166 52.7877 78.2408C52.9248 78.1646 53.0756 78.119 53.2401 78.1042C53.4046 78.0893 53.575 78.1079 53.7515 78.1598ZM54.309 74.7522C54.6673 74.8929 54.9557 75.0458 55.174 75.211C55.3912 75.3738 55.5525 75.5441 55.6579 75.7219C55.7622 75.8973 55.8158 76.0773 55.8186 76.2618C55.8216 76.4463 55.7877 76.6286 55.717 76.8086C55.6456 76.9904 55.5464 77.147 55.4194 77.2785C55.2924 77.4099 55.1309 77.5045 54.9352 77.562C54.74 77.6178 54.5076 77.6315 54.2376 77.6029C53.9667 77.5718 53.6511 77.4856 53.291 77.3442C52.915 77.1966 52.6173 77.0419 52.3976 76.8803C52.1768 76.7161 52.016 76.5471 51.9153 76.373C51.8145 76.199 51.7662 76.0211 51.7703 75.8394C51.7726 75.657 51.8107 75.4722 51.8842 75.2851C51.9542 75.1069 52.0497 74.9518 52.1706 74.8201C52.2906 74.6859 52.4467 74.5893 52.6389 74.5303C52.8312 74.4713 53.0641 74.4568 53.3376 74.4868C53.6093 74.5161 53.933 74.6045 54.309 74.7522ZM54.1186 75.2367C53.8221 75.1202 53.5689 75.0412 53.3591 74.9996C53.1476 74.9572 52.9702 74.9476 52.8266 74.9707C52.6814 74.9931 52.5651 75.0452 52.4779 75.1271C52.3897 75.2066 52.3207 75.3098 52.2708 75.4369C52.2181 75.5711 52.1961 75.699 52.2054 75.8208C52.2146 75.9426 52.2645 76.062 52.3551 76.1791C52.4445 76.2936 52.5812 76.4074 52.765 76.5203C52.947 76.6326 53.1855 76.7466 53.4802 76.8623C53.7662 76.9746 54.0141 77.0516 54.2239 77.0932C54.4344 77.1331 54.6131 77.1422 54.7603 77.1205C54.9062 77.0963 55.0254 77.0443 55.1179 76.9645C55.2086 76.884 55.2792 76.7793 55.3298 76.6505C55.379 76.5252 55.3979 76.4021 55.3862 76.2814C55.3727 76.16 55.3203 76.0417 55.2291 75.9264C55.1367 75.8087 55 75.6928 54.8186 75.5788C54.638 75.463 54.4046 75.349 54.1186 75.2367ZM57.2381 73.3151L55.5112 72.4065C55.3786 72.3367 55.2636 72.2868 55.1658 72.2568C55.068 72.2268 54.9817 72.2178 54.9067 72.2298C54.831 72.2393 54.7655 72.2701 54.7101 72.3224C54.6531 72.3738 54.6004 72.4457 54.5518 72.538C54.5015 72.6337 54.4752 72.7302 54.4732 72.8277C54.4695 72.9244 54.4891 73.0193 54.5321 73.1127C54.5743 73.2035 54.6405 73.2918 54.7303 73.3776C54.8194 73.4609 54.9319 73.5383 55.0677 73.6098L56.6461 74.4403L56.409 74.8909L54.2666 73.7637C54.2096 73.7337 54.1497 73.7032 54.0868 73.6722C54.0229 73.6386 53.963 73.6081 53.9067 73.5807C53.8487 73.5523 53.7991 73.5284 53.7579 73.5089C53.7168 73.4894 53.6898 73.4774 53.6773 73.4729L53.9025 73.0449C53.9117 73.0477 53.9353 73.0579 53.9731 73.0757C54.0109 73.0934 54.0546 73.1142 54.1041 73.1382C54.1529 73.1595 54.2029 73.1826 54.254 73.2074C54.3037 73.2314 54.3453 73.2522 54.3788 73.2698L54.3828 73.2623C54.3251 73.1805 54.2767 73.0993 54.2376 73.0188C54.1986 72.9383 54.1736 72.8555 54.1627 72.7704C54.1509 72.6828 54.1545 72.5925 54.1734 72.4996C54.1915 72.4041 54.2287 72.3027 54.2851 72.1953C54.3938 71.9889 54.5205 71.8477 54.6655 71.7719C54.8113 71.6943 54.9864 71.6793 55.1907 71.7268L55.1948 71.7192C55.1371 71.6374 55.0895 71.5546 55.0523 71.4707C55.015 71.3868 54.9923 71.2998 54.984 71.2097C54.974 71.1188 54.9792 71.0251 54.9998 70.9289C55.0188 70.8317 55.0566 70.7294 55.1131 70.622C55.1855 70.4844 55.2662 70.3758 55.3552 70.2962C55.4451 70.215 55.5455 70.1628 55.6563 70.1396C55.7671 70.1165 55.8915 70.122 56.03 70.1563C56.1667 70.1896 56.319 70.2505 56.4868 70.3388L58.3016 71.2938L58.0659 71.7419L56.3392 70.8332C56.2066 70.7635 56.0913 70.7136 55.9935 70.6835C55.8957 70.6535 55.8094 70.6445 55.7345 70.6565C55.6588 70.666 55.5933 70.6969 55.5379 70.7492C55.4809 70.8006 55.4281 70.8724 55.3796 70.9647C55.3292 71.0604 55.3022 71.1565 55.2985 71.2531C55.2931 71.3489 55.3111 71.443 55.3525 71.5354C55.3947 71.6262 55.4606 71.7146 55.5505 71.8004C55.6412 71.8845 55.7562 71.9633 55.8955 72.0366L57.4738 72.8671L57.2381 73.3151ZM59.7508 69.1611L58.1595 68.0317C58.0373 67.945 57.93 67.8803 57.837 67.8376C57.744 67.7949 57.6597 67.7746 57.5839 67.7765C57.5076 67.7759 57.4384 67.7978 57.3766 67.8423C57.3133 67.8857 57.2516 67.9499 57.1912 68.035C57.1286 68.1231 57.0897 68.2154 57.0748 68.3118C57.0584 68.4071 57.0653 68.5038 57.0956 68.602C57.1255 68.6976 57.1791 68.7939 57.2568 68.8909C57.334 68.9852 57.4354 69.0768 57.5606 69.1657L59.015 70.198L58.7203 70.6132L56.7462 69.2122C56.6936 69.1749 56.6382 69.1367 56.5799 69.0976C56.5211 69.0559 56.4657 69.0177 56.4135 68.983C56.3599 68.9473 56.314 68.917 56.2758 68.8922C56.2376 68.8674 56.2124 68.8519 56.2005 68.8458L56.4805 68.4515C56.4893 68.4554 56.5112 68.4687 56.5463 68.4913C56.5815 68.5139 56.622 68.5403 56.668 68.5706C56.7135 68.5982 56.7599 68.6277 56.8074 68.6591C56.8534 68.6894 56.8919 68.7155 56.9228 68.7375L56.9276 68.7305C56.8812 68.6418 56.844 68.555 56.816 68.47C56.788 68.385 56.7742 68.2996 56.7746 68.2138C56.7745 68.1254 56.7901 68.0364 56.8211 67.9468C56.8517 67.8546 56.9022 67.759 56.9724 67.66C57.1074 67.4698 57.2516 67.3467 57.4054 67.2907C57.5601 67.2331 57.7357 67.2414 57.932 67.3155L57.9369 67.3086C57.8906 67.2199 57.8545 67.1315 57.8286 67.0434C57.8027 66.9553 57.7917 66.866 57.7954 66.7757C57.7975 66.6842 57.8152 66.5921 57.8484 66.4994C57.8802 66.4056 57.931 66.3092 58.0012 66.2103C58.0912 66.0835 58.1857 65.9865 58.2845 65.9194C58.3844 65.8508 58.4908 65.8123 58.6036 65.804C58.7165 65.7958 58.8392 65.8178 58.9719 65.87C59.103 65.9212 59.2458 66.0017 59.4005 66.1114L61.0728 67.2984L60.7798 67.7113L59.1885 66.582C59.0664 66.4953 58.9588 66.4306 58.8658 66.3878C58.7729 66.3452 58.6886 66.3248 58.6127 66.3268C58.5365 66.3261 58.4674 66.3481 58.4056 66.3925C58.3422 66.4359 58.2804 66.5002 58.22 66.5852C58.1575 66.6734 58.118 66.7651 58.1016 66.8604C58.0836 66.9546 58.0888 67.0502 58.1176 67.1473C58.1474 67.2429 58.2011 67.3392 58.2787 67.4362C58.3575 67.5316 58.4611 67.6249 58.5895 67.716L60.0438 68.7482L59.7508 69.1611ZM67.8981 60.7815C67.8848 60.771 67.8632 60.7514 67.8332 60.7226C67.8037 60.6909 67.7702 60.6558 67.7327 60.6172C67.6968 60.5774 67.6603 60.5368 67.6232 60.4954C67.5878 60.4527 67.5569 60.4142 67.5305 60.3801L67.5208 60.3876C67.5727 60.6199 67.5558 60.8286 67.4703 61.0138C67.385 61.1961 67.2431 61.3637 67.0445 61.5166C66.8785 61.6445 66.7082 61.7212 66.5336 61.7469C66.3604 61.7713 66.1871 61.7531 66.0132 61.6925C65.8411 61.6306 65.6716 61.5316 65.5047 61.3957C65.3382 61.2569 65.179 61.089 65.0273 60.8921C64.8732 60.6919 64.751 60.4929 64.6609 60.2952C64.5726 60.0962 64.5236 59.9045 64.5139 59.7201C64.5029 59.5341 64.5344 59.3581 64.6087 59.1919C64.6847 59.0246 64.8105 58.8732 64.9863 58.7378C65.0726 58.6714 65.1625 58.6164 65.256 58.5729C65.3495 58.5294 65.4449 58.5 65.5421 58.4848C65.6393 58.4696 65.7382 58.47 65.8387 58.486C65.9392 58.502 66.0409 58.5364 66.1439 58.5893L66.1487 58.5856C66.1361 58.5693 66.1171 58.5463 66.0916 58.5167C66.0666 58.4841 66.0385 58.4475 66.0071 58.4068C65.9757 58.3661 65.9425 58.3244 65.907 58.2817C65.8732 58.2378 65.8406 58.1955 65.8091 58.1548L65.0664 57.1904L65.7525 56.6621L68.0989 59.709C68.1979 59.8376 68.2889 59.9505 68.3715 60.0476C68.4528 60.1431 68.5164 60.2173 68.5622 60.2702L67.8981 60.7815ZM66.838 59.4705C66.7038 59.2964 66.5766 59.1648 66.4563 59.076C66.3348 58.9855 66.2215 58.9275 66.1164 58.9022C66.0117 58.8739 65.9151 58.8731 65.8267 58.8997C65.7386 58.9234 65.6596 58.9622 65.5896 59.0161C65.5017 59.0838 65.4367 59.1611 65.3947 59.2479C65.3542 59.3335 65.3388 59.431 65.3479 59.5406C65.3588 59.649 65.3959 59.7695 65.4591 59.9023C65.5241 60.0337 65.6186 60.18 65.7428 60.3412C66.204 60.9402 66.6145 61.1011 66.9742 60.8241C67.0425 60.7715 67.0997 60.7042 67.1454 60.6223C67.1912 60.5403 67.2141 60.4437 67.2139 60.3323C67.2138 60.221 67.1846 60.0942 67.1269 59.9519C67.0696 59.8068 66.9734 59.6463 66.838 59.4705ZM67.1315 56.5133L66.7821 55.9797L67.5065 55.5053L67.8559 56.0389L67.1315 56.5133ZM69.2876 59.8053L67.4607 57.016L68.1851 56.5416L70.0118 59.3309L69.2876 59.8053ZM72.6182 59.3366C72.4257 59.4428 72.2449 59.5168 72.0755 59.5586C71.9091 59.6012 71.7542 59.6162 71.6111 59.6037C71.4709 59.5919 71.3426 59.5548 71.226 59.4924C71.1123 59.4308 71.0119 59.349 70.925 59.2467L71.634 58.7393C71.7255 58.8414 71.8336 58.9013 71.9584 58.9192C72.0851 58.9362 72.2204 58.9049 72.3643 58.8255C72.4542 58.7759 72.5292 58.7181 72.589 58.6523C72.6506 58.5854 72.6905 58.507 72.709 58.4171C72.7302 58.3279 72.7279 58.226 72.7021 58.1111C72.6781 57.9953 72.6259 57.8646 72.5455 57.7189C72.5177 57.6686 72.4894 57.6173 72.4606 57.5651C72.4318 57.513 72.4064 57.4648 72.3843 57.4207C72.3583 57.3693 72.3325 57.3202 72.3067 57.2735L72.3014 57.2764C72.3174 57.5139 72.2688 57.7191 72.1555 57.892C72.0438 58.0639 71.8782 58.2104 71.6588 58.3315C71.4736 58.4337 71.2936 58.4861 71.119 58.4886C70.9452 58.4883 70.7785 58.4477 70.6189 58.3668C70.4583 58.2842 70.3068 58.1648 70.1644 58.0088C70.0227 57.8499 69.8919 57.6617 69.7719 57.4441C69.6478 57.2192 69.558 57.0036 69.5027 56.7971C69.4465 56.5888 69.4279 56.3937 69.4472 56.2118C69.4682 56.0289 69.5297 55.8637 69.6313 55.7161C69.7336 55.5657 69.8819 55.437 70.0761 55.3297C70.2704 55.2226 70.4669 55.1681 70.6654 55.1665C70.8658 55.1639 71.0601 55.2314 71.2487 55.369L71.2623 55.3616C71.2414 55.3238 71.2184 55.2801 71.1934 55.2306C71.1693 55.1782 71.1465 55.1286 71.1253 55.0816C71.103 55.0329 71.084 54.9895 71.0677 54.9516C71.0533 54.9126 71.0444 54.8858 71.041 54.8713L71.7585 54.4752C71.7907 54.542 71.8372 54.6348 71.8982 54.7537C71.9591 54.8726 72.0313 55.0076 72.1147 55.1587L73.3043 57.3143C73.4214 57.5266 73.4925 57.7278 73.5177 57.918C73.5439 58.11 73.5263 58.291 73.4652 58.4608C73.4059 58.6296 73.3043 58.7878 73.1604 58.9352C73.0183 59.0817 72.8376 59.2155 72.6182 59.3366ZM71.7782 56.3157C71.6769 56.1322 71.5745 55.9893 71.4711 55.8868C71.3676 55.7844 71.2668 55.7122 71.1686 55.6702C71.0703 55.6282 70.9749 55.6128 70.8825 55.6239C70.7919 55.634 70.709 55.6599 70.6334 55.7016C70.5363 55.7552 70.4604 55.8217 70.4057 55.9012C70.3528 55.9796 70.3221 56.0728 70.3135 56.1807C70.305 56.2887 70.3211 56.4112 70.3616 56.5484C70.4022 56.6856 70.469 56.8388 70.5623 57.0078C70.736 57.3226 70.9174 57.5322 71.1064 57.6367C71.2955 57.7412 71.4898 57.7384 71.6895 57.6282C71.765 57.5865 71.8317 57.5309 71.8896 57.4614C71.9483 57.3892 71.9869 57.2998 72.0056 57.1933C72.0232 57.085 72.0159 56.9589 71.9834 56.8149C71.9508 56.671 71.8824 56.5046 71.7782 56.3157ZM72.5264 53.4614L72.2613 52.8812L73.0491 52.5213L73.314 53.1015L72.5264 53.4614ZM74.1616 57.0406L72.7761 54.0079L73.5637 53.6481L74.9494 56.6808L74.1616 57.0406ZM78.5596 55.289L76.4216 53.9344L76.0541 54.5004L76.5859 55.9924L75.7295 56.2975L74.2721 52.2076L75.1283 51.9025L75.7893 53.7573L76.9715 51.2456L77.97 50.8898L76.8392 53.2425L79.5697 54.929L78.5596 55.289ZM80.8328 54.7171C80.6768 54.7538 80.532 54.7658 80.3981 54.753C80.2657 54.7378 80.1469 54.6993 80.0416 54.6376C79.9359 54.5738 79.8456 54.4864 79.7709 54.3753C79.6962 54.2641 79.6404 54.1306 79.6037 53.9746C79.5584 53.7826 79.5535 53.6139 79.5888 53.4684C79.6257 53.3204 79.6926 53.1927 79.7898 53.0854C79.8865 52.9761 80.0085 52.8851 80.156 52.8124C80.3031 52.7376 80.4645 52.6785 80.6399 52.6351L81.3359 52.4584L81.297 52.2934C81.2692 52.1755 81.2352 52.0801 81.1948 52.0073C81.1559 51.932 81.1107 51.8741 81.059 51.8335C81.0072 51.793 80.9488 51.7697 80.8841 51.7639C80.8209 51.7556 80.7513 51.7603 80.6754 51.7782C80.6054 51.7947 80.5441 51.8166 80.4913 51.8438C80.4406 51.8705 80.3996 51.9065 80.3681 51.9519C80.3362 51.9954 80.3142 52.0501 80.3023 52.1162C80.292 52.1799 80.2924 52.2579 80.3037 52.3502L79.4148 52.5153C79.4054 52.3676 79.4191 52.2283 79.4558 52.0973C79.492 51.9642 79.556 51.8415 79.6477 51.7291C79.7414 51.6163 79.8648 51.5176 80.0179 51.4329C80.1726 51.3459 80.3609 51.2762 80.5829 51.2239C80.7849 51.1763 80.9707 51.1589 81.1404 51.1717C81.3101 51.1844 81.4617 51.2278 81.5953 51.3019C81.7284 51.374 81.8409 51.4752 81.9327 51.6055C82.0246 51.7358 82.093 51.8959 82.1378 52.0859L82.4162 53.2676C82.4341 53.3436 82.4531 53.4109 82.4733 53.4695C82.4954 53.5276 82.5203 53.5755 82.5482 53.6133C82.5776 53.6485 82.612 53.6732 82.6512 53.6872C82.6919 53.6987 82.7402 53.6978 82.7962 53.6846C82.8602 53.6696 82.9208 53.649 82.978 53.6228L83.0853 54.0787C83.0382 54.1025 82.9957 54.1241 82.9581 54.1435C82.9205 54.1629 82.8823 54.1804 82.8437 54.1958C82.8052 54.2112 82.7634 54.2263 82.7184 54.2412C82.6753 54.2555 82.6238 54.2698 82.5639 54.2839C82.3518 54.3339 82.1826 54.3188 82.0561 54.2389C81.9316 54.1585 81.8357 54.0196 81.7681 53.8224L81.75 53.8266C81.6856 54.055 81.5787 54.2459 81.4292 54.3993C81.2815 54.5523 81.0827 54.6582 80.8328 54.7171ZM81.4454 52.9233L81.0149 53.0311C80.9258 53.0563 80.8417 53.0845 80.7626 53.1158C80.6849 53.1447 80.6194 53.1844 80.5659 53.235C80.514 53.2831 80.4777 53.3444 80.4572 53.4189C80.4368 53.4934 80.4401 53.5876 80.4669 53.7016C80.5033 53.8555 80.5652 53.9623 80.6531 54.0218C80.7425 54.0788 80.8462 54.0934 80.9642 54.0656C81.0721 54.0402 81.1647 53.9941 81.2419 53.9274C81.319 53.8606 81.379 53.7832 81.4216 53.6951C81.4656 53.6045 81.493 53.5062 81.504 53.4002C81.5148 53.2942 81.5084 53.1903 81.4843 53.0883L81.4454 52.9233ZM85.4442 53.8095L85.2464 51.9495C85.2326 51.8208 85.211 51.7043 85.1813 51.6C85.1534 51.4935 85.115 51.4046 85.0661 51.3334C85.0191 51.2599 84.9606 51.2052 84.8906 51.1692C84.8228 51.133 84.7428 51.1199 84.6509 51.1296C84.5631 51.139 84.486 51.1709 84.4195 51.2255C84.3528 51.2781 84.2974 51.3501 84.2534 51.4415C84.2113 51.5307 84.1822 51.6361 84.1662 51.7576C84.15 51.8771 84.1493 52.0073 84.1643 52.1482L84.3533 53.9255L83.4922 54.0171L83.2185 51.4431C83.2109 51.3716 83.202 51.2982 83.192 51.2228C83.1839 51.1472 83.1742 51.076 83.163 51.009C83.1535 50.9397 83.1451 50.8787 83.1374 50.8258C83.1295 50.7708 83.122 50.7303 83.1151 50.7042L83.9364 50.6168C83.9431 50.6409 83.9515 50.6803 83.9614 50.735C83.9712 50.7877 83.9814 50.8465 83.9925 50.9115C84.0035 50.9764 84.0134 51.0415 84.0224 51.1066C84.0335 51.1715 84.0415 51.2265 84.0463 51.2714L84.0585 51.2701C84.1378 51.0055 84.25 50.8076 84.3951 50.6765C84.5423 50.5452 84.7261 50.4678 84.9467 50.4443C85.2001 50.4174 85.41 50.458 85.5765 50.5664C85.7448 50.6724 85.868 50.8401 85.9462 51.0694L85.9645 51.0674C86.0092 50.9242 86.0604 50.8031 86.118 50.704C86.1776 50.6047 86.2453 50.5231 86.3212 50.4593C86.3988 50.3931 86.4845 50.3427 86.5779 50.308C86.6734 50.2731 86.7782 50.2495 86.8926 50.2373C87.0745 50.218 87.231 50.2344 87.3626 50.2865C87.4962 50.3384 87.608 50.4174 87.6979 50.5236C87.7897 50.6295 87.8612 50.7582 87.9125 50.9098C87.9657 51.0611 88.0018 51.2267 88.021 51.4065L88.2449 53.5116L87.39 53.6025L87.1922 51.7425C87.1785 51.6138 87.1567 51.4973 87.127 51.3931C87.0991 51.2865 87.0609 51.1977 87.012 51.1264C86.965 51.0529 86.9064 50.9982 86.8365 50.9623C86.7686 50.9261 86.6887 50.9129 86.5968 50.9227C86.511 50.9318 86.4346 50.9626 86.3679 51.0152C86.303 51.0655 86.2485 51.1343 86.204 51.2217C86.1615 51.3068 86.1318 51.407 86.1152 51.5224C86.0984 51.6378 86.0953 51.7641 86.1058 51.9015L86.2992 53.7185L85.4442 53.8095ZM98.8067 54.7088L99.3024 52.8215C99.3404 52.6766 99.3631 52.5532 99.3703 52.4511C99.3775 52.3491 99.3666 52.263 99.338 52.1927C99.3118 52.1211 99.267 52.0643 99.2036 52.0221C99.1406 51.9781 99.0587 51.9429 98.9577 51.9164C98.8532 51.8889 98.7533 51.8852 98.6579 51.9052C98.5629 51.9234 98.4748 51.964 98.3935 52.027C98.3146 52.0886 98.2435 52.1728 98.1801 52.2797C98.1191 52.3852 98.069 52.5123 98.03 52.6608L97.5768 54.3858L97.0845 54.2564L97.6994 51.9152C97.7158 51.8529 97.7319 51.7875 97.7479 51.7192C97.7662 51.6495 97.7825 51.5841 97.7965 51.5231C97.8111 51.4603 97.8232 51.4066 97.833 51.3621C97.8426 51.3176 97.8482 51.2887 97.8497 51.2754L98.3176 51.3982C98.317 51.4079 98.3123 51.4331 98.3035 51.4739C98.2948 51.5148 98.2843 51.562 98.2722 51.6157C98.2624 51.668 98.2511 51.7219 98.2385 51.7774C98.2264 51.8311 98.2155 51.8763 98.2058 51.9129L98.214 51.9151C98.2807 51.8405 98.3488 51.7751 98.4185 51.7189C98.4882 51.6626 98.5632 51.6196 98.6436 51.5898C98.7263 51.5585 98.815 51.5417 98.9098 51.5391C99.0069 51.5352 99.1142 51.5487 99.2316 51.5795C99.4572 51.6388 99.6232 51.7304 99.7298 51.8545C99.8383 51.9791 99.8926 52.1462 99.8923 52.3559L99.9005 52.3581C99.9672 52.2835 100.037 52.2185 100.111 52.1633C100.184 52.108 100.263 52.0662 100.349 52.0378C100.436 52.0076 100.528 51.9916 100.626 51.99C100.725 51.9866 100.834 52.0003 100.951 52.0312C101.101 52.0707 101.225 52.1248 101.323 52.1936C101.422 52.2628 101.496 52.3488 101.544 52.4515C101.591 52.5542 101.614 52.6768 101.612 52.8193C101.61 52.9601 101.585 53.1221 101.537 53.3055L101.016 55.2891L100.526 55.1605L101.022 53.2732C101.06 53.1283 101.083 53.0048 101.09 52.9028C101.097 52.8008 101.086 52.7147 101.058 52.6444C101.031 52.5728 100.986 52.5159 100.923 52.4738C100.86 52.4298 100.778 52.3945 100.677 52.368C100.573 52.3406 100.473 52.3359 100.378 52.3541C100.284 52.3705 100.196 52.4092 100.115 52.4704C100.036 52.532 99.965 52.6162 99.9017 52.7231C99.8402 52.8305 99.7895 52.9602 99.7495 53.1125L99.2963 54.8374L98.8067 54.7088ZM102.462 55.9069C102.173 55.796 101.986 55.6366 101.899 55.4286C101.812 55.2206 101.82 54.9839 101.922 54.7184C101.995 54.5289 102.09 54.3876 102.207 54.2945C102.326 54.2002 102.457 54.1406 102.598 54.1158C102.742 54.0916 102.893 54.0948 103.052 54.1254C103.211 54.156 103.368 54.1991 103.523 54.2547L104.172 54.4919L104.233 54.3352C104.278 54.2166 104.304 54.111 104.312 54.0182C104.319 53.9255 104.307 53.8436 104.275 53.7726C104.243 53.7015 104.193 53.6395 104.124 53.5866C104.057 53.5326 103.972 53.4855 103.867 53.4454C103.775 53.41 103.69 53.3852 103.61 53.3708C103.531 53.3546 103.457 53.3537 103.388 53.368C103.32 53.3806 103.258 53.4105 103.202 53.4577C103.145 53.5032 103.095 53.5691 103.049 53.6553L102.568 53.4184C102.629 53.3119 102.702 53.2213 102.788 53.1465C102.874 53.0699 102.976 53.0145 103.092 52.9801C103.211 52.9464 103.346 52.9372 103.496 52.9524C103.649 52.9665 103.823 53.0109 104.018 53.0857C104.379 53.2244 104.619 53.412 104.737 53.6484C104.856 53.8831 104.856 54.1571 104.735 54.4704L104.26 55.7078C104.206 55.8494 104.183 55.9636 104.192 56.0505C104.202 56.1356 104.259 56.1982 104.364 56.2383C104.39 56.2485 104.418 56.2569 104.446 56.2636C104.474 56.2702 104.501 56.2757 104.528 56.2799L104.414 56.5773C104.348 56.5683 104.284 56.5558 104.221 56.5398C104.16 56.5244 104.095 56.5038 104.028 56.478C103.938 56.4433 103.864 56.4019 103.808 56.3537C103.754 56.3045 103.715 56.2481 103.693 56.1847C103.671 56.1195 103.663 56.0474 103.669 55.9684C103.676 55.8877 103.695 55.7985 103.726 55.7009L103.71 55.6948C103.624 55.7671 103.535 55.8285 103.445 55.8791C103.356 55.9303 103.26 55.9668 103.159 55.9887C103.057 56.0087 102.949 56.0129 102.834 56.0011C102.72 55.9899 102.596 55.9586 102.462 55.9069ZM102.708 55.5902C102.861 55.6487 103.004 55.6723 103.138 55.6609C103.275 55.6485 103.397 55.6131 103.505 55.555C103.614 55.4974 103.708 55.4245 103.784 55.3361C103.861 55.2477 103.917 55.1566 103.953 55.0628L104.044 54.8265L103.517 54.6362C103.399 54.5931 103.284 54.5591 103.172 54.5342C103.062 54.5082 102.959 54.5021 102.862 54.5158C102.766 54.5294 102.678 54.5669 102.6 54.6282C102.523 54.6902 102.46 54.7858 102.41 54.915C102.35 55.0708 102.346 55.2071 102.396 55.3241C102.449 55.4417 102.553 55.5304 102.708 55.5902ZM106.727 57.1764C106.556 57.3119 106.38 57.3834 106.201 57.3909C106.024 57.3992 105.832 57.3526 105.624 57.2509C105.274 57.0801 105.075 56.8368 105.024 56.5209C104.976 56.2058 105.068 55.8098 105.302 55.3328C105.773 54.3687 106.348 54.0524 107.026 54.384C107.236 54.4864 107.391 54.6102 107.493 54.7551C107.596 54.9001 107.649 55.0769 107.652 55.2855L107.657 55.288C107.666 55.271 107.678 55.2441 107.693 55.2075C107.712 55.17 107.73 55.1313 107.747 55.0913C107.767 55.0504 107.786 55.0121 107.803 54.9763C107.821 54.9405 107.833 54.915 107.841 54.8996L108.364 53.829L108.824 54.0539L107.249 57.2761C107.216 57.3425 107.185 57.4064 107.155 57.4677C107.126 57.5299 107.101 57.5869 107.077 57.6389C107.054 57.6908 107.034 57.736 107.018 57.7743C107.002 57.8109 106.991 57.8373 106.985 57.8534L106.546 57.6385C106.551 57.6198 106.559 57.5943 106.571 57.5619C106.585 57.5287 106.6 57.4908 106.616 57.4483C106.635 57.4066 106.654 57.3632 106.674 57.318C106.695 57.2712 106.716 57.2256 106.738 57.1814L106.727 57.1764ZM105.792 55.5537C105.699 55.7445 105.631 55.9139 105.588 56.0618C105.545 56.2097 105.528 56.3409 105.538 56.4553C105.548 56.568 105.584 56.6648 105.646 56.7457C105.708 56.8266 105.797 56.8958 105.915 56.9532C106.036 57.0124 106.152 57.0449 106.263 57.0507C106.376 57.0573 106.484 57.0322 106.588 56.9753C106.695 56.9176 106.798 56.8259 106.9 56.7003C107.001 56.5748 107.102 56.4098 107.202 56.2054C107.298 56.0095 107.363 55.8363 107.396 55.6859C107.43 55.5338 107.436 55.4006 107.414 55.2863C107.392 55.172 107.344 55.0745 107.269 54.9937C107.197 54.9121 107.102 54.8421 106.982 54.7838C106.87 54.7288 106.763 54.7009 106.662 54.7001C106.561 54.6993 106.462 54.729 106.365 54.7892C106.268 54.8494 106.172 54.9427 106.077 55.0691C105.983 55.1946 105.889 55.3561 105.792 55.5537ZM108.739 57.2016C108.655 57.3396 108.592 57.4754 108.549 57.6089C108.509 57.7418 108.492 57.8681 108.5 57.9878C108.51 58.1069 108.547 58.2179 108.611 58.3208C108.676 58.4222 108.773 58.512 108.903 58.5905C109.093 58.7052 109.268 58.7587 109.428 58.751C109.589 58.7443 109.725 58.6948 109.836 58.6024L110.155 58.9443C110.083 59.0007 110 59.0511 109.904 59.0953C109.812 59.139 109.706 59.1658 109.587 59.1759C109.468 59.1843 109.335 59.1703 109.187 59.1337C109.041 59.0966 108.88 59.025 108.705 58.9192C108.315 58.6839 108.088 58.3884 108.024 58.0328C107.961 57.6781 108.068 57.2719 108.345 56.8141C108.494 56.5674 108.65 56.3775 108.815 56.2443C108.981 56.1095 109.149 56.0208 109.321 55.9784C109.493 55.936 109.665 55.9344 109.836 55.9735C110.008 56.0111 110.175 56.0789 110.338 56.177C110.559 56.3103 110.721 56.4573 110.826 56.6179C110.932 56.7795 110.992 56.9506 111.004 57.1311C111.02 57.311 110.995 57.4975 110.929 57.6904C110.865 57.8844 110.773 58.0804 110.654 58.2784L110.618 58.3369L108.739 57.2016ZM110.368 57.7274C110.512 57.4351 110.563 57.1903 110.523 56.9931C110.483 56.7943 110.354 56.6287 110.135 56.4964C110.062 56.4523 109.977 56.4179 109.881 56.3932C109.788 56.3679 109.689 56.3647 109.585 56.3836C109.48 56.4025 109.373 56.4496 109.264 56.5251C109.155 56.5989 109.049 56.7134 108.946 56.8686L110.368 57.7274ZM112.313 61.4057C112.072 61.2122 111.942 61.0032 111.923 60.7787C111.903 60.5542 111.983 60.331 112.161 60.1092C112.288 59.951 112.421 59.8453 112.561 59.7923C112.704 59.7389 112.846 59.722 112.989 59.7415C113.133 59.7622 113.276 59.8113 113.418 59.8888C113.56 59.9664 113.696 60.0553 113.827 60.1557L114.373 60.5795L114.478 60.4487C114.558 60.3496 114.615 60.257 114.65 60.1709C114.685 60.0848 114.699 60.0031 114.69 59.9257C114.682 59.8484 114.653 59.774 114.603 59.7026C114.556 59.6308 114.489 59.5599 114.402 59.4899C114.325 59.4282 114.251 59.3783 114.179 59.3402C114.109 59.3007 114.039 59.2774 113.969 59.2701C113.901 59.2614 113.832 59.2709 113.764 59.2986C113.697 59.3249 113.628 59.3721 113.559 59.4404L113.172 59.0679C113.263 58.9852 113.36 58.9212 113.465 58.8761C113.57 58.8295 113.684 58.8076 113.806 58.8105C113.929 58.8146 114.06 58.8468 114.199 58.9071C114.34 58.9672 114.492 59.0626 114.655 59.1931C114.956 59.4353 115.128 59.6871 115.168 59.9484C115.21 60.2082 115.126 60.4689 114.916 60.7306L114.086 61.7642C113.991 61.8825 113.935 61.9845 113.917 62.07C113.901 62.1541 113.936 62.2312 114.023 62.3012C114.045 62.319 114.069 62.3353 114.093 62.3502C114.118 62.365 114.142 62.3786 114.167 62.3907L113.967 62.6392C113.907 62.6106 113.85 62.5791 113.795 62.5447C113.741 62.5114 113.687 62.4722 113.63 62.4271C113.555 62.3666 113.498 62.3047 113.458 62.2416C113.422 62.1781 113.403 62.1128 113.401 62.0456C113.4 61.9769 113.414 61.9058 113.444 61.8324C113.475 61.7575 113.52 61.6784 113.58 61.595L113.566 61.5843C113.462 61.6268 113.359 61.6583 113.257 61.6788C113.157 61.7006 113.055 61.7063 112.952 61.696C112.849 61.6843 112.745 61.6553 112.639 61.6089C112.534 61.5637 112.425 61.496 112.313 61.4057ZM112.644 61.1793C112.771 61.2814 112.901 61.3475 113.032 61.3777C113.166 61.4075 113.293 61.4112 113.414 61.3886C113.535 61.3672 113.646 61.326 113.746 61.2652C113.846 61.2044 113.927 61.1348 113.99 61.0564L114.149 60.859L113.705 60.5171C113.606 60.4402 113.507 60.3728 113.408 60.3148C113.311 60.2566 113.214 60.2193 113.118 60.2028C113.022 60.1864 112.927 60.1954 112.834 60.2299C112.742 60.2656 112.653 60.3374 112.566 60.4453C112.461 60.5754 112.415 60.7039 112.428 60.8307C112.442 60.9586 112.514 61.0748 112.644 61.1793ZM116.499 63.9088C116.399 64.0132 116.29 64.0869 116.17 64.1301C116.053 64.1731 115.929 64.1862 115.799 64.1692C115.67 64.1509 115.534 64.1032 115.393 64.0262C115.254 63.949 115.113 63.8418 114.969 63.7045C114.84 63.5815 114.733 63.46 114.648 63.34C114.563 63.2227 114.503 63.1048 114.466 62.9863C114.43 62.8678 114.419 62.7474 114.434 62.625C114.451 62.5025 114.497 62.3773 114.571 62.2494L114.96 62.4975C114.877 62.6471 114.859 62.7971 114.904 62.9475C114.951 63.0966 115.062 63.2549 115.238 63.4223C115.317 63.4982 115.395 63.562 115.472 63.6138C115.549 63.6669 115.625 63.7033 115.698 63.723C115.772 63.7414 115.843 63.741 115.911 63.7219C115.981 63.7027 116.048 63.6602 116.111 63.5943C116.175 63.527 116.211 63.4571 116.22 63.3844C116.231 63.3104 116.221 63.2322 116.193 63.1497C116.164 63.0672 116.119 62.9771 116.057 62.8794C115.999 62.7815 115.934 62.6738 115.862 62.5561C115.795 62.4478 115.732 62.3373 115.671 62.2248C115.611 62.1122 115.567 61.9986 115.54 61.8839C115.516 61.7692 115.515 61.6558 115.538 61.5439C115.561 61.4321 115.623 61.3233 115.723 61.2176C115.917 61.0144 116.136 60.9286 116.381 60.9602C116.628 60.9918 116.891 61.1396 117.168 61.4039C117.414 61.638 117.568 61.867 117.63 62.0908C117.693 62.316 117.653 62.5423 117.509 62.7698L117.136 62.4931C117.179 62.4237 117.202 62.354 117.206 62.2842C117.211 62.213 117.201 62.1435 117.177 62.0756C117.153 62.0065 117.117 61.9389 117.067 61.8731C117.02 61.8072 116.965 61.7441 116.901 61.684C116.734 61.5244 116.586 61.432 116.458 61.407C116.33 61.3819 116.217 61.4209 116.119 61.5238C116.061 61.5843 116.028 61.6481 116.019 61.7154C116.013 61.7826 116.023 61.8548 116.049 61.932C116.077 62.0091 116.119 62.0932 116.173 62.1845C116.229 62.2743 116.291 62.3727 116.359 62.4797C116.404 62.5511 116.449 62.6251 116.494 62.7018C116.54 62.7771 116.58 62.8546 116.614 62.9343C116.651 63.0139 116.679 63.0943 116.698 63.1757C116.72 63.257 116.729 63.3386 116.724 63.4205C116.72 63.5024 116.699 63.5841 116.664 63.6654C116.63 63.7481 116.575 63.8292 116.499 63.9088ZM123.242 70.8157C122.98 70.9859 122.716 71.1024 122.452 71.1653C122.189 71.2297 121.934 71.2398 121.689 71.1956C121.443 71.1514 121.212 71.0527 120.995 70.8994C120.778 70.7462 120.585 70.5382 120.415 70.2757C120.235 69.9988 120.121 69.7283 120.072 69.4641C120.024 69.1989 120.033 68.9471 120.097 68.7086C120.163 68.4691 120.281 68.2452 120.448 68.037C120.616 67.8288 120.827 67.6427 121.08 67.4787C121.342 67.3085 121.603 67.1915 121.862 67.1275C122.121 67.0635 122.371 67.0544 122.611 67.1001C122.852 67.1448 123.079 67.2448 123.293 67.4001C123.509 67.556 123.705 67.7684 123.879 68.0373C124.052 68.3047 124.165 68.5681 124.218 68.8276C124.272 69.0886 124.27 69.3376 124.211 69.5746C124.153 69.8132 124.042 70.0377 123.878 70.248C123.714 70.4584 123.502 70.6476 123.242 70.8157ZM122.941 70.3503C123.143 70.2193 123.31 70.0739 123.441 69.9142C123.574 69.756 123.666 69.5878 123.717 69.4096C123.77 69.2331 123.78 69.0494 123.747 68.8585C123.713 68.6677 123.633 68.4744 123.507 68.2787C123.377 68.0782 123.231 67.9229 123.069 67.813C122.908 67.7031 122.735 67.6354 122.551 67.6098C122.368 67.5859 122.178 67.6021 121.979 67.6584C121.782 67.7164 121.582 67.8108 121.38 67.9418C121.178 68.0728 121.009 68.2184 120.873 68.3786C120.74 68.5394 120.645 68.7096 120.587 68.8893C120.532 69.0695 120.519 69.2566 120.548 69.4506C120.579 69.645 120.658 69.8402 120.785 70.0359C120.921 70.246 121.072 70.4044 121.238 70.5112C121.406 70.6196 121.582 70.6832 121.765 70.7019C121.952 70.7211 122.144 70.6992 122.343 70.636C122.543 70.5744 122.742 70.4792 122.941 70.3503ZM125.784 74.1166C125.628 74.1943 125.469 74.2406 125.307 74.2555C125.147 74.2713 124.992 74.2523 124.84 74.1985C124.691 74.1456 124.549 74.0563 124.414 73.9305C124.28 73.8047 124.161 73.6391 124.059 73.4336L123.535 72.3792L122.137 73.0746L121.895 72.5882L125.483 70.8034L126.234 72.3137C126.34 72.526 126.406 72.7241 126.432 72.9082C126.459 73.0914 126.451 73.2593 126.409 73.4119C126.368 73.5636 126.293 73.6991 126.185 73.8185C126.079 73.937 125.945 74.0364 125.784 74.1166ZM125.536 73.6301C125.763 73.517 125.901 73.3616 125.949 73.1641C125.998 72.9658 125.954 72.7274 125.815 72.4489L125.335 71.4837L123.919 72.1879L124.41 73.1736C124.549 73.4537 124.713 73.6284 124.902 73.6975C125.092 73.7682 125.303 73.7458 125.536 73.6301ZM123.583 76.0955L127.34 74.7003L128.399 77.5508L127.983 77.7053L127.113 75.3641L125.908 75.8117L126.718 77.9929L126.307 78.1454L125.497 75.9642L124.188 76.4504L125.098 78.9009L124.682 79.0554L123.583 76.0955ZM125.526 82.283L128.319 79.3764C128.23 79.4025 128.142 79.4293 128.055 79.4569C127.98 79.4794 127.901 79.5021 127.817 79.525C127.735 79.5493 127.662 79.5695 127.597 79.5856L125.014 80.2295L124.897 79.7604L128.786 78.791L128.938 79.4037L126.129 82.3379C126.129 82.3379 126.217 82.3099 126.395 82.2539C126.471 82.231 126.554 82.2064 126.643 82.1803C126.734 82.1537 126.821 82.13 126.904 82.1094L129.455 81.4737L129.573 81.9484L125.684 82.9178L125.526 82.283ZM127.478 88.4896C127.309 88.5045 127.152 88.4852 127.004 88.4316C126.857 88.38 126.725 88.2907 126.609 88.164C126.495 88.037 126.399 87.8722 126.322 87.6697C126.248 87.4688 126.198 87.2267 126.172 86.9434C126.128 86.4466 126.181 86.0517 126.33 85.7586C126.479 85.4655 126.715 85.2666 127.037 85.1619L127.188 85.6767C127.086 85.7124 126.996 85.7614 126.915 85.8237C126.835 85.886 126.768 85.9662 126.714 86.0643C126.662 86.1641 126.625 86.2845 126.603 86.4254C126.582 86.5663 126.579 86.7331 126.596 86.9257C126.611 87.0863 126.637 87.2325 126.675 87.3642C126.716 87.4958 126.768 87.6073 126.833 87.6986C126.899 87.7899 126.978 87.858 127.071 87.9031C127.167 87.9498 127.277 87.9676 127.402 87.9566C127.532 87.945 127.635 87.9054 127.711 87.8378C127.787 87.772 127.847 87.6829 127.89 87.5706C127.933 87.4582 127.966 87.3258 127.989 87.1734C128.012 87.021 128.036 86.8523 128.061 86.6673C128.076 86.5537 128.092 86.4389 128.111 86.3231C128.131 86.209 128.156 86.0982 128.187 85.9908C128.219 85.8851 128.259 85.7845 128.306 85.689C128.352 85.5935 128.411 85.5093 128.48 85.4365C128.552 85.3635 128.636 85.3037 128.733 85.257C128.832 85.2102 128.947 85.1809 129.079 85.1692C129.268 85.1524 129.433 85.1759 129.574 85.2395C129.717 85.3049 129.838 85.4018 129.937 85.5301C130.035 85.6583 130.113 85.8133 130.169 85.9949C130.225 86.1765 130.263 86.3749 130.282 86.5903C130.304 86.8377 130.303 87.051 130.279 87.2302C130.256 87.4092 130.212 87.5626 130.145 87.6904C130.078 87.8181 129.991 87.923 129.882 88.005C129.775 88.0887 129.648 88.159 129.501 88.2159L129.36 87.6915C129.454 87.6565 129.536 87.6102 129.607 87.5525C129.679 87.4966 129.736 87.4259 129.78 87.3401C129.824 87.2544 129.854 87.1518 129.87 87.0323C129.886 86.9147 129.887 86.7776 129.873 86.6208C129.857 86.4357 129.826 86.2814 129.781 86.1578C129.738 86.036 129.684 85.9389 129.621 85.8665C129.557 85.7959 129.485 85.7471 129.405 85.72C129.327 85.6946 129.243 85.6858 129.154 85.6937C129.035 85.7042 128.94 85.7422 128.867 85.8076C128.797 85.8748 128.741 85.9616 128.699 86.0681C128.657 86.1747 128.625 86.2965 128.603 86.4336C128.581 86.5708 128.56 86.7164 128.539 86.8705C128.522 86.9958 128.503 87.1202 128.484 87.2438C128.466 87.3691 128.441 87.4893 128.41 87.6044C128.38 87.7194 128.342 87.8275 128.296 87.9287C128.25 88.0317 128.19 88.1227 128.117 88.2015C128.044 88.2803 127.956 88.3443 127.852 88.3936C127.748 88.4447 127.623 88.4767 127.478 88.4896ZM128.326 93.1685C128.013 93.1602 127.73 93.1071 127.476 93.0092C127.223 92.9133 127.007 92.7776 126.83 92.6021C126.652 92.4266 126.518 92.2143 126.426 91.9653C126.334 91.7162 126.292 91.4353 126.3 91.1225C126.309 90.7927 126.368 90.5049 126.477 90.2594C126.588 90.0138 126.738 89.8111 126.926 89.6511C127.116 89.4911 127.339 89.3728 127.596 89.2962C127.852 89.2196 128.131 89.1853 128.432 89.1934C128.745 89.2018 129.026 89.2529 129.276 89.3469C129.526 89.4408 129.736 89.5745 129.908 89.7479C130.082 89.9214 130.213 90.1326 130.301 90.3816C130.391 90.6325 130.432 90.9182 130.423 91.2385C130.415 91.557 130.359 91.8381 130.255 92.082C130.152 92.3277 130.009 92.5316 129.826 92.6937C129.644 92.8576 129.425 92.9798 129.171 93.0603C128.916 93.1407 128.635 93.1768 128.326 93.1685ZM128.34 92.6141C128.581 92.6205 128.801 92.5951 129 92.5378C129.199 92.4824 129.37 92.3959 129.513 92.2784C129.657 92.1627 129.769 92.0168 129.849 91.8406C129.93 91.6645 129.973 91.4598 129.98 91.2267C129.986 90.9878 129.954 90.7773 129.883 90.5952C129.812 90.4131 129.708 90.2595 129.571 90.1344C129.434 90.0112 129.267 89.9167 129.072 89.8508C128.876 89.7867 128.658 89.7515 128.417 89.745C128.176 89.7386 127.955 89.763 127.752 89.8183C127.552 89.8755 127.377 89.9619 127.227 90.0774C127.08 90.1949 126.963 90.3416 126.877 90.5176C126.793 90.6956 126.747 90.9011 126.741 91.1343C126.734 91.3845 126.769 91.6008 126.846 91.783C126.923 91.9672 127.032 92.119 127.173 92.2385C127.315 92.3599 127.486 92.4508 127.686 92.5112C127.885 92.5734 128.103 92.6077 128.34 92.6141ZM125.928 95.4436C125.96 95.2259 126.019 95.0238 126.106 94.8372C126.193 94.6506 126.308 94.4922 126.452 94.3619C126.597 94.2337 126.77 94.1402 126.97 94.0814C127.173 94.0229 127.403 94.0127 127.662 94.0507L130.186 94.4212L130.108 94.9587L127.628 94.5948C127.427 94.5654 127.253 94.5666 127.104 94.5985C126.957 94.6325 126.833 94.6909 126.731 94.7736C126.629 94.8564 126.547 94.9595 126.487 95.0829C126.428 95.2084 126.388 95.349 126.365 95.5048C126.342 95.6586 126.342 95.8071 126.363 95.9501C126.384 96.0931 126.432 96.2228 126.507 96.3392C126.582 96.4556 126.687 96.5535 126.823 96.6329C126.961 96.7144 127.133 96.7704 127.342 96.801L129.784 97.1595L129.706 97.6942L127.232 97.3312C126.968 97.2924 126.744 97.2145 126.562 97.0977C126.382 96.983 126.239 96.8413 126.133 96.6725C126.028 96.5037 125.959 96.3134 125.926 96.1017C125.894 95.8918 125.895 95.6725 125.928 95.4436ZM124.823 100.764L126.699 100.186L127.02 98.9788L125.412 98.5511L125.551 98.026L129.424 99.0562L128.94 100.879C128.881 101.099 128.804 101.286 128.708 101.441C128.613 101.598 128.502 101.722 128.376 101.812C128.25 101.902 128.111 101.959 127.957 101.983C127.804 102.007 127.641 101.996 127.468 101.95C127.346 101.918 127.23 101.867 127.12 101.799C127.01 101.732 126.916 101.647 126.838 101.544C126.759 101.441 126.7 101.32 126.66 101.182C126.62 101.044 126.608 100.887 126.623 100.713L124.662 101.369L124.823 100.764ZM127.603 101.421C127.721 101.452 127.828 101.459 127.924 101.442C128.021 101.424 128.108 101.385 128.186 101.323C128.265 101.261 128.333 101.179 128.389 101.077C128.448 100.975 128.496 100.854 128.533 100.715L128.864 99.4694L127.435 99.0892L127.098 100.356C127.058 100.507 127.041 100.642 127.049 100.761C127.058 100.882 127.086 100.985 127.134 101.072C127.181 101.161 127.245 101.234 127.326 101.291C127.406 101.35 127.499 101.393 127.603 101.421ZM127.14 105.058C127.223 104.847 127.262 104.645 127.256 104.453C127.249 104.263 127.202 104.086 127.115 103.924C127.027 103.763 126.903 103.619 126.742 103.49C126.58 103.361 126.387 103.253 126.163 103.165C125.939 103.077 125.722 103.026 125.511 103.013C125.301 103.002 125.107 103.027 124.929 103.087C124.75 103.149 124.591 103.247 124.452 103.383C124.313 103.519 124.203 103.691 124.122 103.898C124.065 104.042 124.032 104.181 124.022 104.314C124.014 104.449 124.026 104.578 124.057 104.7C124.088 104.824 124.135 104.943 124.199 105.055C124.264 105.169 124.343 105.277 124.435 105.38L124.066 105.712C123.953 105.59 123.856 105.457 123.775 105.311C123.693 105.165 123.635 105.007 123.599 104.838C123.563 104.671 123.553 104.493 123.568 104.304C123.585 104.116 123.634 103.919 123.715 103.71C123.834 103.409 123.985 103.163 124.17 102.972C124.356 102.784 124.565 102.647 124.796 102.561C125.029 102.477 125.278 102.444 125.544 102.461C125.811 102.478 126.084 102.541 126.365 102.651C126.656 102.766 126.904 102.909 127.107 103.08C127.31 103.254 127.463 103.449 127.567 103.667C127.672 103.888 127.724 104.128 127.724 104.389C127.725 104.65 127.669 104.926 127.556 105.215C127.4 105.612 127.192 105.914 126.932 106.119C126.672 106.325 126.364 106.43 126.01 106.436L126.039 105.894C126.141 105.893 126.244 105.879 126.347 105.85C126.451 105.822 126.552 105.775 126.65 105.709C126.747 105.643 126.838 105.557 126.923 105.45C127.007 105.344 127.079 105.214 127.14 105.058ZM122.82 105.979L126.367 107.845L124.951 110.536L124.559 110.329L125.721 108.119L124.583 107.52L123.5 109.579L123.112 109.376L124.196 107.316L122.96 106.666L121.743 108.979L121.35 108.773L122.82 105.979ZM108.713 121.542L109.212 121.218L110.707 122.614C110.748 122.648 110.796 122.693 110.852 122.747C110.906 122.802 110.959 122.856 111.011 122.908C111.072 122.968 111.134 123.03 111.197 123.096C111.165 123.015 111.134 122.934 111.104 122.854C111.078 122.785 111.051 122.713 111.025 122.638C110.997 122.563 110.973 122.497 110.954 122.44L110.301 120.509L110.797 120.186L113.198 122.295L112.774 122.572L111.197 121.103C111.162 121.074 111.122 121.036 111.075 120.989C111.03 120.944 110.985 120.9 110.941 120.856C110.892 120.804 110.84 120.752 110.787 120.698C110.814 120.767 110.839 120.834 110.862 120.901C110.881 120.958 110.901 121.017 110.921 121.076C110.942 121.135 110.958 121.184 110.97 121.224L111.656 123.299L111.196 123.599L109.592 122.121C109.554 122.087 109.512 122.048 109.465 122.004C109.418 121.959 109.374 121.918 109.333 121.879C109.285 121.833 109.237 121.787 109.188 121.739C109.214 121.808 109.24 121.875 109.264 121.941C109.285 121.997 109.307 122.055 109.33 122.115C109.353 122.177 109.372 122.233 109.388 122.281L110.073 124.33L109.653 124.603L108.713 121.542ZM104.993 123.512L105.525 123.247L106.852 124.803C106.889 124.842 106.932 124.891 106.981 124.951C107.028 125.012 107.075 125.072 107.121 125.13C107.175 125.196 107.23 125.265 107.285 125.337C107.262 125.253 107.24 125.169 107.22 125.086C107.201 125.015 107.183 124.94 107.165 124.862C107.146 124.785 107.13 124.717 107.117 124.658L106.687 122.665L107.217 122.401L109.363 124.769L108.91 124.995L107.51 123.358C107.479 123.324 107.443 123.282 107.402 123.23C107.362 123.18 107.323 123.131 107.284 123.083C107.241 123.026 107.196 122.968 107.149 122.908C107.168 122.98 107.185 123.05 107.2 123.118C107.212 123.178 107.226 123.238 107.239 123.299C107.253 123.36 107.264 123.411 107.271 123.452L107.717 125.591L107.226 125.837L105.8 124.187C105.766 124.149 105.729 124.105 105.687 124.056C105.646 124.006 105.607 123.96 105.57 123.917C105.528 123.866 105.485 123.814 105.442 123.762C105.46 123.833 105.478 123.903 105.495 123.97C105.51 124.029 105.525 124.089 105.541 124.151C105.556 124.216 105.569 124.273 105.579 124.323L106.028 126.436L105.58 126.66L104.993 123.512ZM101.074 125.051L101.632 124.845L102.78 126.538C102.812 126.581 102.849 126.635 102.892 126.7C102.932 126.766 102.972 126.83 103.011 126.893C103.058 126.964 103.104 127.039 103.151 127.117C103.138 127.031 103.126 126.945 103.114 126.861C103.104 126.788 103.094 126.711 103.085 126.632C103.074 126.553 103.065 126.483 103.059 126.423L102.851 124.396L103.406 124.191L105.28 126.781L104.805 126.956L103.593 125.174C103.566 125.138 103.534 125.092 103.5 125.036C103.466 124.982 103.432 124.929 103.398 124.876C103.362 124.815 103.323 124.752 103.284 124.688C103.294 124.761 103.303 124.832 103.311 124.902C103.317 124.963 103.324 125.024 103.33 125.086C103.337 125.148 103.342 125.2 103.345 125.241L103.553 127.417L103.038 127.607L101.803 125.81C101.773 125.769 101.74 125.721 101.704 125.668C101.668 125.614 101.635 125.564 101.603 125.517C101.567 125.462 101.53 125.405 101.493 125.348C101.503 125.421 101.514 125.492 101.523 125.562C101.531 125.621 101.539 125.683 101.548 125.746C101.557 125.812 101.563 125.87 101.568 125.921L101.781 128.071L101.311 128.244L101.074 125.051ZM100.03 125.347L100.201 125.947L99.6674 126.099L99.4965 125.5L100.03 125.347ZM96.8135 126.644C96.865 126.431 96.9588 126.266 97.0948 126.15C97.229 126.034 97.4093 125.952 97.6355 125.904C98.0157 125.822 98.323 125.89 98.5576 126.108C98.7904 126.325 98.9622 126.694 99.0733 127.213C99.2979 128.263 99.0412 128.866 98.3031 129.024C98.0751 129.073 97.8762 129.072 97.7063 129.021C97.5364 128.97 97.3855 128.864 97.2539 128.702L97.2484 128.703C97.2523 128.722 97.2594 128.75 97.2695 128.789C97.2783 128.83 97.2883 128.871 97.2993 128.913C97.3088 128.958 97.3177 129 97.326 129.039C97.3343 129.078 97.3401 129.105 97.3437 129.122L97.5932 130.287L97.0925 130.395L96.342 126.887C96.3265 126.815 96.3117 126.745 96.2974 126.679C96.2812 126.612 96.2663 126.551 96.2525 126.496C96.2388 126.441 96.2267 126.393 96.2161 126.353C96.2059 126.314 96.198 126.287 96.1926 126.27L96.671 126.168C96.6787 126.186 96.688 126.211 96.6989 126.244C96.7082 126.278 96.7196 126.318 96.7328 126.361C96.7442 126.405 96.7559 126.451 96.7681 126.499C96.7806 126.549 96.7921 126.598 96.8024 126.646L96.8135 126.644ZM98.5513 127.342C98.5068 127.135 98.4558 126.959 98.3981 126.817C98.3404 126.674 98.2723 126.56 98.1942 126.476C98.1166 126.394 98.0284 126.34 97.9299 126.315C97.8313 126.289 97.7181 126.29 97.5902 126.318C97.4585 126.346 97.3472 126.392 97.2562 126.456C97.1633 126.52 97.0936 126.607 97.0471 126.716C96.9991 126.827 96.9741 126.963 96.9718 127.125C96.9695 127.286 96.9921 127.478 97.0397 127.701C97.0853 127.914 97.1415 128.09 97.2081 128.229C97.2751 128.37 97.3526 128.478 97.4406 128.554C97.5287 128.631 97.6269 128.678 97.7353 128.695C97.8423 128.715 97.9607 128.711 98.0905 128.683C98.2129 128.657 98.314 128.613 98.3939 128.551C98.4738 128.489 98.5334 128.405 98.5724 128.298C98.6116 128.19 98.6297 128.058 98.6268 127.899C98.6224 127.743 98.5973 127.557 98.5513 127.342ZM95.9826 130.068L96.0549 130.552L95.5485 130.628L95.4762 130.144L95.9826 130.068ZM95.431 126.377L95.8859 129.421L95.3795 129.497L94.9246 126.453L95.431 126.377ZM92.8796 125.471C93.0554 125.456 93.2127 125.46 93.3518 125.485C93.491 125.509 93.6117 125.551 93.7138 125.61C93.8159 125.668 93.9012 125.741 93.9696 125.828C94.0381 125.916 94.0903 126.015 94.1266 126.126L93.62 126.244C93.5738 126.105 93.4898 126.003 93.368 125.937C93.2442 125.87 93.0878 125.844 92.8988 125.861C92.7836 125.871 92.6802 125.896 92.5885 125.936C92.4968 125.976 92.4211 126.035 92.3612 126.112C92.301 126.188 92.2578 126.284 92.2316 126.401C92.2056 126.517 92.1995 126.656 92.2135 126.819L92.2561 127.312L92.2618 127.312C92.2929 127.231 92.3335 127.152 92.384 127.075C92.4328 127.001 92.4956 126.933 92.5721 126.871C92.6467 126.809 92.7353 126.757 92.8382 126.714C92.9412 126.672 93.0609 126.646 93.197 126.634C93.3916 126.618 93.5615 126.635 93.7068 126.687C93.8504 126.742 93.9722 126.83 94.0722 126.953C94.1704 127.076 94.2485 127.232 94.3067 127.421C94.3631 127.612 94.4024 127.835 94.4243 128.09C94.4455 128.336 94.4448 128.559 94.422 128.758C94.3974 128.959 94.3456 129.13 94.2666 129.274C94.1859 129.42 94.0759 129.535 93.9366 129.62C93.7956 129.706 93.6203 129.758 93.4106 129.776C93.1933 129.795 93.001 129.761 92.8336 129.675C92.6645 129.59 92.5287 129.46 92.426 129.285L92.4205 129.285C92.4245 129.332 92.428 129.385 92.4312 129.444C92.4324 129.503 92.4344 129.558 92.4369 129.609C92.4377 129.662 92.4378 129.708 92.4373 129.746C92.4367 129.784 92.4348 129.806 92.4315 129.812L91.9469 129.854C91.9473 129.837 91.9466 129.807 91.945 129.766C91.9434 129.726 91.9413 129.677 91.9383 129.621C91.9353 129.564 91.9318 129.5 91.9276 129.43C91.9218 129.362 91.9155 129.291 91.9091 129.218L91.7073 126.874C91.6704 126.445 91.7483 126.114 91.9414 125.88C92.1324 125.645 92.445 125.509 92.8796 125.471ZM92.339 128.276C92.3575 128.489 92.3968 128.669 92.4571 128.816C92.5156 128.966 92.5868 129.085 92.6707 129.175C92.7545 129.265 92.8476 129.328 92.9498 129.365C93.05 129.402 93.1511 129.416 93.253 129.407C93.3834 129.396 93.494 129.364 93.5845 129.31C93.6732 129.257 93.7444 129.178 93.7983 129.075C93.8505 128.973 93.885 128.845 93.9021 128.689C93.9174 128.535 93.916 128.353 93.8977 128.141C93.8787 127.92 93.8485 127.735 93.8071 127.587C93.7641 127.44 93.7083 127.323 93.6398 127.236C93.5714 127.148 93.4892 127.089 93.3932 127.057C93.2972 127.025 93.1849 127.015 93.0564 127.026C92.9544 127.035 92.8572 127.065 92.7646 127.117C92.6701 127.169 92.5882 127.245 92.5189 127.347C92.4496 127.448 92.3976 127.575 92.3633 127.728C92.3289 127.882 92.3208 128.064 92.339 128.276ZM91.0024 130.53L91.014 131.019L90.5023 131.031L90.4906 130.542L91.0024 130.53ZM90.9137 126.799L90.9869 129.876L90.475 129.888L90.4019 126.811L90.9137 126.799ZM87.6862 126.766L88.6792 128.205L89.0651 127.908L89.1019 126.813L89.6136 126.831L89.4711 131.049L88.9594 131.032L89.0485 128.397L87.6477 129.844L87.0479 129.823L88.3405 128.544L87.0864 126.745L87.6862 126.766ZM85.9298 126.558C86.2367 126.594 86.4578 126.702 86.5931 126.882C86.7285 127.062 86.7793 127.294 86.7459 127.576C86.7221 127.778 86.6651 127.938 86.5746 128.057C86.4821 128.178 86.3702 128.268 86.2391 128.327C86.1062 128.386 85.959 128.42 85.7974 128.429C85.6359 128.439 85.473 128.436 85.3087 128.42L84.6209 128.351L84.6013 128.517C84.5864 128.644 84.5868 128.752 84.6026 128.844C84.6186 128.936 84.6506 129.012 84.6988 129.073C84.747 129.134 84.811 129.182 84.891 129.216C84.9688 129.252 85.0634 129.277 85.1745 129.29C85.2723 129.301 85.3618 129.304 85.4426 129.298C85.5233 129.295 85.5952 129.277 85.658 129.247C85.7205 129.218 85.7735 129.173 85.8169 129.113C85.86 129.056 85.8928 128.979 85.9155 128.885L86.4409 128.995C86.4078 129.114 86.359 129.22 86.2945 129.313C86.2297 129.409 86.1452 129.487 86.0404 129.549C85.9338 129.611 85.8056 129.653 85.6559 129.676C85.5041 129.7 85.3246 129.7 85.1174 129.675C84.7333 129.63 84.4547 129.507 84.2816 129.307C84.1083 129.109 84.0414 128.844 84.0808 128.51L84.2362 127.194C84.254 127.043 84.2478 126.927 84.2174 126.845C84.1867 126.765 84.1159 126.719 84.0047 126.705C83.9765 126.702 83.9479 126.701 83.9192 126.701C83.8906 126.701 83.8627 126.703 83.8357 126.705L83.8731 126.389C83.9389 126.382 84.0042 126.378 84.0691 126.378C84.1321 126.378 84.1996 126.382 84.2711 126.39C84.3672 126.402 84.4485 126.424 84.5153 126.456C84.58 126.491 84.631 126.536 84.6682 126.592C84.7054 126.65 84.7307 126.718 84.7444 126.796C84.7579 126.876 84.7616 126.967 84.7552 127.069L84.772 127.071C84.8382 126.98 84.909 126.898 84.9843 126.827C85.0577 126.755 85.141 126.696 85.2343 126.65C85.3274 126.606 85.4312 126.575 85.5458 126.558C85.6586 126.541 85.7866 126.541 85.9298 126.558ZM85.769 126.925C85.607 126.906 85.4623 126.919 85.3349 126.963C85.2053 127.009 85.0955 127.073 85.0055 127.156C84.9136 127.239 84.8414 127.332 84.789 127.437C84.7365 127.541 84.7045 127.644 84.6927 127.743L84.6629 127.995L85.2208 128.049C85.3453 128.062 85.4652 128.067 85.5802 128.063C85.693 128.061 85.7944 128.042 85.8848 128.004C85.9751 127.967 86.0507 127.909 86.1115 127.831C86.1705 127.752 86.2082 127.644 86.2245 127.506C86.244 127.34 86.2149 127.207 86.1371 127.106C86.0574 127.005 85.9347 126.945 85.769 126.925ZM81.7323 125.922L81.2922 127.823C81.2584 127.969 81.2394 128.093 81.2352 128.195C81.2311 128.297 81.2443 128.383 81.2749 128.452C81.3033 128.523 81.3497 128.579 81.4143 128.619C81.4785 128.661 81.5614 128.694 81.663 128.718C81.7683 128.742 81.8685 128.743 81.9632 128.72C82.0577 128.699 82.1447 128.656 82.224 128.59C82.3011 128.527 82.3696 128.44 82.4298 128.332C82.4878 128.224 82.5341 128.096 82.5688 127.946L82.9711 126.209L83.4672 126.324L82.9209 128.682C82.9064 128.745 82.8922 128.81 82.8782 128.879C82.8619 128.949 82.8477 129.015 82.8355 129.077C82.8227 129.14 82.8123 129.194 82.8038 129.239C82.7955 129.283 82.7906 129.312 82.7895 129.326L82.3184 129.217C82.3187 129.207 82.3226 129.182 82.3302 129.141C82.3377 129.1 82.3467 129.052 82.3573 128.998C82.3656 128.945 82.3753 128.891 82.3863 128.835C82.3968 128.781 82.4063 128.736 82.4149 128.699L82.4065 128.697C82.3421 128.774 82.276 128.841 82.208 128.899C82.14 128.957 82.0662 129.003 81.9867 129.035C81.905 129.068 81.8168 129.088 81.7222 129.093C81.6252 129.1 81.5176 129.09 81.3994 129.062C81.1722 129.01 81.0034 128.923 80.8932 128.802C80.7812 128.681 80.7222 128.515 80.7162 128.306L80.7078 128.304C80.6434 128.38 80.5755 128.447 80.5037 128.505C80.4321 128.562 80.3536 128.606 80.2686 128.637C80.1832 128.67 80.0913 128.688 79.993 128.693C79.8942 128.699 79.7856 128.689 79.6674 128.661C79.5158 128.626 79.3905 128.576 79.2909 128.51C79.1895 128.444 79.1133 128.36 79.0627 128.259C79.0123 128.157 78.986 128.035 78.984 127.893C78.9815 127.752 79.0016 127.589 79.0444 127.405L79.5072 125.407L80.0004 125.521L79.5602 127.422C79.5263 127.568 79.5074 127.692 79.5031 127.794C79.499 127.896 79.5122 127.982 79.5428 128.051C79.5712 128.122 79.6178 128.178 79.6824 128.218C79.7467 128.26 79.8295 128.293 79.9312 128.317C80.0365 128.341 80.1362 128.343 80.2306 128.322C80.3246 128.303 80.411 128.261 80.49 128.198C80.567 128.134 80.6358 128.048 80.696 127.939C80.7544 127.83 80.8012 127.699 80.8368 127.545L81.2392 125.808L81.7323 125.922ZM78.6389 125.085L78.4457 125.677L77.9183 125.505L78.1115 124.913L78.6389 125.085ZM74.2448 125.09C74.4452 124.59 74.7043 124.262 75.0224 124.106C75.3405 123.949 75.709 123.955 76.1279 124.123C76.3268 124.202 76.4926 124.304 76.6253 124.426C76.758 124.549 76.8542 124.694 76.9139 124.861C76.9719 125.027 76.9929 125.214 76.9769 125.422C76.9584 125.631 76.8989 125.862 76.798 126.113C76.4029 127.099 75.7785 127.421 74.9247 127.079C74.703 126.99 74.5243 126.882 74.3888 126.757C74.2515 126.63 74.1566 126.485 74.1038 126.321C74.0494 126.156 74.0345 125.971 74.0594 125.767C74.0841 125.562 74.146 125.337 74.2448 125.09ZM74.7437 125.29C74.6548 125.512 74.5991 125.702 74.5765 125.86C74.552 126.018 74.556 126.154 74.5883 126.267C74.6189 126.379 74.6751 126.471 74.7567 126.542C74.8376 126.616 74.9378 126.676 75.0575 126.724C75.1789 126.773 75.2963 126.799 75.4098 126.801C75.5206 126.805 75.6281 126.776 75.7321 126.716C75.8353 126.657 75.9343 126.563 76.0291 126.434C76.1221 126.303 76.212 126.13 76.2988 125.913C76.3877 125.692 76.4422 125.5 76.4621 125.338C76.4812 125.179 76.4745 125.042 76.4422 124.929C76.4081 124.815 76.3524 124.722 76.275 124.651C76.1957 124.578 76.1016 124.52 75.9925 124.476C75.8711 124.427 75.7544 124.4 75.6425 124.394C75.5297 124.39 75.4217 124.417 75.3184 124.475C75.2152 124.534 75.116 124.629 75.0205 124.761C74.9249 124.892 74.8326 125.068 74.7437 125.29ZM74.2335 123.369L73.2028 125.493C73.1747 125.551 73.1471 125.611 73.1198 125.671C73.0901 125.733 73.0623 125.792 73.0367 125.849C73.0111 125.906 72.987 125.96 72.9648 126.01C72.9424 126.061 72.9227 126.106 72.9054 126.146L72.4704 125.935C72.4877 125.895 72.5079 125.849 72.531 125.797C72.5516 125.745 72.5739 125.693 72.5978 125.639C72.62 125.585 72.6432 125.533 72.6672 125.483C72.6887 125.435 72.7078 125.393 72.7242 125.359L72.7139 125.354C72.6303 125.444 72.5518 125.519 72.4788 125.578C72.4031 125.639 72.3287 125.682 72.2552 125.707C72.1809 125.734 72.1037 125.743 72.0239 125.734C71.9432 125.726 71.8543 125.699 71.757 125.652C71.7195 125.634 71.6855 125.613 71.6546 125.589C71.623 125.568 71.599 125.55 71.5827 125.536L71.7875 125.113C71.8141 125.137 71.847 125.16 71.8863 125.183C71.9249 125.208 71.9696 125.233 72.0208 125.258C72.1266 125.309 72.2287 125.329 72.3269 125.318C72.4234 125.306 72.5163 125.269 72.6054 125.207C72.6921 125.145 72.775 125.061 72.8543 124.954C72.9328 124.849 73.0055 124.727 73.0725 124.589L73.7729 123.146L74.2335 123.369ZM72.0872 120.891C72.24 120.979 72.3666 121.072 72.4669 121.172C72.5673 121.271 72.6422 121.374 72.692 121.482C72.7427 121.588 72.7712 121.696 72.7775 121.807C72.7836 121.918 72.7699 122.029 72.7361 122.141L72.2531 121.948C72.2945 121.808 72.2839 121.676 72.2215 121.552C72.1584 121.426 72.0447 121.316 71.8804 121.221C71.7802 121.164 71.6809 121.125 71.5827 121.106C71.4844 121.086 71.3886 121.091 71.2951 121.121C71.2026 121.148 71.1123 121.202 71.0242 121.283C70.9363 121.364 70.8516 121.475 70.7702 121.616L70.5233 122.045L70.5281 122.048C70.5998 121.999 70.6784 121.958 70.7637 121.924C70.8463 121.891 70.9367 121.87 71.0347 121.863C71.1312 121.856 71.234 121.863 71.3429 121.887C71.4511 121.912 71.5643 121.958 71.6826 122.026C71.8519 122.124 71.9813 122.236 72.0708 122.362C72.1576 122.488 72.2069 122.63 72.2188 122.788C72.2291 122.945 72.2042 123.118 72.1438 123.306C72.0809 123.495 71.9855 123.701 71.8577 123.923C71.7348 124.136 71.6068 124.319 71.4738 124.47C71.3393 124.62 71.1983 124.731 71.0513 124.804C70.9017 124.878 70.7457 124.909 70.5832 124.899C70.4182 124.889 70.2444 124.832 70.062 124.727C69.873 124.618 69.7346 124.48 69.6467 124.314C69.5563 124.148 69.5191 123.963 69.5353 123.76L69.5304 123.758C69.5067 123.799 69.4793 123.844 69.4484 123.894C69.4157 123.943 69.3859 123.99 69.3587 124.033C69.329 124.077 69.3029 124.115 69.2807 124.146C69.2585 124.177 69.2443 124.194 69.2382 124.197L68.8167 123.954C68.8269 123.94 68.8432 123.916 68.8657 123.88C68.8872 123.847 68.9128 123.806 68.9429 123.757C68.9729 123.709 69.0062 123.655 69.0429 123.595C69.0769 123.536 69.1125 123.474 69.1495 123.41L70.3233 121.372C70.538 120.999 70.7914 120.771 71.0833 120.69C71.3746 120.606 71.7092 120.673 72.0872 120.891ZM70.0406 122.883C69.9336 123.069 69.8629 123.239 69.8283 123.394C69.7911 123.55 69.7813 123.689 69.7987 123.81C69.8162 123.932 69.8562 124.037 69.9189 124.126C69.98 124.214 70.055 124.283 70.1438 124.334C70.2572 124.399 70.3662 124.436 70.4711 124.444C70.5743 124.451 70.6778 124.427 70.7812 124.373C70.8821 124.319 70.9838 124.234 71.0868 124.116C71.1871 123.998 71.2904 123.848 71.3963 123.664C71.5071 123.471 71.5879 123.302 71.639 123.157C71.6875 123.012 71.7086 122.884 71.7025 122.773C71.6962 122.662 71.6628 122.566 71.6021 122.486C71.5415 122.405 71.4552 122.332 71.3435 122.268C71.2548 122.217 71.1576 122.186 71.0521 122.175C70.9449 122.164 70.8337 122.18 70.719 122.223C70.6044 122.267 70.4893 122.341 70.3734 122.448C70.2576 122.554 70.1466 122.699 70.0406 122.883Z" fill="white"/>
<g opacity="0.3" filter="url(#filter5_f_766_948)">
<path d="M136.201 90.539C136.201 116.204 115.334 137.034 89.6239 137.034C63.9134 137.034 43.0469 116.204 43.0469 90.539C43.0469 64.874 63.9134 44.0444 89.6239 44.0444C115.334 44.0444 136.201 64.874 136.201 90.539Z" stroke="white" stroke-width="0.554214" stroke-linecap="round" stroke-linejoin="round"/>
</g>
<path opacity="0.6" fill-rule="evenodd" clip-rule="evenodd" d="M123.021 87.8323C121.958 69.6418 106.332 55.7408 88.1419 56.8034C69.9514 57.8659 56.0505 73.4915 57.113 91.682C58.1755 109.872 73.8011 123.773 91.9916 122.711C110.182 121.648 124.083 106.023 123.021 87.8323Z" fill="url(#paint8_radial_766_948)"/>
<defs>
<filter id="filter0_f_766_948" x="40.2404" y="40.6886" width="98.9871" height="98.9871" filterUnits="userSpaceOnUse" color-interpolation-filters="sRGB">
<feFlood flood-opacity="0" result="BackgroundImageFix"/>
<feBlend mode="normal" in="SourceGraphic" in2="BackgroundImageFix" result="shape"/>
<feGaussianBlur stdDeviation="1.20502" result="effect1_foregroundBlur_766_948"/>
</filter>
<filter id="filter1_f_766_948" x="45.454" y="45.7433" width="88.8027" height="88.8027" filterUnits="userSpaceOnUse" color-interpolation-filters="sRGB">
<feFlood flood-opacity="0" result="BackgroundImageFix"/>
<feBlend mode="normal" in="SourceGraphic" in2="BackgroundImageFix" result="shape"/>
<feGaussianBlur stdDeviation="0.553155" result="effect1_foregroundBlur_766_948"/>
</filter>
<filter id="filter2_f_766_948" x="53.7307" y="54.0198" width="72.2495" height="72.2495" filterUnits="userSpaceOnUse" color-interpolation-filters="sRGB">
<feFlood flood-opacity="0" result="BackgroundImageFix"/>
<feBlend mode="normal" in="SourceGraphic" in2="BackgroundImageFix" result="shape"/>
<feGaussianBlur stdDeviation="0.449834" result="effect1_foregroundBlur_766_948"/>
</filter>
<filter id="filter3_f_766_948" x="62.767" y="62.5719" width="54.5995" height="54.5998" filterUnits="userSpaceOnUse" color-interpolation-filters="sRGB">
<feFlood flood-opacity="0" result="BackgroundImageFix"/>
<feBlend mode="normal" in="SourceGraphic" in2="BackgroundImageFix" result="shape"/>
<feGaussianBlur stdDeviation="0.339523" result="effect1_foregroundBlur_766_948"/>
</filter>
<filter id="filter4_f_766_948" x="67.7963" y="68.0853" width="44.1182" height="44.1182" filterUnits="userSpaceOnUse" color-interpolation-filters="sRGB">
<feFlood flood-opacity="0" result="BackgroundImageFix"/>
<feBlend mode="normal" in="SourceGraphic" in2="BackgroundImageFix" result="shape"/>
<feGaussianBlur stdDeviation="0.267519" result="effect1_foregroundBlur_766_948"/>
</filter>
<filter id="filter5_f_766_948" x="41.5729" y="42.5705" width="96.102" height="95.9372" filterUnits="userSpaceOnUse" color-interpolation-filters="sRGB">
<feFlood flood-opacity="0" result="BackgroundImageFix"/>
<feBlend mode="normal" in="SourceGraphic" in2="BackgroundImageFix" result="shape"/>
<feGaussianBlur stdDeviation="0.598429" result="effect1_foregroundBlur_766_948"/>
</filter>
<radialGradient id="paint0_radial_766_948" cx="0" cy="0" r="1" gradientUnits="userSpaceOnUse" gradientTransform="translate(90.1474 91.6043) rotate(71.2639) scale(53.9717 42.4775)">
<stop/>
<stop offset="0.5" stop-color="#666666"/>
<stop offset="1" stop-color="#7F7F7F" stop-opacity="0"/>
</radialGradient>
<linearGradient id="paint1_linear_766_948" x1="91.2658" y1="121.591" x2="92.1023" y2="53.133" gradientUnits="userSpaceOnUse">
<stop/>
<stop offset="1" stop-opacity="0"/>
</linearGradient>
<radialGradient id="paint2_radial_766_948" cx="0" cy="0" r="1" gradientUnits="userSpaceOnUse" gradientTransform="translate(89.8556 90.1444) rotate(-79.3694) scale(108.293 53.9682)">
<stop stop-color="#AFB5BA" stop-opacity="0.960784"/>
<stop offset="1" stop-opacity="0.960784"/>
</radialGradient>
<linearGradient id="paint3_linear_766_948" x1="89.6191" y1="86.4845" x2="89.6191" y2="99.4372" gradientUnits="userSpaceOnUse">
<stop stop-color="white" stop-opacity="0"/>
<stop offset="1" stop-color="#C8C8C8"/>
</linearGradient>
<linearGradient id="paint4_linear_766_948" x1="89.0467" y1="110.577" x2="89.2673" y2="71.5279" gradientUnits="userSpaceOnUse">
<stop stop-color="#1A1A1A"/>
<stop offset="1" stop-color="#5C5C5C"/>
</linearGradient>
<linearGradient id="paint5_linear_766_948" x1="91.9716" y1="110.618" x2="93.6431" y2="69.1223" gradientUnits="userSpaceOnUse">
<stop stop-color="#1A1A1A"/>
<stop offset="1" stop-color="#CCCCCC" stop-opacity="0"/>
</linearGradient>
<radialGradient id="paint6_radial_766_948" cx="0" cy="0" r="1" gradientUnits="userSpaceOnUse" gradientTransform="translate(89.8549 89.87) scale(20.7477 20.7477)">
<stop stop-color="white"/>
<stop offset="1" stop-opacity="0"/>
</radialGradient>
<radialGradient id="paint7_radial_766_948" cx="0" cy="0" r="1" gradientUnits="userSpaceOnUse" gradientTransform="translate(75.4607 72.6111) rotate(-42.9017) scale(33.0099 74.5288)">
<stop stop-color="white"/>
<stop offset="0.5" stop-color="#7FCCFF" stop-opacity="0.415254"/>
<stop offset="1" stop-color="#009AFF" stop-opacity="0"/>
</radialGradient>
<radialGradient id="paint8_radial_766_948" cx="0" cy="0" r="1" gradientUnits="userSpaceOnUse" gradientTransform="translate(107.213 75.1511) rotate(47.0983) scale(33.0099 74.5288)">
<stop stop-color="white"/>
<stop offset="0.5" stop-color="#7FCCFF" stop-opacity="0.415254"/>
<stop offset="1" stop-color="#009AFF" stop-opacity="0"/>
</radialGradient>
</defs>
</svg>
