<svg width="180" height="180" viewBox="0 0 180 180" fill="none" xmlns="http://www.w3.org/2000/svg">
<rect width="180" height="180" fill="#073042" fill-opacity="0.25"/>
<rect x="1" y="1" width="178" height="178" stroke="white" stroke-opacity="0.05" stroke-width="2"/>
<path d="M132.308 43.8462H47.6923C43.444 43.8462 40 47.2902 40 51.5385V132.308C40 136.556 43.444 140 47.6923 140H132.308C136.556 140 140 136.556 140 132.308V51.5385C140 47.2902 136.556 43.8462 132.308 43.8462Z" fill="url(#paint0_linear_766_831)"/>
<path d="M132.308 40H47.6923C43.444 40 40 43.444 40 47.6923V128.462C40 132.71 43.444 136.154 47.6923 136.154H132.308C136.556 136.154 140 132.71 140 128.462V47.6923C140 43.444 136.556 40 132.308 40Z" fill="#3D3846"/>
<g filter="url(#filter0_d_766_831)">
<path d="M90 53.4614H102.5C109.404 53.4614 115 59.0579 115 65.9614C115 72.865 109.404 78.4614 102.5 78.4614H90V53.4614Z" fill="#FC7266"/>
<path d="M65 65.9614C65 59.0579 70.5964 53.4614 77.5 53.4614H90V78.4614H77.5C70.5964 78.4614 65 72.865 65 65.9614Z" fill="#EF502F"/>
<path d="M65 90.9614C65 84.0579 70.5964 78.4614 77.5 78.4614H90V103.461H77.5C70.5964 103.461 65 97.865 65 90.9614Z" fill="#A15BFC"/>
<path d="M65 115.961C65 109.058 70.5964 103.461 77.5 103.461H90V115.961C90 122.865 84.4036 128.461 77.5 128.461C70.5964 128.461 65 122.865 65 115.961Z" fill="#27CD84"/>
<mask id="mask0_766_831" style="mask-type:alpha" maskUnits="userSpaceOnUse" x="90" y="78" width="25" height="26">
<path d="M102.5 103.461C109.404 103.461 115 97.865 115 90.9614C115 84.0579 109.404 78.4614 102.5 78.4614C95.5964 78.4614 90 84.0579 90 90.9614C90 97.865 95.5964 103.461 102.5 103.461Z" fill="white"/>
</mask>
<g mask="url(#mask0_766_831)">
<path d="M102.5 103.461C109.404 103.461 115 97.865 115 90.9614C115 84.0579 109.404 78.4614 102.5 78.4614C95.5964 78.4614 90 84.0579 90 90.9614C90 97.865 95.5964 103.461 102.5 103.461Z" fill="#34BBFB"/>
<path d="M129.01 126.291L129.009 126.289C128.576 125.8 128.369 124.894 128.147 123.928C127.926 122.963 127.678 121.922 126.885 121.247L126.881 121.243C126.724 121.106 126.562 120.99 126.4 120.894C126.237 120.797 126.073 120.719 125.908 120.657C127.01 117.39 126.578 114.137 125.465 111.198C124.101 107.59 121.719 104.447 119.899 102.297C117.862 99.7276 115.871 97.2889 115.91 93.6867C115.971 88.1892 116.515 77.9943 106.84 77.9807C106.447 77.9801 106.036 77.9965 105.609 78.0307C94.7977 78.9009 97.6654 90.3229 97.5047 94.1472C97.307 96.9441 96.7402 99.1486 94.8162 101.883C92.5568 104.57 89.3744 108.919 87.8674 113.448C87.1564 115.584 86.818 117.762 87.13 119.824C87.0322 119.912 86.9394 120.004 86.8502 120.098C86.1869 120.807 85.6965 121.665 85.1504 122.242C84.64 122.752 83.9132 122.946 83.1137 123.232C82.3142 123.519 81.4368 123.941 80.9042 124.963L80.9035 124.964C80.9029 124.966 80.9007 124.969 80.9007 124.969C80.6501 125.436 80.5687 125.941 80.5687 126.454C80.5687 126.927 80.6387 127.407 80.7094 127.868C80.8564 128.83 81.0057 129.738 80.8079 130.354C80.1754 132.084 80.094 133.279 80.5395 134.147C80.9863 135.016 81.9037 135.4 82.9409 135.617C85.0155 136.05 87.8246 135.942 90.0382 137.116L90.2289 136.757L90.0405 137.116C92.4105 138.356 94.8134 138.796 96.7302 138.359C98.1207 138.041 99.2487 137.213 99.8283 135.939C101.327 135.933 102.973 135.297 105.609 135.152C107.397 135.008 109.631 135.787 112.2 135.645C112.267 135.923 112.364 136.191 112.497 136.446C112.498 136.448 112.5 136.451 112.501 136.454C113.497 138.445 115.347 139.356 117.32 139.201C119.294 139.045 121.394 137.881 123.092 135.862L122.78 135.6L123.094 135.859C124.711 133.896 127.396 133.084 129.178 132.01C130.067 131.473 130.789 130.801 130.846 129.824C130.901 128.848 130.328 127.754 129.01 126.291Z" fill="#1891CA"/>
<path d="M111.082 94.5205C110.894 94.1528 110.511 93.803 109.858 93.5353L109.857 93.5346L109.855 93.5339C108.498 92.9528 107.909 92.9114 107.151 92.4189C105.918 91.6265 104.9 91.3488 104.053 91.3523C103.61 91.3538 103.213 91.4322 102.859 91.555C101.827 91.9098 101.142 92.6501 100.713 93.0563L100.713 93.057L100.712 93.0585C100.628 93.1384 100.519 93.2113 100.257 93.404C99.9917 93.5974 99.5949 93.8887 99.0237 94.317C98.5161 94.6975 98.3512 95.1929 98.5269 95.7733C98.7018 96.3537 99.2614 97.0233 100.285 97.6022L100.287 97.6037L100.289 97.6044C100.924 97.9778 101.358 98.4811 101.856 98.8816C102.106 99.0815 102.368 99.2599 102.683 99.3948C102.999 99.5297 103.367 99.6211 103.828 99.6483C104.91 99.7111 105.707 99.3863 106.41 98.9836C107.115 98.5818 107.712 98.0898 108.396 97.8678L108.398 97.8671L108.399 97.8664C109.803 97.4281 110.803 96.545 111.117 95.7063C111.274 95.2865 111.269 94.8881 111.082 94.5205Z" fill="#34BBFB"/>
<path d="M107.521 96.5923C106.404 97.1743 105.1 97.8802 103.712 97.8802C102.325 97.8802 101.23 97.2391 100.441 96.6144C100.047 96.3025 99.7276 95.9919 99.4863 95.7664C99.0676 95.436 99.1178 94.9724 99.2898 94.9862C99.5781 95.0221 99.6217 95.4017 99.8032 95.5714C100.049 95.8014 100.356 96.099 100.729 96.3946C101.474 96.985 102.468 97.5596 103.712 97.5596C104.955 97.5596 106.405 96.8304 107.29 96.3339C107.791 96.0526 108.429 95.5485 108.95 95.1662C109.348 94.8738 109.334 94.5216 109.663 94.56C109.992 94.5983 109.748 94.9497 109.288 95.3517C108.827 95.7538 108.106 96.2872 107.521 96.5923Z" fill="#1891CA"/>
<path d="M124.618 120.419C124.464 120.413 124.311 120.414 124.162 120.417C124.149 120.418 124.135 120.418 124.121 120.418C124.504 119.207 123.656 118.314 121.396 117.292C119.052 116.261 117.185 116.363 116.869 118.455C116.849 118.564 116.833 118.676 116.821 118.789C116.645 118.85 116.47 118.927 116.293 119.024C115.193 119.626 114.592 120.718 114.257 122.059C113.924 123.398 113.828 125.016 113.736 126.837C113.68 127.751 113.303 128.991 112.922 130.301C109.083 133.041 103.754 134.226 99.2296 131.139C98.9233 130.654 98.5714 130.173 98.2095 129.699C97.9782 129.396 97.7404 129.096 97.5049 128.799C97.9689 128.8 98.3637 128.723 98.6828 128.579C99.0797 128.398 99.3581 128.11 99.4966 127.739C99.7722 126.997 99.4952 125.95 98.6121 124.755C97.729 123.56 96.2335 122.211 94.0362 120.863C92.4214 119.859 91.519 118.628 91.0964 117.291C90.6731 115.954 90.7324 114.509 91.0586 113.082C91.6839 110.342 93.2902 107.678 94.3153 106.006C94.5908 105.804 94.4138 106.383 93.2774 108.493C92.2593 110.422 90.3554 114.874 92.9618 118.349C93.0318 115.876 93.6221 113.354 94.6137 110.995C96.0579 107.722 99.0782 102.044 99.3181 97.5197C99.4424 97.6097 99.8671 97.8967 100.056 98.0045C100.057 98.0052 100.057 98.0052 100.058 98.0052C100.612 98.3315 101.028 98.8083 101.567 99.2417C102.107 99.6757 102.782 100.05 103.801 100.11C103.899 100.115 103.995 100.118 104.088 100.118C105.139 100.118 105.959 99.7756 106.641 99.3851C107.383 98.9611 107.975 98.4914 108.537 98.3086C108.538 98.3079 108.539 98.3079 108.539 98.3079C109.727 97.9367 110.67 97.2799 111.206 96.5146C112.129 100.15 114.273 105.4 115.652 107.962C116.385 109.322 117.842 112.21 118.472 115.69C118.871 115.678 119.311 115.736 119.781 115.856C121.428 111.587 118.385 106.988 116.993 105.708C116.431 105.162 116.404 104.918 116.683 104.93C118.192 106.265 120.175 108.95 120.896 111.981C121.225 113.363 121.295 114.817 120.942 116.251C121.114 116.322 121.29 116.4 121.468 116.485C124.111 117.772 125.089 118.891 124.618 120.419Z" fill="#34BBFB"/>
<path d="M111.206 90.333C111.212 91.0533 111.087 91.6665 110.814 92.2926C110.658 92.6495 110.479 92.9493 110.264 93.2092C110.192 93.1742 110.116 93.1407 110.037 93.1086C109.765 92.9922 109.525 92.8965 109.309 92.8151C109.094 92.7337 108.925 92.6782 108.752 92.6182C108.878 92.4662 109.125 92.2869 109.217 92.0621C109.357 91.723 109.426 91.3917 109.439 90.9969C109.439 90.9812 109.444 90.9677 109.444 90.9491C109.451 90.5708 109.402 90.2474 109.291 89.9162C109.175 89.5685 109.028 89.3187 108.815 89.1109C108.602 88.9032 108.389 88.8089 108.134 88.8004C108.122 88.7996 108.11 88.7996 108.098 88.7996C107.858 88.8004 107.65 88.8832 107.434 89.0631C107.208 89.2522 107.04 89.4942 106.9 89.8313C106.761 90.1682 106.692 90.5022 106.679 90.8991C106.677 90.9149 106.677 90.9285 106.677 90.9441C106.672 91.1626 106.686 91.3625 106.719 91.5566C106.228 91.3118 105.6 91.1333 105.166 91.0297C105.141 90.842 105.127 90.6486 105.122 90.4458V90.3908C105.115 89.6727 105.232 89.0565 105.509 88.4313C105.785 87.8052 106.127 87.3554 106.608 86.9892C107.09 86.6237 107.563 86.456 108.123 86.4502H108.15C108.698 86.4502 109.167 86.6115 109.649 86.9607C110.138 87.3162 110.491 87.7602 110.775 88.3813C111.053 88.9866 111.187 89.5785 111.201 90.2802C111.201 90.2987 111.201 90.3144 111.206 90.333Z" fill="#34BBFB"/>
<path d="M102.92 91.0505C102.847 91.0711 102.777 91.0933 102.708 91.1168C102.316 91.2525 102.004 91.4022 101.703 91.6013C101.732 91.3929 101.736 91.1816 101.713 90.9453C101.711 90.9325 101.711 90.9217 101.711 90.9089C101.68 90.5955 101.613 90.3328 101.503 90.0672C101.385 89.7909 101.253 89.596 101.079 89.4461C100.922 89.3106 100.774 89.2477 100.61 89.2491C100.593 89.2491 100.576 89.2499 100.559 89.2512C100.375 89.267 100.222 89.3569 100.077 89.5333C99.9329 89.7088 99.8379 89.9273 99.7694 90.2172C99.7009 90.5062 99.683 90.7904 99.7116 91.1166C99.7116 91.1295 99.7145 91.1402 99.7145 91.1531C99.7458 91.4693 99.8094 91.732 99.9221 91.9976C100.038 92.2709 100.172 92.4658 100.346 92.6158C100.375 92.6408 100.403 92.6636 100.432 92.6836C100.252 92.8228 100.131 92.9215 99.9826 93.0301C99.8877 93.0993 99.7749 93.1821 99.6435 93.2792C99.3572 93.0108 99.1339 92.6738 98.9382 92.2291C98.707 91.7036 98.5834 91.1776 98.5463 90.5564V90.5514C98.5121 89.9304 98.5727 89.3964 98.7433 88.8439C98.9147 88.2913 99.1431 87.8915 99.475 87.5632C99.8063 87.2341 100.14 87.0684 100.543 87.0478C100.574 87.0463 100.605 87.0457 100.636 87.0457C101.001 87.0463 101.326 87.1677 101.663 87.4368C102.029 87.7288 102.305 88.1022 102.536 88.6283C102.768 89.1544 102.892 89.6806 102.926 90.3016V90.3066C102.942 90.5672 102.94 90.8128 102.92 91.0505Z" fill="#34BBFB"/>
<path d="M104.751 92.536C104.797 92.6843 105.036 92.6597 105.174 92.7308C105.295 92.7931 105.392 92.9298 105.529 92.9338C105.659 92.9375 105.861 92.8888 105.878 92.7598C105.9 92.5896 105.651 92.4814 105.491 92.419C105.285 92.3387 105.022 92.2979 104.828 92.4053C104.784 92.4299 104.736 92.4876 104.751 92.536Z" fill="#1891CA"/>
<path d="M103.34 92.536C103.294 92.6843 103.055 92.6597 102.917 92.7308C102.796 92.7931 102.699 92.9298 102.562 92.9338C102.432 92.9375 102.23 92.8888 102.213 92.7598C102.191 92.5896 102.44 92.4814 102.6 92.419C102.806 92.3387 103.069 92.2979 103.263 92.4053C103.307 92.4299 103.355 92.4876 103.34 92.536Z" fill="#1891CA"/>
</g>
</g>
<defs>
<filter id="filter0_d_766_831" x="65" y="51.4614" width="50" height="77" filterUnits="userSpaceOnUse" color-interpolation-filters="sRGB">
<feFlood flood-opacity="0" result="BackgroundImageFix"/>
<feColorMatrix in="SourceAlpha" type="matrix" values="0 0 0 0 0 0 0 0 0 0 0 0 0 0 0 0 0 0 127 0" result="hardAlpha"/>
<feOffset dy="-2"/>
<feColorMatrix type="matrix" values="0 0 0 0 0 0 0 0 0 0 0 0 0 0 0 0 0 0 0.14 0"/>
<feBlend mode="normal" in2="BackgroundImageFix" result="effect1_dropShadow_766_831"/>
<feBlend mode="normal" in="SourceGraphic" in2="effect1_dropShadow_766_831" result="shape"/>
</filter>
<linearGradient id="paint0_linear_766_831" x1="40" y1="140" x2="140" y2="140" gradientUnits="userSpaceOnUse">
<stop stop-color="#241F31"/>
<stop offset="0.0384006" stop-color="#615A6C"/>
<stop offset="0.07751" stop-color="#241F31"/>
<stop offset="0.923489" stop-color="#241F31"/>
<stop offset="0.961496" stop-color="#615A6C"/>
<stop offset="1" stop-color="#241F31"/>
</linearGradient>
</defs>
</svg>
