<svg width="180" height="180" viewBox="0 0 180 180" fill="none" xmlns="http://www.w3.org/2000/svg">
<rect width="180" height="180" fill="#073042" fill-opacity="0.25"/>
<rect x="1" y="1" width="178" height="178" stroke="white" stroke-opacity="0.05" stroke-width="2"/>
<path d="M134.907 73.5472C132.806 68.4826 128.529 63.0053 125.178 61.2796C127.566 65.9065 129.217 70.8586 130.092 75.9858L130.105 76.0733C124.615 62.4051 115.324 56.9028 107.733 44.9103C107.345 44.2975 106.958 43.6848 106.595 43.0595C106.408 42.7344 106.233 42.3967 106.057 42.0591C105.745 41.4463 105.495 40.8085 105.332 40.1458C105.332 40.0832 105.282 40.0332 105.22 40.0207C105.195 39.9957 105.17 39.9957 105.132 40.0082C105.12 40.0082 105.12 40.0207 105.107 40.0207C105.095 40.0207 105.082 40.0332 105.07 40.0457L105.082 40.0082C92.902 47.1362 88.7752 60.3292 88.4001 66.932C83.5355 67.2696 78.8961 69.0579 75.057 72.0716C74.6568 71.734 74.2442 71.4213 73.8065 71.1212C72.706 67.2571 72.656 63.1679 73.6689 59.2788C69.1921 61.4422 65.2279 64.5185 62.0015 68.295H61.9765C60.0507 65.8565 60.1883 57.8282 60.3008 56.1525C59.7381 56.3776 59.1879 56.6652 58.6877 57.0153C56.9869 58.2283 55.4113 59.5789 53.9482 61.067C52.285 62.7552 50.7719 64.5685 49.4213 66.5068C46.3075 70.9211 44.0941 75.9107 42.9186 81.1879L42.8686 81.5131C42.6935 82.5135 42.5309 83.5264 42.3934 84.5393C42.3934 84.5768 42.3808 84.6144 42.3808 84.6394C41.9557 86.8403 41.6931 89.0787 41.593 91.3172V91.5673C41.618 118.341 63.3396 140.013 90.1008 140C113.673 139.975 133.819 123.005 137.821 99.7707C137.908 99.1454 137.971 98.5327 138.046 97.8949C139.046 89.6415 137.958 81.2755 134.907 73.5472ZM79.0462 111.488C79.2713 111.601 79.4839 111.713 79.7215 111.813L79.759 111.838C79.5089 111.726 79.2713 111.613 79.0462 111.488Z" fill="url(#paint0_linear_765_772)"/>
<path d="M134.907 73.5473C132.806 68.4827 128.529 63.0054 125.178 61.2797C127.566 65.9066 129.217 70.8587 130.092 75.9858V76.0358L130.105 76.0858C133.844 86.7778 133.306 98.4952 128.592 108.8C123.04 120.717 109.596 132.935 88.5501 132.347C65.8031 131.697 45.7698 114.827 42.0307 92.7178C41.3429 89.2288 42.0307 87.4656 42.3683 84.6269C41.9056 86.8278 41.643 89.0663 41.593 91.3172V91.5673C41.618 118.341 63.3396 140.013 90.1008 139.988C113.673 139.963 133.819 122.993 137.821 99.7582C137.908 99.133 137.971 98.5202 138.046 97.8825C139.046 89.6415 137.958 81.2755 134.907 73.5473Z" fill="url(#paint1_radial_765_772)"/>
<path d="M134.907 73.5473C132.806 68.4827 128.529 63.0054 125.178 61.2797C127.566 65.9066 129.217 70.8587 130.092 75.9858V76.0358L130.105 76.0858C133.844 86.7778 133.306 98.4952 128.592 108.8C123.04 120.717 109.596 132.935 88.5501 132.347C65.8031 131.697 45.7698 114.827 42.0307 92.7178C41.3429 89.2288 42.0307 87.4656 42.3683 84.6269C41.9056 86.8278 41.643 89.0663 41.593 91.3172V91.5673C41.618 118.341 63.3396 140.013 90.1008 139.988C113.673 139.963 133.819 122.993 137.821 99.7582C137.908 99.133 137.971 98.5202 138.046 97.8825C139.046 89.6415 137.958 81.2755 134.907 73.5473Z" fill="url(#paint2_radial_765_772)"/>
<path d="M111.347 79.2497L111.648 79.4748C110.435 77.3114 108.909 75.3356 107.146 73.6098C92.0894 58.5285 103.207 40.9337 105.07 40.0333L105.082 40.0083C92.9023 47.1363 88.7755 60.3293 88.4004 66.9321C88.9631 66.8945 89.5259 66.8445 90.1011 66.8445C98.9048 66.857 107.021 71.5965 111.347 79.2497Z" fill="url(#paint3_radial_765_772)"/>
<path d="M90.1384 82.2509C90.0633 83.4514 85.7991 87.6156 84.3109 87.6156C70.5302 87.6156 68.2917 95.9566 68.2917 95.9566C68.9045 102.972 73.794 108.762 79.709 111.813C79.9841 111.951 80.2467 112.076 80.5219 112.201C80.9971 112.413 81.4723 112.601 81.9475 112.789C83.9733 113.501 86.0992 113.914 88.2501 114.002C112.41 115.14 117.087 85.1145 99.6549 76.3984C103.769 75.8607 107.933 76.8736 111.347 79.2371C107.008 71.5839 98.9045 66.8569 90.1134 66.8319C89.5381 66.8319 88.9754 66.8819 88.4127 66.9194C83.5481 67.2571 78.9087 69.0453 75.0696 72.0591C75.8074 72.6844 76.6452 73.5222 78.396 75.2479C81.6848 78.4993 90.1259 81.8632 90.1384 82.2509Z" fill="url(#paint4_radial_765_772)"/>
<path d="M90.1384 82.2509C90.0633 83.4514 85.7991 87.6156 84.3109 87.6156C70.5302 87.6156 68.2917 95.9566 68.2917 95.9566C68.9045 102.972 73.794 108.762 79.709 111.813C79.9841 111.951 80.2467 112.076 80.5219 112.201C80.9971 112.413 81.4723 112.601 81.9475 112.789C83.9733 113.501 86.0992 113.914 88.2501 114.002C112.41 115.14 117.087 85.1145 99.6549 76.3984C103.769 75.8607 107.933 76.8736 111.347 79.2371C107.008 71.5839 98.9045 66.8569 90.1134 66.8319C89.5381 66.8319 88.9754 66.8819 88.4127 66.9194C83.5481 67.2571 78.9087 69.0453 75.0696 72.0591C75.8074 72.6844 76.6452 73.5222 78.396 75.2479C81.6848 78.4993 90.1259 81.8632 90.1384 82.2509Z" fill="url(#paint5_radial_765_772)"/>
<path d="M72.8065 70.4585C73.1941 70.7086 73.5193 70.9212 73.8069 71.1213C72.7064 67.2571 72.6564 63.1679 73.6693 59.2788C69.1925 61.4422 65.2283 64.5185 62.002 68.2951C62.2521 68.2826 69.28 68.1575 72.8065 70.4585Z" fill="url(#paint6_radial_765_772)"/>
<path d="M42.0311 92.7177C45.7702 114.814 65.8035 131.696 88.538 132.334C109.584 132.934 123.027 120.717 128.58 108.787C133.282 98.4826 133.819 86.7652 130.093 76.0732V76.0232C130.093 75.9857 130.08 75.9607 130.093 75.9732L130.105 76.0607C131.831 87.2904 126.116 98.1574 117.188 105.511L117.162 105.573C99.7677 119.741 83.1233 114.114 79.7594 111.826C79.5218 111.713 79.2842 111.601 79.0591 111.476C68.9173 106.623 64.7281 97.3946 65.6285 89.4663C60.7139 89.5414 56.212 86.7027 54.1487 82.2383C59.5634 78.9244 66.3037 78.6493 71.9686 81.5255C77.7085 84.1266 84.2362 84.3892 90.1637 82.2383C90.1512 81.8506 81.7102 78.4867 78.4213 75.2479C76.6581 73.5097 75.8327 72.6843 75.0949 72.059C74.6948 71.7214 74.2821 71.4088 73.8444 71.1086C73.5568 70.9086 73.2316 70.696 72.844 70.4459C69.305 68.1449 62.2771 68.27 62.0395 68.2825H62.0145C60.0887 65.8439 60.2262 57.8156 60.3388 56.1399C59.776 56.365 59.2258 56.6526 58.7256 57.0028C57.0249 58.2158 55.4492 59.5663 53.9861 61.067C52.3229 62.7427 50.7973 64.5559 49.4342 66.4942V66.5067C46.3204 70.9211 44.107 75.9107 42.9315 81.1879C42.9065 81.2879 41.1933 88.816 42.0311 92.7177Z" fill="url(#paint7_radial_765_772)"/>
<path d="M107.146 73.5972C108.909 75.3355 110.434 77.3113 111.647 79.4747C111.91 79.6748 112.16 79.8749 112.373 80.075C123.365 90.2042 117.6 104.523 117.175 105.548C126.104 98.195 131.806 87.3155 130.093 76.0858C124.615 62.4051 115.324 56.9028 107.733 44.9103C107.346 44.2975 106.958 43.6848 106.595 43.0595C106.408 42.7344 106.233 42.3967 106.058 42.0591C105.745 41.4463 105.495 40.8085 105.332 40.1458C105.332 40.0832 105.282 40.0332 105.22 40.0207C105.195 39.9957 105.17 39.9957 105.132 40.0082C105.12 40.0082 105.12 40.0207 105.107 40.0207C105.095 40.0207 105.082 40.0332 105.07 40.0457C103.206 40.9336 92.0893 58.5285 107.146 73.5972Z" fill="url(#paint8_radial_765_772)"/>
<path d="M112.373 80.0625C112.135 79.8499 111.897 79.6498 111.647 79.4623L111.347 79.2372C107.933 76.8737 103.769 75.8608 99.6548 76.3985C117.087 85.1146 112.41 115.127 88.2501 114.002C86.0992 113.914 83.9733 113.501 81.9474 112.789C81.4722 112.614 80.997 112.414 80.5218 112.201C80.2467 112.076 79.9716 111.951 79.709 111.813L79.7465 111.838C83.1104 114.139 99.7549 119.754 117.15 105.586L117.175 105.523C117.612 104.51 123.365 90.1917 112.373 80.0625Z" fill="url(#paint9_radial_765_772)"/>
<path d="M68.2917 95.9567C68.2917 95.9567 70.5301 87.6157 84.3109 87.6157C85.799 87.6157 90.0633 83.4514 90.1383 82.2509C84.2109 84.4018 77.6831 84.1392 71.9432 81.5381C66.2784 78.6619 59.5381 78.937 54.1233 82.2509C56.1867 86.7153 60.6885 89.5415 65.6031 89.4789C64.7027 97.4073 68.892 106.636 79.0337 111.488C79.2588 111.601 79.4714 111.713 79.709 111.813C73.794 108.762 68.9045 102.972 68.2917 95.9567Z" fill="url(#paint10_radial_765_772)"/>
<path d="M134.907 73.5472C132.806 68.4826 128.529 63.0053 125.178 61.2796C127.566 65.9065 129.217 70.8586 130.092 75.9858L130.105 76.0733C124.615 62.4051 115.324 56.9028 107.733 44.9103C107.345 44.2975 106.958 43.6848 106.595 43.0595C106.408 42.7344 106.233 42.3967 106.057 42.0591C105.745 41.4463 105.495 40.8085 105.332 40.1458C105.332 40.0832 105.282 40.0332 105.22 40.0207C105.195 39.9957 105.17 39.9957 105.132 40.0082C105.12 40.0082 105.12 40.0207 105.107 40.0207C105.095 40.0207 105.082 40.0332 105.07 40.0457L105.082 40.0082C92.902 47.1362 88.7752 60.3292 88.4001 66.932C88.9628 66.8945 89.5255 66.8444 90.1008 66.8444C98.892 66.8569 107.008 71.5964 111.335 79.2496C107.921 76.8861 103.756 75.8732 99.6423 76.4109C117.075 85.1271 112.398 115.14 88.2375 114.014C86.0866 113.927 83.9607 113.514 81.9349 112.801C81.4597 112.626 80.9845 112.426 80.5093 112.213C80.2342 112.088 79.959 111.963 79.6964 111.826L79.734 111.851C79.4964 111.738 79.2588 111.626 79.0337 111.501C79.2588 111.613 79.4713 111.726 79.7089 111.826C73.794 108.762 68.9044 102.985 68.2917 95.9691C68.2917 95.9691 70.5301 87.6281 84.3109 87.6281C85.799 87.6281 90.0633 83.4639 90.1383 82.2634C90.1258 81.8757 81.6848 78.5118 78.3959 75.273C76.6327 73.5347 75.8073 72.7094 75.0695 72.0841C74.6693 71.7465 74.2567 71.4338 73.819 71.1337C72.7185 67.2696 72.6685 63.1804 73.6814 59.2913C69.2046 61.4547 65.2404 64.531 62.014 68.3075H61.989C60.0632 65.869 60.2008 57.8407 60.3133 56.165C59.7506 56.3901 59.2004 56.6777 58.7002 57.0278C56.9995 58.2408 55.4238 59.5914 53.9607 61.0795C52.2975 62.7677 50.7844 64.581 49.4338 66.5193V66.5318V66.5068C46.32 70.9211 44.1066 75.9107 42.9311 81.1879L42.8686 81.5131C42.781 81.9382 42.3683 84.1016 42.3058 84.5643C42.3058 84.6018 42.3058 84.5268 42.3058 84.5643C41.9307 86.8028 41.6931 89.0537 41.593 91.3172V91.5673C41.618 118.341 63.3396 140.013 90.1008 140C113.673 139.975 133.819 123.005 137.821 99.7707C137.908 99.1454 137.971 98.5327 138.046 97.8949C139.046 89.6415 137.958 81.2755 134.907 73.5472Z" fill="url(#paint11_linear_765_772)"/>
<defs>
<linearGradient id="paint0_linear_765_772" x1="128.48" y1="55.4868" x2="48.0231" y2="133.113" gradientUnits="userSpaceOnUse">
<stop offset="0.048" stop-color="#FFF44F"/>
<stop offset="0.111" stop-color="#FFE847"/>
<stop offset="0.225" stop-color="#FFC830"/>
<stop offset="0.368" stop-color="#FF980E"/>
<stop offset="0.401" stop-color="#FF8B16"/>
<stop offset="0.462" stop-color="#FF672A"/>
<stop offset="0.534" stop-color="#FF3647"/>
<stop offset="0.705" stop-color="#E31587"/>
</linearGradient>
<radialGradient id="paint1_radial_765_772" cx="0" cy="0" r="1" gradientUnits="userSpaceOnUse" gradientTransform="translate(124.769 51.099) scale(101.038 101.038)">
<stop offset="0.129" stop-color="#FFBD4F"/>
<stop offset="0.186" stop-color="#FFAC31"/>
<stop offset="0.247" stop-color="#FF9D17"/>
<stop offset="0.283" stop-color="#FF980E"/>
<stop offset="0.403" stop-color="#FF563B"/>
<stop offset="0.467" stop-color="#FF3750"/>
<stop offset="0.71" stop-color="#F5156C"/>
<stop offset="0.782" stop-color="#EB0878"/>
<stop offset="0.86" stop-color="#E50080"/>
</radialGradient>
<radialGradient id="paint2_radial_765_772" cx="0" cy="0" r="1" gradientUnits="userSpaceOnUse" gradientTransform="translate(87.8487 92.4065) scale(101.038 101.038)">
<stop offset="0.3" stop-color="#960E18"/>
<stop offset="0.351" stop-color="#B11927" stop-opacity="0.74"/>
<stop offset="0.435" stop-color="#DB293D" stop-opacity="0.343"/>
<stop offset="0.497" stop-color="#F5334B" stop-opacity="0.094"/>
<stop offset="0.53" stop-color="#FF3750" stop-opacity="0"/>
</radialGradient>
<radialGradient id="paint3_radial_765_772" cx="0" cy="0" r="1" gradientUnits="userSpaceOnUse" gradientTransform="translate(100.031 28.1696) scale(73.1953)">
<stop offset="0.132" stop-color="#FFF44F"/>
<stop offset="0.252" stop-color="#FFDC3E"/>
<stop offset="0.506" stop-color="#FF9D12"/>
<stop offset="0.526" stop-color="#FF980E"/>
</radialGradient>
<radialGradient id="paint4_radial_765_772" cx="0" cy="0" r="1" gradientUnits="userSpaceOnUse" gradientTransform="translate(76.6729 118.798) scale(48.1088 48.1089)">
<stop offset="0.353" stop-color="#3A8EE6"/>
<stop offset="0.472" stop-color="#5C79F0"/>
<stop offset="0.669" stop-color="#9059FF"/>
<stop offset="1" stop-color="#C139E6"/>
</radialGradient>
<radialGradient id="paint5_radial_765_772" cx="0" cy="0" r="1" gradientTransform="matrix(24.7927 -5.99412 -7.0144 -29.0269 93.3697 84.126)" gradientUnits="userSpaceOnUse">
<stop offset="0.206" stop-color="#9059FF" stop-opacity="0"/>
<stop offset="0.278" stop-color="#8C4FF3" stop-opacity="0.064"/>
<stop offset="0.747" stop-color="#7716A8" stop-opacity="0.45"/>
<stop offset="0.975" stop-color="#6E008B" stop-opacity="0.6"/>
</radialGradient>
<radialGradient id="paint6_radial_765_772" cx="0" cy="0" r="1" gradientUnits="userSpaceOnUse" gradientTransform="translate(86.5735 46.9652) scale(34.6095 34.6095)">
<stop stop-color="#FFE226"/>
<stop offset="0.121" stop-color="#FFDB27"/>
<stop offset="0.295" stop-color="#FFC82A"/>
<stop offset="0.502" stop-color="#FFA930"/>
<stop offset="0.732" stop-color="#FF7E37"/>
<stop offset="0.792" stop-color="#FF7139"/>
</radialGradient>
<radialGradient id="paint7_radial_765_772" cx="0" cy="0" r="1" gradientUnits="userSpaceOnUse" gradientTransform="translate(113.777 25.0126) scale(147.663 147.663)">
<stop offset="0.113" stop-color="#FFF44F"/>
<stop offset="0.456" stop-color="#FF980E"/>
<stop offset="0.622" stop-color="#FF5634"/>
<stop offset="0.716" stop-color="#FF3647"/>
<stop offset="0.904" stop-color="#E31587"/>
</radialGradient>
<radialGradient id="paint8_radial_765_772" cx="0" cy="0" r="1" gradientTransform="matrix(11.3577 107.628 70.6343 -7.46366 101.332 33.2237)" gradientUnits="userSpaceOnUse">
<stop stop-color="#FFF44F"/>
<stop offset="0.06" stop-color="#FFE847"/>
<stop offset="0.168" stop-color="#FFC830"/>
<stop offset="0.304" stop-color="#FF980E"/>
<stop offset="0.356" stop-color="#FF8B16"/>
<stop offset="0.455" stop-color="#FF672A"/>
<stop offset="0.57" stop-color="#FF3647"/>
<stop offset="0.737" stop-color="#E31587"/>
</radialGradient>
<radialGradient id="paint9_radial_765_772" cx="0" cy="0" r="1" gradientUnits="userSpaceOnUse" gradientTransform="translate(85.758 59.7843) scale(92.1885 92.1885)">
<stop offset="0.137" stop-color="#FFF44F"/>
<stop offset="0.48" stop-color="#FF980E"/>
<stop offset="0.592" stop-color="#FF5634"/>
<stop offset="0.655" stop-color="#FF3647"/>
<stop offset="0.904" stop-color="#E31587"/>
</radialGradient>
<radialGradient id="paint10_radial_765_772" cx="0" cy="0" r="1" gradientUnits="userSpaceOnUse" gradientTransform="translate(110.093 65.1797) scale(100.9 100.9)">
<stop offset="0.094" stop-color="#FFF44F"/>
<stop offset="0.231" stop-color="#FFE141"/>
<stop offset="0.509" stop-color="#FFAF1E"/>
<stop offset="0.626" stop-color="#FF980E"/>
</radialGradient>
<linearGradient id="paint11_linear_765_772" x1="127.515" y1="55.0729" x2="59.0537" y2="123.533" gradientUnits="userSpaceOnUse">
<stop offset="0.167" stop-color="#FFF44F" stop-opacity="0.8"/>
<stop offset="0.266" stop-color="#FFF44F" stop-opacity="0.634"/>
<stop offset="0.489" stop-color="#FFF44F" stop-opacity="0.217"/>
<stop offset="0.6" stop-color="#FFF44F" stop-opacity="0"/>
</linearGradient>
</defs>
</svg>
