<svg width="179" height="179" viewBox="0 0 179 179" fill="none" xmlns="http://www.w3.org/2000/svg">
<rect width="179" height="179" fill="#E0EFFE"/>
<path d="M134.407 58.5472C132.306 53.4826 128.029 48.0053 124.678 46.2796C127.066 50.9065 128.717 55.8586 129.592 60.9858L129.605 61.0733C124.115 47.4051 114.824 41.9028 107.233 29.9103C106.845 29.2975 106.458 28.6848 106.095 28.0595C105.908 27.7344 105.733 27.3967 105.557 27.0591C105.245 26.4463 104.995 25.8085 104.832 25.1458C104.832 25.0832 104.782 25.0332 104.72 25.0207C104.695 24.9957 104.67 24.9957 104.632 25.0082C104.62 25.0082 104.62 25.0207 104.607 25.0207C104.595 25.0207 104.582 25.0332 104.57 25.0457L104.582 25.0082C92.402 32.1362 88.2752 45.3292 87.9001 51.932C83.0355 52.2696 78.3961 54.0579 74.557 57.0716C74.1568 56.734 73.7442 56.4213 73.3065 56.1212C72.206 52.2571 72.156 48.1679 73.1689 44.2788C68.6921 46.4422 64.7279 49.5185 61.5015 53.295H61.4765C59.5507 50.8565 59.6883 42.8282 59.8008 41.1525C59.2381 41.3776 58.6879 41.6652 58.1877 42.0153C56.4869 43.2283 54.9113 44.5789 53.4482 46.067C51.785 47.7552 50.2719 49.5685 48.9213 51.5068C45.8075 55.9211 43.5941 60.9107 42.4186 66.1879L42.3686 66.5131C42.1935 67.5135 42.0309 68.5264 41.8934 69.5393C41.8934 69.5768 41.8808 69.6144 41.8808 69.6394C41.4557 71.8403 41.1931 74.0787 41.093 76.3172V76.5673C41.118 103.341 62.8396 125.013 89.6008 125C113.173 124.975 133.319 108.005 137.321 84.7707C137.408 84.1454 137.471 83.5327 137.546 82.8949C138.546 74.6415 137.458 66.2755 134.407 58.5472ZM78.5462 96.4881C78.7713 96.6006 78.9839 96.7132 79.2215 96.8132L79.259 96.8382C79.0089 96.7257 78.7713 96.6131 78.5462 96.4881Z" fill="url(#paint0_linear_649_1098)"/>
<path d="M134.407 58.5473C132.306 53.4827 128.029 48.0054 124.678 46.2797C127.066 50.9066 128.717 55.8587 129.592 60.9858V61.0358L129.605 61.0858C133.344 71.7778 132.806 83.4952 128.092 93.7995C122.54 105.717 109.096 117.935 88.0501 117.347C65.3031 116.697 45.2698 99.827 41.5307 77.7178C40.8429 74.2288 41.5307 72.4656 41.8683 69.6269C41.4056 71.8278 41.143 74.0663 41.093 76.3172V76.5673C41.118 103.341 62.8396 125.013 89.6008 124.988C113.173 124.963 133.319 107.993 137.321 84.7582C137.408 84.133 137.471 83.5202 137.546 82.8825C138.546 74.6415 137.458 66.2755 134.407 58.5473Z" fill="url(#paint1_radial_649_1098)"/>
<path d="M134.407 58.5473C132.306 53.4827 128.029 48.0054 124.678 46.2797C127.066 50.9066 128.717 55.8587 129.592 60.9858V61.0358L129.605 61.0858C133.344 71.7778 132.806 83.4952 128.092 93.7995C122.54 105.717 109.096 117.935 88.0501 117.347C65.3031 116.697 45.2698 99.827 41.5307 77.7178C40.8429 74.2288 41.5307 72.4656 41.8683 69.6269C41.4056 71.8278 41.143 74.0663 41.093 76.3172V76.5673C41.118 103.341 62.8396 125.013 89.6008 124.988C113.173 124.963 133.319 107.993 137.321 84.7582C137.408 84.133 137.471 83.5202 137.546 82.8825C138.546 74.6415 137.458 66.2755 134.407 58.5473Z" fill="url(#paint2_radial_649_1098)"/>
<path d="M110.847 64.2497L111.148 64.4748C109.935 62.3114 108.409 60.3356 106.646 58.6098C91.5894 43.5285 102.707 25.9337 104.57 25.0333L104.582 25.0083C92.4023 32.1363 88.2755 45.3293 87.9004 51.9321C88.4631 51.8945 89.0259 51.8445 89.6011 51.8445C98.4048 51.857 106.521 56.5965 110.847 64.2497Z" fill="url(#paint3_radial_649_1098)"/>
<path d="M89.6384 67.2509C89.5633 68.4514 85.2991 72.6156 83.8109 72.6156C70.0302 72.6156 67.7917 80.9566 67.7917 80.9566C68.4045 87.972 73.294 93.7619 79.209 96.8132C79.4841 96.9508 79.7467 97.0758 80.0219 97.2009C80.4971 97.4135 80.9723 97.601 81.4475 97.7886C83.4733 98.5014 85.5992 98.9141 87.7501 99.0016C111.91 100.14 116.587 70.1145 99.1549 61.3984C103.269 60.8607 107.433 61.8736 110.847 64.2371C106.508 56.5839 98.4045 51.8569 89.6134 51.8319C89.0381 51.8319 88.4754 51.8819 87.9127 51.9194C83.0481 52.2571 78.4087 54.0453 74.5696 57.0591C75.3074 57.6844 76.1452 58.5222 77.896 60.2479C81.1848 63.4993 89.6259 66.8632 89.6384 67.2509Z" fill="url(#paint4_radial_649_1098)"/>
<path d="M89.6384 67.2509C89.5633 68.4514 85.2991 72.6156 83.8109 72.6156C70.0302 72.6156 67.7917 80.9566 67.7917 80.9566C68.4045 87.972 73.294 93.7619 79.209 96.8132C79.4841 96.9508 79.7467 97.0758 80.0219 97.2009C80.4971 97.4135 80.9723 97.601 81.4475 97.7886C83.4733 98.5014 85.5992 98.9141 87.7501 99.0016C111.91 100.14 116.587 70.1145 99.1549 61.3984C103.269 60.8607 107.433 61.8736 110.847 64.2371C106.508 56.5839 98.4045 51.8569 89.6134 51.8319C89.0381 51.8319 88.4754 51.8819 87.9127 51.9194C83.0481 52.2571 78.4087 54.0453 74.5696 57.0591C75.3074 57.6844 76.1452 58.5222 77.896 60.2479C81.1848 63.4993 89.6259 66.8632 89.6384 67.2509Z" fill="url(#paint5_radial_649_1098)"/>
<path d="M72.3065 55.4585C72.6941 55.7086 73.0193 55.9212 73.3069 56.1213C72.2064 52.2571 72.1564 48.1679 73.1693 44.2788C68.6925 46.4422 64.7283 49.5185 61.502 53.2951C61.7521 53.2826 68.78 53.1575 72.3065 55.4585Z" fill="url(#paint6_radial_649_1098)"/>
<path d="M41.5311 77.7177C45.2702 99.8144 65.3035 116.696 88.038 117.334C109.084 117.934 122.527 105.717 128.08 93.7869C132.782 83.4826 133.319 71.7652 129.593 61.0732V61.0232C129.593 60.9857 129.58 60.9607 129.593 60.9732L129.605 61.0607C131.331 72.2904 125.616 83.1574 116.688 90.5105L116.662 90.573C99.2677 104.741 82.6233 99.1141 79.2594 96.8257C79.0218 96.7131 78.7842 96.6006 78.5591 96.4755C68.4173 91.6235 64.2281 82.3946 65.1285 74.4663C60.2139 74.5414 55.712 71.7027 53.6487 67.2383C59.0634 63.9244 65.8037 63.6493 71.4686 66.5255C77.2085 69.1266 83.7362 69.3892 89.6637 67.2383C89.6512 66.8506 81.2102 63.4867 77.9213 60.2479C76.1581 58.5097 75.3327 57.6843 74.5949 57.059C74.1948 56.7214 73.7821 56.4088 73.3444 56.1086C73.0568 55.9086 72.7316 55.696 72.344 55.4459C68.805 53.1449 61.7771 53.27 61.5395 53.2825H61.5145C59.5887 50.8439 59.7262 42.8156 59.8388 41.1399C59.276 41.365 58.7258 41.6526 58.2256 42.0028C56.5249 43.2158 54.9492 44.5663 53.4861 46.067C51.8229 47.7427 50.2973 49.5559 48.9342 51.4942V51.5067C45.8204 55.9211 43.607 60.9107 42.4315 66.1879C42.4065 66.2879 40.6933 73.816 41.5311 77.7177Z" fill="url(#paint7_radial_649_1098)"/>
<path d="M106.646 58.5972C108.409 60.3355 109.934 62.3113 111.147 64.4747C111.41 64.6748 111.66 64.8749 111.873 65.075C122.865 75.2042 117.1 89.5227 116.675 90.5481C125.604 83.195 131.306 72.3155 129.593 61.0858C124.115 47.4051 114.824 41.9028 107.233 29.9103C106.846 29.2975 106.458 28.6848 106.095 28.0595C105.908 27.7344 105.733 27.3967 105.558 27.0591C105.245 26.4463 104.995 25.8085 104.832 25.1458C104.832 25.0832 104.782 25.0332 104.72 25.0207C104.695 24.9957 104.67 24.9957 104.632 25.0082C104.62 25.0082 104.62 25.0207 104.607 25.0207C104.595 25.0207 104.582 25.0332 104.57 25.0457C102.706 25.9336 91.5893 43.5285 106.646 58.5972Z" fill="url(#paint8_radial_649_1098)"/>
<path d="M111.873 65.0625C111.635 64.8499 111.397 64.6498 111.147 64.4623L110.847 64.2372C107.433 61.8737 103.269 60.8608 99.1548 61.3985C116.587 70.1146 111.91 100.127 87.7501 99.0017C85.5992 98.9142 83.4733 98.5015 81.4474 97.7887C80.9722 97.6136 80.497 97.4135 80.0218 97.2009C79.7467 97.0759 79.4716 96.9508 79.209 96.8133L79.2465 96.8383C82.6104 99.1393 99.2549 104.754 116.65 90.5857L116.675 90.5232C117.112 89.5102 122.865 75.1917 111.873 65.0625Z" fill="url(#paint9_radial_649_1098)"/>
<path d="M67.7917 80.9567C67.7917 80.9567 70.0301 72.6157 83.8109 72.6157C85.299 72.6157 89.5633 68.4514 89.6383 67.2509C83.7109 69.4018 77.1831 69.1392 71.4432 66.5381C65.7784 63.6619 59.0381 63.937 53.6233 67.2509C55.6867 71.7153 60.1885 74.5415 65.1031 74.4789C64.2027 82.4073 68.392 91.6361 78.5337 96.4881C78.7588 96.6007 78.9714 96.7132 79.209 96.8133C73.294 93.762 68.4045 87.9721 67.7917 80.9567Z" fill="url(#paint10_radial_649_1098)"/>
<path d="M134.407 58.5472C132.306 53.4826 128.029 48.0053 124.678 46.2796C127.066 50.9065 128.717 55.8586 129.592 60.9858L129.605 61.0733C124.115 47.4051 114.824 41.9028 107.233 29.9103C106.845 29.2975 106.458 28.6848 106.095 28.0595C105.908 27.7344 105.733 27.3967 105.557 27.0591C105.245 26.4463 104.995 25.8085 104.832 25.1458C104.832 25.0832 104.782 25.0332 104.72 25.0207C104.695 24.9957 104.67 24.9957 104.632 25.0082C104.62 25.0082 104.62 25.0207 104.607 25.0207C104.595 25.0207 104.582 25.0332 104.57 25.0457L104.582 25.0082C92.402 32.1362 88.2752 45.3292 87.9001 51.932C88.4628 51.8945 89.0255 51.8444 89.6008 51.8444C98.392 51.8569 106.508 56.5964 110.835 64.2496C107.421 61.8861 103.256 60.8732 99.1423 61.4109C116.575 70.1271 111.898 100.14 87.7375 99.0141C85.5866 98.9266 83.4607 98.5139 81.4349 97.8011C80.9597 97.6261 80.4845 97.426 80.0093 97.2134C79.7342 97.0883 79.459 96.9633 79.1964 96.8257L79.234 96.8507C78.9964 96.7382 78.7588 96.6256 78.5337 96.5006C78.7588 96.6131 78.9713 96.7257 79.2089 96.8257C73.294 93.7619 68.4044 87.9845 67.7917 80.9691C67.7917 80.9691 70.0301 72.6281 83.8109 72.6281C85.299 72.6281 89.5633 68.4639 89.6383 67.2634C89.6258 66.8757 81.1848 63.5118 77.8959 60.2729C76.1327 58.5347 75.3073 57.7094 74.5695 57.0841C74.1693 56.7465 73.7567 56.4338 73.319 56.1337C72.2185 52.2696 72.1685 48.1804 73.1814 44.2913C68.7046 46.4547 64.7404 49.531 61.514 53.3075H61.489C59.5632 50.869 59.7008 42.8407 59.8133 41.165C59.2506 41.3901 58.7004 41.6777 58.2002 42.0278C56.4995 43.2408 54.9238 44.5914 53.4607 46.0795C51.7975 47.7677 50.2844 49.581 48.9338 51.5193V51.5318V51.5068C45.82 55.9211 43.6066 60.9107 42.4311 66.1879L42.3686 66.5131C42.281 66.9382 41.8683 69.1016 41.8058 69.5643C41.8058 69.5268 41.8058 69.6018 41.8058 69.5643C41.4307 71.8028 41.1931 74.0537 41.093 76.3172V76.5673C41.118 103.341 62.8396 125.013 89.6008 125C113.173 124.975 133.319 108.005 137.321 84.7707C137.408 84.1454 137.471 83.5327 137.546 82.8949C138.546 74.6415 137.458 66.2755 134.407 58.5472Z" fill="url(#paint11_linear_649_1098)"/>
<path d="M59.2754 154H56.2969V139.723H64.4805V142.203H59.2754V145.885H64.1191V148.355H59.2754V154ZM70.0176 143.082V154H67.0391V143.082H70.0176ZM68.5332 138.805C68.9759 138.805 69.3568 138.909 69.6758 139.117C69.9948 139.319 70.1543 139.7 70.1543 140.26C70.1543 140.813 69.9948 141.197 69.6758 141.412C69.3568 141.62 68.9759 141.725 68.5332 141.725C68.084 141.725 67.6999 141.62 67.3809 141.412C67.0684 141.197 66.9121 140.813 66.9121 140.26C66.9121 139.7 67.0684 139.319 67.3809 139.117C67.6999 138.909 68.084 138.805 68.5332 138.805ZM79.2461 142.877C79.3958 142.877 79.5684 142.887 79.7637 142.906C79.9655 142.919 80.1283 142.939 80.252 142.965L80.0273 145.758C79.9297 145.725 79.7897 145.702 79.6074 145.689C79.4316 145.67 79.2786 145.66 79.1484 145.66C78.7643 145.66 78.39 145.709 78.0254 145.807C77.6673 145.904 77.3451 146.064 77.0586 146.285C76.7721 146.5 76.5443 146.786 76.375 147.145C76.2122 147.496 76.1309 147.929 76.1309 148.443V154H73.1523V143.082H75.4082L75.8477 144.918H75.9941C76.209 144.547 76.4759 144.208 76.7949 143.902C77.1204 143.59 77.4883 143.342 77.8984 143.16C78.3151 142.971 78.7643 142.877 79.2461 142.877ZM86.7363 142.877C87.7454 142.877 88.6146 143.072 89.3438 143.463C90.0729 143.847 90.6361 144.407 91.0332 145.143C91.4303 145.878 91.6289 146.777 91.6289 147.838V149.283H84.5879C84.6204 150.123 84.8711 150.784 85.3398 151.266C85.8151 151.741 86.4727 151.979 87.3125 151.979C88.0091 151.979 88.6471 151.907 89.2266 151.764C89.806 151.62 90.4017 151.406 91.0137 151.119V153.424C90.4733 153.691 89.9069 153.886 89.3145 154.01C88.7285 154.133 88.0156 154.195 87.1758 154.195C86.082 154.195 85.112 153.993 84.2656 153.59C83.4258 153.186 82.765 152.571 82.2832 151.744C81.8079 150.917 81.5703 149.876 81.5703 148.619C81.5703 147.343 81.7852 146.282 82.2148 145.436C82.651 144.583 83.2565 143.945 84.0312 143.521C84.806 143.092 85.7077 142.877 86.7363 142.877ZM86.7559 144.996C86.1764 144.996 85.6947 145.182 85.3105 145.553C84.9329 145.924 84.7148 146.507 84.6562 147.301H88.8359C88.8294 146.858 88.748 146.464 88.5918 146.119C88.4421 145.774 88.2142 145.501 87.9082 145.299C87.6087 145.097 87.2246 144.996 86.7559 144.996ZM100.086 145.318H97.5078V154H94.5293V145.318H92.8887V143.883L94.5293 143.082V142.281C94.5293 141.35 94.6855 140.628 94.998 140.113C95.3171 139.592 95.763 139.228 96.3359 139.02C96.9154 138.805 97.599 138.697 98.3867 138.697C98.9661 138.697 99.4935 138.746 99.9688 138.844C100.444 138.935 100.831 139.039 101.131 139.156L100.369 141.344C100.141 141.272 99.8939 141.207 99.627 141.148C99.36 141.09 99.054 141.061 98.709 141.061C98.2923 141.061 97.9863 141.188 97.791 141.441C97.6022 141.689 97.5078 142.008 97.5078 142.398V143.082H100.086V145.318ZM111.727 148.521C111.727 149.433 111.603 150.24 111.355 150.943C111.115 151.646 110.76 152.242 110.291 152.73C109.829 153.212 109.269 153.577 108.611 153.824C107.96 154.072 107.225 154.195 106.404 154.195C105.636 154.195 104.93 154.072 104.285 153.824C103.647 153.577 103.09 153.212 102.615 152.73C102.146 152.242 101.782 151.646 101.521 150.943C101.268 150.24 101.141 149.433 101.141 148.521C101.141 147.311 101.355 146.285 101.785 145.445C102.215 144.605 102.827 143.967 103.621 143.531C104.415 143.095 105.363 142.877 106.463 142.877C107.485 142.877 108.39 143.095 109.178 143.531C109.972 143.967 110.594 144.605 111.043 145.445C111.499 146.285 111.727 147.311 111.727 148.521ZM104.178 148.521C104.178 149.238 104.256 149.84 104.412 150.328C104.568 150.816 104.812 151.184 105.145 151.432C105.477 151.679 105.91 151.803 106.443 151.803C106.971 151.803 107.397 151.679 107.723 151.432C108.055 151.184 108.296 150.816 108.445 150.328C108.602 149.84 108.68 149.238 108.68 148.521C108.68 147.799 108.602 147.2 108.445 146.725C108.296 146.243 108.055 145.882 107.723 145.641C107.391 145.4 106.958 145.279 106.424 145.279C105.636 145.279 105.063 145.549 104.705 146.09C104.354 146.63 104.178 147.441 104.178 148.521ZM116.424 148.424L112.908 143.082H116.287L118.406 146.559L120.545 143.082H123.924L120.369 148.424L124.09 154H120.701L118.406 150.26L116.102 154H112.723L116.424 148.424Z" fill="black"/>
<defs>
<linearGradient id="paint0_linear_649_1098" x1="127.98" y1="40.4868" x2="47.5231" y2="118.113" gradientUnits="userSpaceOnUse">
<stop offset="0.048" stop-color="#FFF44F"/>
<stop offset="0.111" stop-color="#FFE847"/>
<stop offset="0.225" stop-color="#FFC830"/>
<stop offset="0.368" stop-color="#FF980E"/>
<stop offset="0.401" stop-color="#FF8B16"/>
<stop offset="0.462" stop-color="#FF672A"/>
<stop offset="0.534" stop-color="#FF3647"/>
<stop offset="0.705" stop-color="#E31587"/>
</linearGradient>
<radialGradient id="paint1_radial_649_1098" cx="0" cy="0" r="1" gradientUnits="userSpaceOnUse" gradientTransform="translate(124.269 36.099) scale(101.038 101.038)">
<stop offset="0.129" stop-color="#FFBD4F"/>
<stop offset="0.186" stop-color="#FFAC31"/>
<stop offset="0.247" stop-color="#FF9D17"/>
<stop offset="0.283" stop-color="#FF980E"/>
<stop offset="0.403" stop-color="#FF563B"/>
<stop offset="0.467" stop-color="#FF3750"/>
<stop offset="0.71" stop-color="#F5156C"/>
<stop offset="0.782" stop-color="#EB0878"/>
<stop offset="0.86" stop-color="#E50080"/>
</radialGradient>
<radialGradient id="paint2_radial_649_1098" cx="0" cy="0" r="1" gradientUnits="userSpaceOnUse" gradientTransform="translate(87.3487 77.4065) scale(101.038 101.038)">
<stop offset="0.3" stop-color="#960E18"/>
<stop offset="0.351" stop-color="#B11927" stop-opacity="0.74"/>
<stop offset="0.435" stop-color="#DB293D" stop-opacity="0.343"/>
<stop offset="0.497" stop-color="#F5334B" stop-opacity="0.094"/>
<stop offset="0.53" stop-color="#FF3750" stop-opacity="0"/>
</radialGradient>
<radialGradient id="paint3_radial_649_1098" cx="0" cy="0" r="1" gradientUnits="userSpaceOnUse" gradientTransform="translate(99.5306 13.1696) scale(73.1953)">
<stop offset="0.132" stop-color="#FFF44F"/>
<stop offset="0.252" stop-color="#FFDC3E"/>
<stop offset="0.506" stop-color="#FF9D12"/>
<stop offset="0.526" stop-color="#FF980E"/>
</radialGradient>
<radialGradient id="paint4_radial_649_1098" cx="0" cy="0" r="1" gradientUnits="userSpaceOnUse" gradientTransform="translate(76.1729 103.798) scale(48.1088 48.1089)">
<stop offset="0.353" stop-color="#3A8EE6"/>
<stop offset="0.472" stop-color="#5C79F0"/>
<stop offset="0.669" stop-color="#9059FF"/>
<stop offset="1" stop-color="#C139E6"/>
</radialGradient>
<radialGradient id="paint5_radial_649_1098" cx="0" cy="0" r="1" gradientTransform="matrix(24.7927 -5.99412 -7.0144 -29.0269 92.8697 69.126)" gradientUnits="userSpaceOnUse">
<stop offset="0.206" stop-color="#9059FF" stop-opacity="0"/>
<stop offset="0.278" stop-color="#8C4FF3" stop-opacity="0.064"/>
<stop offset="0.747" stop-color="#7716A8" stop-opacity="0.45"/>
<stop offset="0.975" stop-color="#6E008B" stop-opacity="0.6"/>
</radialGradient>
<radialGradient id="paint6_radial_649_1098" cx="0" cy="0" r="1" gradientUnits="userSpaceOnUse" gradientTransform="translate(86.0735 31.9652) scale(34.6095 34.6095)">
<stop stop-color="#FFE226"/>
<stop offset="0.121" stop-color="#FFDB27"/>
<stop offset="0.295" stop-color="#FFC82A"/>
<stop offset="0.502" stop-color="#FFA930"/>
<stop offset="0.732" stop-color="#FF7E37"/>
<stop offset="0.792" stop-color="#FF7139"/>
</radialGradient>
<radialGradient id="paint7_radial_649_1098" cx="0" cy="0" r="1" gradientUnits="userSpaceOnUse" gradientTransform="translate(113.277 10.0126) scale(147.663 147.663)">
<stop offset="0.113" stop-color="#FFF44F"/>
<stop offset="0.456" stop-color="#FF980E"/>
<stop offset="0.622" stop-color="#FF5634"/>
<stop offset="0.716" stop-color="#FF3647"/>
<stop offset="0.904" stop-color="#E31587"/>
</radialGradient>
<radialGradient id="paint8_radial_649_1098" cx="0" cy="0" r="1" gradientTransform="matrix(11.3577 107.628 70.6343 -7.46366 100.832 18.2237)" gradientUnits="userSpaceOnUse">
<stop stop-color="#FFF44F"/>
<stop offset="0.06" stop-color="#FFE847"/>
<stop offset="0.168" stop-color="#FFC830"/>
<stop offset="0.304" stop-color="#FF980E"/>
<stop offset="0.356" stop-color="#FF8B16"/>
<stop offset="0.455" stop-color="#FF672A"/>
<stop offset="0.57" stop-color="#FF3647"/>
<stop offset="0.737" stop-color="#E31587"/>
</radialGradient>
<radialGradient id="paint9_radial_649_1098" cx="0" cy="0" r="1" gradientUnits="userSpaceOnUse" gradientTransform="translate(85.258 44.7843) scale(92.1885 92.1885)">
<stop offset="0.137" stop-color="#FFF44F"/>
<stop offset="0.48" stop-color="#FF980E"/>
<stop offset="0.592" stop-color="#FF5634"/>
<stop offset="0.655" stop-color="#FF3647"/>
<stop offset="0.904" stop-color="#E31587"/>
</radialGradient>
<radialGradient id="paint10_radial_649_1098" cx="0" cy="0" r="1" gradientUnits="userSpaceOnUse" gradientTransform="translate(109.593 50.1797) scale(100.9 100.9)">
<stop offset="0.094" stop-color="#FFF44F"/>
<stop offset="0.231" stop-color="#FFE141"/>
<stop offset="0.509" stop-color="#FFAF1E"/>
<stop offset="0.626" stop-color="#FF980E"/>
</radialGradient>
<linearGradient id="paint11_linear_649_1098" x1="127.015" y1="40.0729" x2="58.5537" y2="108.533" gradientUnits="userSpaceOnUse">
<stop offset="0.167" stop-color="#FFF44F" stop-opacity="0.8"/>
<stop offset="0.266" stop-color="#FFF44F" stop-opacity="0.634"/>
<stop offset="0.489" stop-color="#FFF44F" stop-opacity="0.217"/>
<stop offset="0.6" stop-color="#FFF44F" stop-opacity="0"/>
</linearGradient>
</defs>
</svg>
