<svg width="180" height="180" viewBox="0 0 180 180" fill="none" xmlns="http://www.w3.org/2000/svg">
<rect width="180" height="180" fill="#073042" fill-opacity="0.25"/>
<rect x="1" y="1" width="178" height="178" stroke="white" stroke-opacity="0.05" stroke-width="2"/>
<path fill-rule="evenodd" clip-rule="evenodd" d="M128.97 98.7367C128.97 100.926 127.978 103.094 126.052 105.117C124.125 107.14 121.301 108.978 117.742 110.526C114.182 112.074 109.956 113.302 105.306 114.14C100.655 114.978 95.6699 115.409 90.6359 115.409C85.6018 115.409 80.6171 114.978 75.9662 114.14C71.3154 113.302 67.0895 112.074 63.5299 110.526C59.9703 108.978 57.1467 107.14 55.2202 105.117C53.2938 103.094 52.3022 100.926 52.3022 98.7367C52.3022 96.5472 53.2938 94.3792 55.2202 92.3564C57.1467 90.3336 59.9703 88.4957 63.5299 86.9475C67.0895 85.3993 71.3154 84.1712 75.9662 83.3333C80.6171 82.4955 85.6018 82.0642 90.6359 82.0642C95.6699 82.0642 100.655 82.4955 105.306 83.3333C109.956 84.1712 114.182 85.3993 117.742 86.9475C121.301 88.4957 124.125 90.3336 126.052 92.3564C127.978 94.3792 128.97 96.5472 128.97 98.7367Z" fill="url(#paint0_radial_766_860)"/>
<path fill-rule="evenodd" clip-rule="evenodd" d="M63.8533 57.8412C63.8533 57.8412 69.8911 70.2921 84.0162 69.9408C113.617 69.1982 118.808 53.7568 119.55 51.5289C120.293 49.301 121.429 49.6384 121.692 51.6975C131.346 139.328 54.6935 101.729 51.9712 86.8038C67.1951 82.348 63.4819 73.8078 63.4819 73.8078L63.8533 57.8412Z" fill="url(#paint1_radial_766_860)" stroke="#2E3436" stroke-width="2.10047" stroke-miterlimit="10"/>
<path fill-rule="evenodd" clip-rule="evenodd" d="M75.1191 94.8058C89.274 97.6369 96.4824 95.0118 100.701 91.7542C99.5872 90.3154 97.6842 88.7373 97.6842 88.7373C97.6842 88.7373 102.627 90.1109 104.368 92.3576C106.104 94.5979 105.012 95.9782 104.558 98.8447C103.547 96.327 101.66 95.3829 101.404 94.3826C97.61 99.6273 88.1575 99.4094 75.1191 94.8058Z" fill="url(#paint2_linear_766_860)"/>
<path opacity="0.185393" fill-rule="evenodd" clip-rule="evenodd" d="M119.714 56.5303C118.534 58.4772 116.76 60.8009 114.069 63.0286C108.541 67.6056 99.2595 71.7715 84.0717 72.1525C75.1985 72.3732 69.4676 68.0899 65.9551 64.2758L65.6925 73.6623C65.9784 74.5419 66.5652 76.583 65.5612 79.3729C64.4809 82.3751 61.0357 85.4462 55.1245 87.7748C55.6503 88.8713 56.1653 89.9669 57.7501 91.5163C59.9093 93.6271 62.911 95.9022 66.4802 97.949C73.6185 102.043 82.8672 105.286 91.489 105.432C100.111 105.577 107.993 102.839 113.413 94.9296C118.409 87.6384 121.148 75.2944 119.714 56.5303Z" stroke="url(#paint3_linear_766_860)" stroke-width="2.10047" stroke-miterlimit="10"/>
<path fill-rule="evenodd" clip-rule="evenodd" d="M79.2631 76.5927C79.2634 77.7144 79.0427 78.8251 78.6136 79.8615C78.1846 80.8979 77.5555 81.8397 76.7625 82.6329C75.9694 83.4262 75.0279 84.0554 73.9916 84.4848C72.9553 84.9141 71.8446 85.1351 70.7229 85.1351C69.6012 85.1351 68.4905 84.9141 67.4542 84.4848C66.4179 84.0554 65.4763 83.4262 64.6832 82.6329C63.8902 81.8397 63.2612 80.8979 62.8321 79.8615C62.403 78.8251 62.1823 77.7144 62.1826 76.5927C62.1823 75.471 62.403 74.3602 62.8321 73.3238C63.2612 72.2874 63.8902 71.3457 64.6832 70.5524C65.4763 69.7592 66.4179 69.1299 67.4542 68.7006C68.4905 68.2713 69.6012 68.0503 70.7229 68.0503C71.8446 68.0503 72.9553 68.2713 73.9916 68.7006C75.0279 69.1299 75.9694 69.7592 76.7625 70.5524C77.5555 71.3457 78.1846 72.2874 78.6136 73.3238C79.0427 74.3602 79.2634 75.471 79.2631 76.5927Z" fill="url(#paint4_radial_766_860)" stroke="#888A85" stroke-width="2.10047" stroke-miterlimit="10"/>
<path fill-rule="evenodd" clip-rule="evenodd" d="M62.2503 79.8104C64.2381 82.5657 65.3672 85.769 65.3892 88.7155C65.4112 91.6619 64.3243 94.1103 62.3676 95.5219C60.4109 96.9335 57.7447 97.1928 54.9555 96.2426C52.1664 95.2925 49.4827 93.2107 47.4949 90.4554C45.5072 87.7001 44.3781 84.4968 44.3561 81.5503C44.3341 78.6039 45.421 76.1555 47.3777 74.7439C49.3344 73.3323 52.0006 73.073 54.7897 74.0232C57.5789 74.9734 60.2625 77.0551 62.2503 79.8104Z" fill="url(#paint5_radial_766_860)" stroke="black" stroke-width="2.10047" stroke-miterlimit="10"/>
<path fill-rule="evenodd" clip-rule="evenodd" d="M76.8318 77.8578C76.832 78.3979 76.7258 78.9327 76.5192 79.4318C76.3126 79.9308 76.0098 80.3842 75.6279 80.7662C75.2461 81.1482 74.7927 81.4511 74.2937 81.6579C73.7948 81.8646 73.26 81.971 72.7199 81.971C72.1798 81.971 71.645 81.8646 71.146 81.6579C70.6471 81.4511 70.1937 81.1482 69.8118 80.7662C69.43 80.3842 69.1271 79.9308 68.9206 79.4318C68.714 78.9327 68.6078 78.3979 68.6079 77.8578C68.6078 77.3177 68.714 76.7829 68.9206 76.2839C69.1271 75.7848 69.43 75.3314 69.8118 74.9494C70.1937 74.5675 70.6471 74.2645 71.146 74.0577C71.645 73.851 72.1798 73.7446 72.7199 73.7446C73.26 73.7446 73.7948 73.851 74.2937 74.0577C74.7927 74.2645 75.2461 74.5675 75.6279 74.9494C76.0098 75.3314 76.3126 75.7848 76.5192 76.2839C76.7258 76.7829 76.832 77.3177 76.8318 77.8578Z" fill="#2E3436" stroke="black" stroke-width="2.10047" stroke-miterlimit="10"/>
<path opacity="0.280899" fill-rule="evenodd" clip-rule="evenodd" d="M48.1224 76.6205C46.7804 77.6256 46.0731 79.3263 46.1368 81.6341C46.2005 83.9419 47.1113 86.7674 48.9806 89.2633C50.85 91.7591 53.3053 93.4277 55.5021 94.138C57.6988 94.8482 59.5297 94.6477 60.8717 93.6426C62.2137 92.6374 62.9236 90.8556 62.8705 88.5371C62.8174 86.2186 61.9313 83.4508 60.066 80.9604C58.2008 78.4701 55.7939 76.8413 53.5839 76.1383C51.374 75.4353 49.4644 75.6153 48.1224 76.6205Z" stroke="url(#paint6_linear_766_860)" stroke-width="2.10047" stroke-miterlimit="10"/>
<path fill-rule="evenodd" clip-rule="evenodd" d="M54.3155 80.4915C54.3156 81.0767 54.2196 81.6563 54.0331 82.197C53.8465 82.7377 53.573 83.229 53.2282 83.6429C52.8834 84.0568 52.474 84.3851 52.0235 84.6091C51.5729 84.8331 51.09 84.9483 50.6023 84.9483C50.1146 84.9483 49.6317 84.8331 49.1811 84.6091C48.7306 84.3851 48.3212 84.0568 47.9764 83.6429C47.6316 83.229 47.3581 82.7377 47.1716 82.197C46.985 81.6563 46.889 81.0767 46.8892 80.4915C46.889 79.9063 46.985 79.3267 47.1716 78.786C47.3581 78.2453 47.6316 77.754 47.9764 77.3401C48.3212 76.9262 48.7306 76.5979 49.1811 76.3739C49.6317 76.15 50.1146 76.0347 50.6023 76.0347C51.09 76.0347 51.5729 76.15 52.0235 76.3739C52.474 76.5979 52.8834 76.9262 53.2282 77.3401C53.573 77.754 53.8465 78.2453 54.0331 78.786C54.2196 79.3267 54.3156 79.9063 54.3155 80.4915Z" fill="white"/>
<path fill-rule="evenodd" clip-rule="evenodd" d="M73.985 75.96C73.985 76.715 73.6851 77.4391 73.1512 77.973C72.6173 78.5068 71.8933 78.8068 71.1382 78.8068C70.3832 78.8068 69.6592 78.5068 69.1253 77.973C68.5914 77.4391 68.2915 76.715 68.2915 75.96C68.2915 75.205 68.5914 74.4809 69.1253 73.9471C69.6592 73.4132 70.3832 73.1133 71.1382 73.1133C71.8933 73.1133 72.6173 73.4132 73.1512 73.9471C73.6851 74.4809 73.985 75.205 73.985 75.96Z" fill="white"/>
<path fill-rule="evenodd" clip-rule="evenodd" d="M98.3855 77.5209C98.3858 78.8377 98.1267 80.1417 97.6231 81.3583C97.1194 82.5749 96.381 83.6804 95.45 84.6117C94.519 85.5429 93.4137 86.2816 92.1971 86.7856C90.9806 87.2895 89.6768 87.5489 88.36 87.5489C87.0432 87.5489 85.7393 87.2895 84.5228 86.7856C83.3063 86.2816 82.201 85.5429 81.27 84.6117C80.339 83.6804 79.6006 82.5749 79.0969 81.3583C78.5932 80.1417 78.3341 78.8377 78.3345 77.5209C78.3341 76.2042 78.5932 74.9002 79.0969 73.6836C79.6006 72.4669 80.339 71.3614 81.27 70.4302C82.201 69.499 83.3063 68.7603 84.5228 68.2563C85.7393 67.7523 87.0432 67.4929 88.36 67.4929C89.6768 67.4929 90.9806 67.7523 92.1971 68.2563C93.4137 68.7603 94.519 69.499 95.45 70.4302C96.381 71.3614 97.1194 72.4669 97.6231 73.6836C98.1267 74.9002 98.3858 76.2042 98.3855 77.5209Z" fill="url(#paint7_radial_766_860)" stroke="#888A85" stroke-width="2.10047" stroke-miterlimit="10"/>
<path fill-rule="evenodd" clip-rule="evenodd" d="M95.5316 79.0063C95.5318 79.6403 95.4071 80.2681 95.1646 80.8539C94.9221 81.4398 94.5666 81.9721 94.1183 82.4204C93.6701 82.8688 93.1379 83.2245 92.5521 83.4672C91.9664 83.7099 91.3386 83.8348 90.7045 83.8348C90.0705 83.8348 89.4427 83.7099 88.857 83.4672C88.2712 83.2245 87.739 82.8688 87.2908 82.4204C86.8425 81.9721 86.487 81.4398 86.2445 80.8539C86.002 80.2681 85.8773 79.6403 85.8774 79.0063C85.8773 78.3722 86.002 77.7444 86.2445 77.1586C86.487 76.5727 86.8425 76.0404 87.2908 75.5921C87.739 75.1437 88.2712 74.788 88.857 74.5453C89.4427 74.3026 90.0705 74.1777 90.7045 74.1777C91.3386 74.1777 91.9664 74.3026 92.5521 74.5453C93.1379 74.788 93.6701 75.1437 94.1183 75.5921C94.5666 76.0404 94.9221 76.5727 95.1646 77.1586C95.4071 77.7444 95.5318 78.3722 95.5316 79.0063Z" fill="#2E3436" stroke="black" stroke-width="2.10047" stroke-miterlimit="10"/>
<path fill-rule="evenodd" clip-rule="evenodd" d="M92.1895 76.7784C92.1895 77.6647 91.8374 78.5147 91.2107 79.1414C90.584 79.7681 89.734 80.1202 88.8477 80.1202C87.9614 80.1202 87.1114 79.7681 86.4847 79.1414C85.8579 78.5147 85.5059 77.6647 85.5059 76.7784C85.5059 75.892 85.8579 75.042 86.4847 74.4153C87.1114 73.7886 87.9614 73.4365 88.8477 73.4365C89.734 73.4365 90.584 73.7886 91.2107 74.4153C91.8374 75.042 92.1895 75.892 92.1895 76.7784Z" fill="white"/>
<path d="M118.912 107.462L120.858 103.587C113.619 98.2907 100.275 94.4372 100.275 94.4372C97.9618 93.3598 97.2319 95.4377 98.8335 96.7885C98.8335 96.7885 110.246 104.97 118.912 107.462Z" fill="url(#paint8_linear_766_860)" stroke="#673907" stroke-width="2.10047" stroke-linecap="round"/>
<path d="M128.192 111.034L129.234 108.728L121.152 103.55L120.508 103.495L120.23 102.603C119.056 103.339 117.35 106.07 117.802 107.605L118.675 107.275L119.148 107.732L128.192 111.034Z" fill="url(#paint9_linear_766_860)" stroke="#888A85" stroke-width="2.10047" stroke-linecap="round"/>
<path d="M122.955 106.66L128.321 108.964" stroke="white" stroke-width="2.10048" stroke-linecap="round" stroke-linejoin="round"/>
<path d="M139.938 120.827C137.418 112.274 136.525 105.483 129.94 106.088C124.634 106.575 124.263 114.177 129.746 116.275C135.028 118.296 139.938 120.827 139.938 120.827Z" fill="url(#paint10_radial_766_860)"/>
<path opacity="0.527778" d="M130.335 106.78C130.613 106.698 130.905 106.672 131.193 106.703C131.482 106.733 131.761 106.82 132.016 106.959C132.271 107.098 132.496 107.286 132.678 107.511C132.86 107.737 132.997 107.997 133.078 108.275C133.16 108.553 133.187 108.845 133.156 109.133C133.125 109.422 133.038 109.701 132.899 109.956C132.76 110.211 132.573 110.436 132.347 110.618C132.121 110.8 131.862 110.936 131.583 111.018C131.305 111.1 131.013 111.126 130.725 111.096C130.436 111.065 130.157 110.978 129.902 110.839C129.647 110.7 129.422 110.513 129.24 110.287C129.058 110.061 128.922 109.802 128.84 109.524C128.758 109.245 128.731 108.954 128.762 108.665C128.793 108.377 128.88 108.097 129.019 107.842C129.158 107.587 129.346 107.363 129.571 107.18C129.797 106.998 130.057 106.862 130.335 106.78Z" fill="white"/>
<path d="M120.704 103.637C120.892 103.582 121.089 103.564 121.283 103.585C121.478 103.606 121.667 103.664 121.838 103.758C122.01 103.852 122.162 103.978 122.285 104.131C122.408 104.283 122.5 104.458 122.555 104.646C122.61 104.834 122.628 105.03 122.608 105.225C122.587 105.42 122.528 105.608 122.434 105.78C122.34 105.952 122.214 106.104 122.061 106.227C121.909 106.35 121.734 106.441 121.546 106.497C121.359 106.552 121.162 106.57 120.967 106.549C120.772 106.528 120.584 106.47 120.412 106.376C120.24 106.282 120.088 106.156 119.965 106.003C119.842 105.851 119.75 105.676 119.695 105.488C119.64 105.301 119.622 105.104 119.643 104.909C119.663 104.714 119.722 104.526 119.816 104.354C119.91 104.182 120.036 104.03 120.189 103.907C120.341 103.784 120.516 103.693 120.704 103.637Z" fill="white"/>
<path opacity="0.427778" d="M136.774 115.709C136.774 115.709 135.954 112.639 134.143 111.041C133.502 110.475 134.309 109.643 134.914 110.374C136.22 111.954 136.774 115.709 136.774 115.709Z" fill="url(#paint11_linear_766_860)"/>
<path fill-rule="evenodd" clip-rule="evenodd" d="M90.3794 98.3147C93.5246 98.6152 96.365 97.7429 97.546 97.3189C97.7523 96.1524 98.673 93.9135 101.844 93.7661L100.73 91.8167C100.73 91.8167 96.5989 94.6479 92.1896 95.4834L90.3794 98.3147Z" fill="url(#paint12_linear_766_860)"/>
<defs>
<radialGradient id="paint0_radial_766_860" cx="0" cy="0" r="1" gradientUnits="userSpaceOnUse" gradientTransform="translate(90.6359 98.7368) scale(38.3336 16.6725)">
<stop/>
<stop offset="1" stop-opacity="0"/>
</radialGradient>
<radialGradient id="paint1_radial_766_860" cx="0" cy="0" r="1" gradientUnits="userSpaceOnUse" gradientTransform="translate(76.841 78.4934) scale(71.6021 52.3735)">
<stop stop-color="#857C63"/>
<stop offset="1" stop-color="#221F19"/>
</radialGradient>
<linearGradient id="paint2_linear_766_860" x1="101.954" y1="91.3679" x2="78.5615" y2="96.0093" gradientUnits="userSpaceOnUse">
<stop/>
<stop offset="1" stop-opacity="0"/>
</linearGradient>
<linearGradient id="paint3_linear_766_860" x1="73.5037" y1="71.7943" x2="125.082" y2="130.345" gradientUnits="userSpaceOnUse">
<stop stop-color="white"/>
<stop offset="1" stop-color="white" stop-opacity="0"/>
</linearGradient>
<radialGradient id="paint4_radial_766_860" cx="0" cy="0" r="1" gradientUnits="userSpaceOnUse" gradientTransform="translate(70.7229 70.5829) scale(12.4398 12.4398)">
<stop stop-color="white"/>
<stop offset="1" stop-color="#B9B9B0"/>
</radialGradient>
<radialGradient id="paint5_radial_766_860" cx="0" cy="0" r="1" gradientUnits="userSpaceOnUse" gradientTransform="translate(51.4593 80.6694) rotate(-30) scale(9.34465 10.9067)">
<stop stop-color="#5B676B"/>
<stop offset="1" stop-color="#141718"/>
</radialGradient>
<linearGradient id="paint6_linear_766_860" x1="49.9966" y1="78.3821" x2="59.7927" y2="92.5842" gradientUnits="userSpaceOnUse">
<stop stop-color="white"/>
<stop offset="1" stop-color="white" stop-opacity="0"/>
</linearGradient>
<radialGradient id="paint7_radial_766_860" cx="0" cy="0" r="1" gradientUnits="userSpaceOnUse" gradientTransform="translate(88.36 70.4659) scale(14.6032 14.6032)">
<stop stop-color="white"/>
<stop offset="1" stop-color="#B9B9B0"/>
</radialGradient>
<linearGradient id="paint8_linear_766_860" x1="114.233" y1="98.9822" x2="109.87" y2="108.512" gradientUnits="userSpaceOnUse">
<stop stop-color="#6E3D09"/>
<stop offset="0.242424" stop-color="#EA8113"/>
<stop offset="0.621212" stop-color="#5C3307"/>
<stop offset="1" stop-color="#E07C12"/>
</linearGradient>
<linearGradient id="paint9_linear_766_860" x1="123.584" y1="109.332" x2="125.502" y2="105.461" gradientUnits="userSpaceOnUse">
<stop stop-color="#BDBDBD"/>
<stop offset="0.333333" stop-color="#E2E2E2"/>
<stop offset="0.666667" stop-color="#A3A3A3"/>
<stop offset="1" stop-color="#DDDDDD"/>
</linearGradient>
<radialGradient id="paint10_radial_766_860" cx="0" cy="0" r="1" gradientUnits="userSpaceOnUse" gradientTransform="translate(128.369 111.582) rotate(-106.415) scale(10.1758 9.91661)">
<stop stop-color="#696969"/>
<stop offset="1"/>
</radialGradient>
<linearGradient id="paint11_linear_766_860" x1="134.393" y1="109.55" x2="136.85" y2="114.104" gradientUnits="userSpaceOnUse">
<stop stop-color="white"/>
<stop offset="1" stop-color="white" stop-opacity="0"/>
</linearGradient>
<linearGradient id="paint12_linear_766_860" x1="97.0166" y1="95.8083" x2="93.1643" y2="96.7366" gradientUnits="userSpaceOnUse">
<stop/>
<stop offset="1" stop-opacity="0"/>
</linearGradient>
</defs>
</svg>
