<svg width="180" height="180" viewBox="0 0 180 180" fill="none" xmlns="http://www.w3.org/2000/svg">
<rect width="180" height="180" fill="#073042" fill-opacity="0.25"/>
<rect x="1" y="1" width="178" height="178" stroke="white" stroke-opacity="0.05" stroke-width="2"/>
<path d="M56.626 119.195L87.5615 133.754V89.3301L56.626 74.7715V119.195ZM92.4385 89.3301V133.754L123.373 119.195V74.7715L92.4385 89.3301ZM91.666 84.3203L96.7803 81.9121V61.5166H91.666V84.3203ZM83.124 81.8672L88.2676 84.2881V61.5166H83.124V81.8672ZM73.5371 77.3555L78.6523 79.7627V57.4678H73.5371V77.3555ZM101.36 79.7568L106.504 77.3359V57.4678H101.36V79.7568ZM64.9951 73.3359L70.1387 75.7568V57.4678H64.9951V73.3359ZM109.901 75.7363L115.017 73.3291V57.4678H109.901V75.7363ZM56.9219 69.5361L61.0176 71.4648V67.8682L56.9219 69.5361ZM118.994 71.457L123.091 69.5293L118.994 67.8604V71.457ZM88.167 52.9658L84.4883 58.1299H95.416L91.6904 52.9043L88.167 52.9658ZM106.402 48.918L102.725 54.0811H113.653L109.928 48.8555L106.402 48.918ZM70.0381 48.918L66.3594 54.0811H77.2881L73.5635 48.8555L70.0381 48.918ZM118.995 63.0156L127.94 67.2549C128.006 67.2387 128.076 67.2484 128.134 67.2852C128.206 67.331 128.25 67.4108 128.25 67.4961V122.116C128.25 122.213 128.194 122.302 128.106 122.343L92.2949 139.197L90.1064 140.227C90.0391 140.258 89.9609 140.258 89.8936 140.227L87.7051 139.197L51.8936 122.343C51.8059 122.302 51.75 122.213 51.75 122.116V67.4961C51.7501 67.411 51.7936 67.332 51.8652 67.2861C51.9288 67.2456 52.0065 67.2376 52.0771 67.2607L61.0176 63.0244V54.8105C61.0176 54.7587 61.0344 54.7083 61.0645 54.666L71.6201 39.8545L71.6602 39.8105C71.705 39.7719 71.7628 39.7501 71.8232 39.75C71.904 39.75 71.9804 39.7888 72.0273 39.8545L82.2617 54.2148L82.3301 54.3115L89.748 43.9033C89.795 43.8375 89.8713 43.7988 89.9521 43.7988C90.0328 43.7989 90.1084 43.8377 90.1553 43.9033L97.627 54.3877L107.985 39.8545L108.025 39.8105C108.07 39.7719 108.128 39.7501 108.188 39.75C108.269 39.75 108.346 39.7888 108.393 39.8545L118.627 54.2148L118.948 54.665C118.978 54.7074 118.995 54.7585 118.995 54.8105V63.0156Z" fill="black" stroke="white" stroke-width="0.5" stroke-linejoin="round"/>
</svg>
