<svg width="180" height="180" viewBox="0 0 180 180" fill="none" xmlns="http://www.w3.org/2000/svg">
<rect width="180" height="180" fill="#073042" fill-opacity="0.25"/>
<rect x="1" y="1" width="178" height="178" stroke="white" stroke-opacity="0.05" stroke-width="2"/>
<path fill-rule="evenodd" clip-rule="evenodd" d="M56.2925 40H123.765C132.746 40 140 47.3115 140 56.2925V123.765C140 132.746 132.746 140 123.765 140H66.6552L66.4249 96.9372C66.4249 96.8221 66.4249 96.707 66.4249 96.5918C66.4249 80.2994 79.3782 67.0581 95.4404 67.0581C105.055 67.0581 112.884 75.0029 112.884 84.7899C112.884 94.5769 105.055 102.522 95.4404 102.522C92.2165 102.522 89.6258 99.8733 89.6258 96.5918C89.6258 93.3679 92.2165 90.7196 95.4404 90.7196C98.6644 90.7196 101.255 88.0714 101.255 84.7899C101.255 81.5659 98.6644 78.9177 95.4404 78.9177C85.8261 78.9177 78.0541 86.8048 78.0541 96.5918C78.0541 106.436 85.8261 114.324 95.4404 114.324C111.503 114.324 124.456 101.14 124.456 84.7899C124.456 68.4974 111.503 55.2562 95.4404 55.2562C72.9879 55.2562 54.7956 73.7363 54.7956 96.5918C54.7956 96.7453 54.7956 96.8797 54.7956 96.9948H54.7381L54.9108 139.942C46.563 139.252 40 132.286 40 123.765V56.2925C40 47.3115 47.2539 40 56.2925 40Z" fill="#18A497"/>
</svg>
