<svg width="179" height="179" viewBox="0 0 179 179" fill="none" xmlns="http://www.w3.org/2000/svg">
<rect width="179" height="179" fill="#E0EFFE"/>
<g clip-path="url(#clip0_649_1091)">
<path d="M89.5 125C111.375 125 123.594 125 131.531 117.062C139.469 109.125 139.5 96.875 139.5 75C139.5 53.125 139.5 40.9375 131.531 33C123.562 25.0625 111.375 25 89.5 25C67.625 25 55.4062 25 47.4688 32.9375C39.5312 40.875 39.5 53.125 39.5 75C39.5 96.875 39.5 109.062 47.4688 117C55.4375 124.938 67.625 125 89.5 125Z" fill="#EF3939"/>
<path d="M115.844 48.5313C110.605 43.2733 103.923 39.6884 96.6451 38.2305C89.3671 36.7726 81.8202 37.5073 74.9601 40.3416C68.1 43.176 62.2353 47.9823 58.1088 54.1521C53.9823 60.3219 51.7795 67.5775 51.7795 75C51.7795 82.4226 53.9823 89.6782 58.1088 95.8479C62.2353 102.018 68.1 106.824 74.9601 109.658C81.8202 112.493 89.3671 113.227 96.6451 111.77C103.923 110.312 110.605 106.727 115.844 101.469C122.847 94.4401 126.78 84.9223 126.78 75C126.78 65.0778 122.847 55.56 115.844 48.5313ZM113.594 65.625L95.0625 97.9688C94.5733 98.9203 93.848 99.7303 92.9562 100.321C92.0643 100.912 91.0356 101.264 89.9687 101.344C88.7888 101.474 87.5972 101.245 86.5492 100.687C85.5013 100.13 84.6456 99.2697 84.0937 98.2188C80.125 91.4688 76.3437 84.7188 72.4687 78.125L65.375 65.625C64.8389 64.7003 64.549 63.6536 64.5328 62.585C64.5167 61.5163 64.7749 60.4613 65.2827 59.5208C65.7906 58.5804 66.5311 57.7859 67.4336 57.2132C68.336 56.6406 69.3703 56.309 70.4375 56.25C71.591 56.1606 72.7457 56.4083 73.761 56.9632C74.7763 57.518 75.6084 58.3559 76.1562 59.375C77.9062 62.5 79.5937 65.375 81.3437 68.375C82.5937 70.5313 83.8125 72.7188 85.0937 74.8438C85.9061 76.3219 87.087 77.5649 88.5216 78.4519C89.9562 79.339 91.5958 79.84 93.2812 79.9063C95.8361 80.0576 98.3513 79.2205 100.306 77.5684C102.261 75.9163 103.505 73.5756 103.781 71.0313V70C103.791 68.3868 103.427 66.7933 102.719 65.3438C102.33 64.5398 102.119 63.6619 102.098 62.7692C102.077 61.8765 102.248 60.9898 102.599 60.1688C102.95 59.3477 103.473 58.6114 104.132 58.0093C104.792 57.4073 105.573 56.9536 106.422 56.6786C107.272 56.4037 108.17 56.314 109.057 56.4156C109.944 56.5172 110.799 56.8076 111.565 57.2674C112.33 57.7272 112.988 58.3457 113.495 59.0812C114.001 59.8167 114.344 60.6521 114.5 61.5313C114.658 62.9585 114.34 64.398 113.594 65.625Z" fill="white"/>
</g>
<path d="M68.498 139.723L63.6445 154H60.3438L55.5 139.723H58.5566L61.2422 148.219C61.2878 148.362 61.3626 148.632 61.4668 149.029C61.571 149.42 61.6751 149.837 61.7793 150.279C61.89 150.715 61.9648 151.077 62.0039 151.363C62.043 151.077 62.1113 150.715 62.209 150.279C62.3132 149.843 62.4141 149.43 62.5117 149.039C62.6159 148.642 62.6908 148.368 62.7363 148.219L65.4414 139.723H68.498ZM73.0488 143.082V154H70.0703V143.082H73.0488ZM71.5645 138.805C72.0072 138.805 72.388 138.909 72.707 139.117C73.026 139.319 73.1855 139.7 73.1855 140.26C73.1855 140.813 73.026 141.197 72.707 141.412C72.388 141.62 72.0072 141.725 71.5645 141.725C71.1152 141.725 70.7311 141.62 70.4121 141.412C70.0996 141.197 69.9434 140.813 69.9434 140.26C69.9434 139.7 70.0996 139.319 70.4121 139.117C70.7311 138.909 71.1152 138.805 71.5645 138.805ZM78.7812 154L74.6211 143.082H77.7363L79.8457 149.303C79.9629 149.667 80.054 150.051 80.1191 150.455C80.1908 150.859 80.2396 151.22 80.2656 151.539H80.3438C80.3633 151.194 80.4089 150.826 80.4805 150.436C80.5586 150.045 80.6595 149.667 80.7832 149.303L82.8828 143.082H85.998L81.8379 154H78.7812ZM92.043 142.857C93.5078 142.857 94.6309 143.176 95.4121 143.814C96.1934 144.452 96.584 145.423 96.584 146.725V154H94.5039L93.9277 152.516H93.8496C93.5371 152.906 93.2181 153.225 92.8926 153.473C92.5671 153.72 92.1927 153.902 91.7695 154.02C91.3464 154.137 90.832 154.195 90.2266 154.195C89.582 154.195 89.0026 154.072 88.4883 153.824C87.9805 153.577 87.5801 153.199 87.2871 152.691C86.9941 152.177 86.8477 151.526 86.8477 150.738C86.8477 149.579 87.2546 148.727 88.0684 148.18C88.8822 147.626 90.1029 147.32 91.7305 147.262L93.625 147.203V146.725C93.625 146.152 93.4753 145.732 93.1758 145.465C92.8763 145.198 92.4596 145.064 91.9258 145.064C91.3984 145.064 90.8809 145.139 90.373 145.289C89.8652 145.439 89.3574 145.628 88.8496 145.855L87.8633 143.844C88.4427 143.538 89.0905 143.297 89.8066 143.121C90.5293 142.945 91.2747 142.857 92.043 142.857ZM93.625 148.941L92.4727 148.98C91.5091 149.007 90.8385 149.179 90.4609 149.498C90.0898 149.817 89.9043 150.237 89.9043 150.758C89.9043 151.214 90.0378 151.539 90.3047 151.734C90.5716 151.923 90.9199 152.018 91.3496 152.018C91.9876 152.018 92.5247 151.829 92.9609 151.451C93.4036 151.074 93.625 150.536 93.625 149.84V148.941ZM102.639 154H99.6602V138.805H102.639V154ZM109.23 154.195C108.013 154.195 107.02 153.72 106.252 152.77C105.49 151.812 105.109 150.41 105.109 148.561C105.109 146.692 105.497 145.279 106.271 144.322C107.046 143.359 108.059 142.877 109.309 142.877C109.829 142.877 110.288 142.949 110.686 143.092C111.083 143.235 111.424 143.427 111.711 143.668C112.004 143.909 112.251 144.179 112.453 144.479H112.551C112.512 144.27 112.463 143.964 112.404 143.561C112.352 143.15 112.326 142.73 112.326 142.301V138.805H115.314V154H113.029L112.453 152.584H112.326C112.137 152.883 111.9 153.157 111.613 153.404C111.333 153.645 110.998 153.837 110.607 153.98C110.217 154.124 109.758 154.195 109.23 154.195ZM110.275 151.822C111.089 151.822 111.662 151.581 111.994 151.1C112.333 150.611 112.512 149.879 112.531 148.902V148.58C112.531 147.519 112.368 146.708 112.043 146.148C111.717 145.582 111.112 145.299 110.227 145.299C109.569 145.299 109.055 145.582 108.684 146.148C108.312 146.715 108.127 147.532 108.127 148.6C108.127 149.667 108.312 150.471 108.684 151.012C109.061 151.552 109.592 151.822 110.275 151.822ZM121.408 143.082V154H118.43V143.082H121.408ZM119.924 138.805C120.367 138.805 120.747 138.909 121.066 139.117C121.385 139.319 121.545 139.7 121.545 140.26C121.545 140.813 121.385 141.197 121.066 141.412C120.747 141.62 120.367 141.725 119.924 141.725C119.475 141.725 119.09 141.62 118.771 141.412C118.459 141.197 118.303 140.813 118.303 140.26C118.303 139.7 118.459 139.319 118.771 139.117C119.09 138.909 119.475 138.805 119.924 138.805Z" fill="black"/>
<defs>
<clipPath id="clip0_649_1091">
<rect width="100" height="100" fill="white" transform="translate(39.5 25)"/>
</clipPath>
</defs>
</svg>
